<svg xmlns="http://www.w3.org/2000/svg" viewBox="0 0 500 500"><g id="freepik--background-complete--inject-232"><path d="M377.29,41.43c-41.6,0-41.67,59.15,0,59.15S419,41.43,377.29,41.43Z" style="fill:#ebebeb"></path><path d="M402.58,76.55c-2.22,10.17-10.66,19-25.3,19-34.57,0-34.52-49.09,0-49.09H378c-32.49.6-32.33,47.09.64,47.09C392,93.56,400.05,85.78,402.58,76.55Z" style="fill:#dbdbdb"></path><path d="M377.53,52.93a1,1,0,0,1,1.08,1v1.65a15.38,15.38,0,0,1,8,2.88c.41.29.63.53.63.95a1.11,1.11,0,0,1-1.17,1,1.19,1.19,0,0,1-.81-.28,13.41,13.41,0,0,0-6.75-2.68V69c6.84,1.32,9.72,3.66,9.72,7.7,0,4.36-4,7.45-9.63,7.62v3.21a1.08,1.08,0,0,1-2.16,0V84.26a17.63,17.63,0,0,1-10.12-4,1,1,0,0,1-.5-.86,1.13,1.13,0,0,1,1.13-1,1.23,1.23,0,0,1,.81.28,15.09,15.09,0,0,0,8.77,3.75V70.68c-6.75-1.36-9.54-3.63-9.54-7.74s4-7.33,9.45-7.46V53.92A1.05,1.05,0,0,1,377.53,52.93Zm-1,15.65V57.34c-4.36.08-7.24,2.47-7.24,5.43C369.3,65.57,370.74,67.3,376.54,68.58Zm2,2.51V82.45C383,82.37,386,80,386,76.85,386,74,384.37,72.28,378.52,71.09Z" style="fill:#dbdbdb"></path><path d="M409.56,216.93c-37.45,6.72-27.56,62.2,9.95,55.47S447.07,210.2,409.56,216.93Z" style="fill:#dbdbdb"></path><path d="M413.08,216.3c-35.7,6.4-25.8,61.88,9.95,55.46S448.83,209.88,413.08,216.3Z" style="fill:#ebebeb"></path><path d="M440.69,245.34c-.19,9.88-5.95,19.46-18.51,21.71-29.67,5.32-37.88-40.72-8.26-46l.58-.09c-27.78,5.56-19.81,49.13,8.47,44.06C434.51,262.91,440.08,254.38,440.69,245.34Z" style="fill:#dbdbdb"></path><path d="M420.2,227a1,1,0,0,1,.83,1l-.19,1.56a12.82,12.82,0,0,1,6.62,3.55,1.12,1.12,0,0,1,.44,1,1,1,0,0,1-1.13.85,1,1,0,0,1-.67-.35,11.09,11.09,0,0,0-5.55-3.22l-1.28,10.9c5.78,1.95,8,4.46,7.56,8.28-.49,4.13-4.3,6.65-9.19,6.23l-.35,3a1,1,0,0,1-1.05.82,1,1,0,0,1-.82-1l.36-3.08a14.69,14.69,0,0,1-8.32-4.81,1,1,0,0,1,.75-1.73,1,1,0,0,1,.67.36,12.69,12.69,0,0,0,7.18,4.44l1.31-11.11c-5.7-2-7.86-4.4-7.4-8.3s4.24-6.53,9-6.08l.18-1.49A.94.94,0,0,1,420.2,227Zm-2.6,14.7,1.25-10.63c-3.79-.37-6.55,1.6-6.88,4.4C411.66,238.14,412.72,239.93,417.6,241.72ZM419,244.3l-1.27,10.76c3.91.38,6.71-1.59,7.05-4.55C425.14,247.82,424,246,419,244.3Z" style="fill:#dbdbdb"></path><path d="M290.53,128.66c30.28,5.44,22.28,50.29-8,44.85S260.21,123.22,290.53,128.66Z" style="fill:#dbdbdb"></path><path d="M287.69,128.15c28.86,5.18,20.86,50-8.05,44.85S258.79,123,287.69,128.15Z" style="fill:#ebebeb"></path><path d="M265.37,151.63c.15,8,4.8,15.74,15,17.56,24,4.3,30.63-32.93,6.68-37.22l-.47-.08c22.45,4.5,16,39.73-6.85,35.62C270.36,165.84,265.86,158.94,265.37,151.63Z" style="fill:#dbdbdb"></path><path d="M285.36,135.24a.76.76,0,0,1,.61.88l-.23,1.25a10.37,10.37,0,0,1,5.14,3.22.87.87,0,0,1,.3.8.8.8,0,0,1-.95.62.73.73,0,0,1-.52-.32,9.07,9.07,0,0,0-4.3-2.9l-1.63,8.73c4.56,1.88,6.22,4,5.65,7.09-.61,3.3-3.82,5.13-7.75,4.53l-.45,2.43a.76.76,0,1,1-1.49-.28l.45-2.46a12,12,0,0,1-6.45-4.34.82.82,0,0,1-.22-.71.83.83,0,0,1,.92-.64.8.8,0,0,1,.53.32,10.18,10.18,0,0,0,5.55,4l1.65-8.88c-4.48-1.9-6.1-4-5.52-7.1s3.78-5,7.6-4.42l.22-1.18A.77.77,0,0,1,285.36,135.24ZM282.47,147l1.58-8.52c-3-.5-5.36.94-5.78,3.19S278.63,145.24,282.47,147Zm1,2.15-1.61,8.61c3.13.52,5.5-.91,5.94-3.28C288.22,152.29,287.37,150.77,283.49,149.11Z" style="fill:#dbdbdb"></path><path d="M360.56,251.78a142,142,0,0,1-62.77-23.08q7.29-4.56,14.15-9.6a126.22,126.22,0,0,0,45.74,16.45Q358.73,243.65,360.56,251.78Z" style="fill:#ebebeb"></path><path d="M338.78,239.56c-.65,2.87-5,4.11-9.75,2.39s-7.13-5.43-5.51-7.92,5.89-3.24,9.64-1.9S339.43,236.69,338.78,239.56Z" style="fill:#dbdbdb"></path><path d="M318.79,231.5c-.43.54-1.68.55-2.79,0s-1.61-1.44-1.12-2,1.72-.48,2.77,0S319.22,231,318.79,231.5Z" style="fill:#dbdbdb"></path><path d="M348.16,241.62c0,.68-1,1-2.19.76s-2.07-1.07-2-1.75,1.07-1,2.19-.72S348.18,240.93,348.16,241.62Z" style="fill:#dbdbdb"></path><path d="M313.24,219.87q-6.63,5.2-13.7,10c-.58-.37-1.17-.76-1.75-1.15q7.29-4.56,14.15-9.6Z" style="fill:#dbdbdb"></path><path d="M360.56,251.78l-2-.24q-1.53-8.13-2.32-16.22l1.44.23Q358.73,243.65,360.56,251.78Z" style="fill:#dbdbdb"></path><path d="M360.33,250.76c.07.34.15.68.23,1a142,142,0,0,1-62.77-23.08l.92-.57A141.15,141.15,0,0,0,360.33,250.76Z" style="fill:#dbdbdb"></path><path d="M357.67,235.55c.05.34.09.68.14,1a127.19,127.19,0,0,1-46.73-16.84l.86-.63A126.17,126.17,0,0,0,357.67,235.55Z" style="fill:#dbdbdb"></path><path d="M304.28,231.64c-1.29-.77-2.58-1.57-3.85-2.39l1.95-1.34C304.4,229.19,305.28,230.83,304.28,231.64Z" style="fill:#dbdbdb"></path><path d="M358,248.26c.13.75.26,1.5.4,2.26-1.44-.19-2.88-.4-4.32-.64C353.93,248.64,355.69,248,358,248.26Z" style="fill:#dbdbdb"></path><path d="M353.09,235.77c1.08.21,2.16.4,3.25.57.08.75.16,1.5.25,2.25C354.7,238.3,353.12,237,353.09,235.77Z" style="fill:#dbdbdb"></path><path d="M310.54,222l1.87-1.44c1,.58,2,1.14,3,1.69C314.43,223.06,312.25,223,310.54,222Z" style="fill:#dbdbdb"></path><path d="M332.73,233.36c.19.07.3.21.26.32s-.09.23-.14.34a7.41,7.41,0,0,1,2.34,1.49c.11.11.17.18.14.27s-.25.16-.46.09a.48.48,0,0,1-.24-.15,6.62,6.62,0,0,0-2-1.32c-.33.8-.65,1.59-1,2.38,2.21,1.1,3,1.91,2.77,2.77s-2,1.11-4,.41l-.27.66c0,.11-.27.14-.48.06s-.36-.24-.32-.35l.29-.66a8.89,8.89,0,0,1-3.24-2.19c-.08-.1-.12-.17-.08-.24s.3-.13.5-.05a.57.57,0,0,1,.26.17,7.34,7.34,0,0,0,2.75,1.94l1-2.41c-2.17-1.12-2.86-2-2.44-2.77s2-1,3.75-.36l.14-.32C332.35,233.33,332.55,233.29,332.73,233.36Zm-1.68,3.1c.32-.77.65-1.54,1-2.31-1.4-.49-2.55-.37-2.85.23S329.21,235.48,331.05,236.46Zm.45.76-1,2.34c1.63.57,2.86.41,3.08-.25S333.41,238.18,331.5,237.22Z" style="fill:#ebebeb"></path><path d="M407.5,398.55A80.2,80.2,0,0,0,359.82,379,91.57,91.57,0,0,1,369,366.88a93.2,93.2,0,0,1,44.29,19.42Q410.44,392.47,407.5,398.55Z" style="fill:#ebebeb"></path><path d="M395.6,382.66c-1.23,2.12-5,2.34-8.64.8s-5.82-4.27-4.46-6.42,5.55-2.82,9.08-1.25S396.81,380.54,395.6,382.66Z" style="fill:#dbdbdb"></path><path d="M378.05,375.39c-.34.49-1.46.65-2.52.39s-1.64-.85-1.29-1.35a2.63,2.63,0,0,1,2.54-.44C377.83,374.26,378.38,374.9,378.05,375.39Z" style="fill:#dbdbdb"></path><path d="M402.93,386.68c-.26.51-1.16.45-2-.1s-1.37-1.39-1.11-1.89,1.19-.47,2.06.08S403.19,386.18,402.93,386.68Z" style="fill:#dbdbdb"></path><path d="M370.49,367.13a91.69,91.69,0,0,0-9,12l-1.69-.13A91.57,91.57,0,0,1,369,366.88Z" style="fill:#dbdbdb"></path><path d="M407.5,398.55l-1.14-1q2.92-6.06,5.77-12.16l1.13.89Q410.44,392.47,407.5,398.55Z" style="fill:#dbdbdb"></path><path d="M407.87,397.78c-.12.26-.25.51-.37.77A80.23,80.23,0,0,0,359.82,379c.16-.27.33-.53.5-.79A81.07,81.07,0,0,1,407.87,397.78Z" style="fill:#dbdbdb"></path><path d="M413.25,386.3c-.11.26-.23.52-.35.78a92.33,92.33,0,0,0-44.58-19.46l.65-.74A93.16,93.16,0,0,1,413.25,386.3Z" style="fill:#dbdbdb"></path><path d="M365.68,378.8c-1.21-.17-2.44-.31-3.68-.42.37-.58.75-1.15,1.13-1.72C365.16,376.88,366.28,377.87,365.68,378.8Z" style="fill:#dbdbdb"></path><path d="M407.54,395.12l-.81,1.69c-.85-.72-1.72-1.41-2.6-2.09C404.57,393.79,406.12,393.94,407.54,395.12Z" style="fill:#dbdbdb"></path><path d="M409.23,384.26q1.29.93,2.55,1.92c-.27.57-.53,1.13-.8,1.69C409.6,386.77,408.79,385.18,409.23,384.26Z" style="fill:#dbdbdb"></path><path d="M368.49,369.49c.45-.55.91-1.09,1.37-1.63,1.13.19,2.25.4,3.37.62C372.49,369.36,370.39,369.78,368.49,369.49Z" style="fill:#dbdbdb"></path><path d="M391.06,376.75c.17.07.27.21.21.29l-.16.26a6.29,6.29,0,0,1,2,1.51c.08.1.12.17.08.23s-.25.1-.43,0a.52.52,0,0,1-.2-.15,5.23,5.23,0,0,0-1.67-1.3l-1.13,1.84c1.87,1.09,2.46,1.87,2.09,2.52s-1.84.65-3.52,0l-.3.52c0,.09-.24.1-.41,0s-.28-.21-.23-.29l.3-.53a8.17,8.17,0,0,1-2.65-1.86c-.07-.07-.1-.13-.07-.19s.27-.11.45,0a.49.49,0,0,1,.21.14,6.85,6.85,0,0,0,2.27,1.66c.37-.63.74-1.26,1.12-1.89-1.84-1-2.46-1.72-2-2.38s1.92-.72,3.52-.06l.15-.25C390.71,376.69,390.9,376.68,391.06,376.75Zm-1.83,2.37c.36-.6.73-1.2,1.11-1.79-1.27-.53-2.37-.49-2.67,0S387.65,378.2,389.23,379.12Zm.33.66q-.56.92-1.08,1.83c1.33.56,2.4.57,2.69.07S391.16,380.72,389.56,379.78Z" style="fill:#ebebeb"></path><path d="M271.73,307.35c-18.92,5.85-37.84-19.65-56.76-13.81a154.22,154.22,0,0,1,10-16.64c15.4,2.61,30.8,18.71,46.2,14.48Z" style="fill:#ebebeb"></path><path d="M252.85,297.22c-.59,2.8-4.54,3.45-8.81,1.19s-6.8-5.91-5.64-8.36,5.1-2.85,8.81-1S253.45,294.44,252.85,297.22Z" style="fill:#dbdbdb"></path><path d="M233.76,287.55c-.31.56-1.44.65-2.52.25s-1.68-1.14-1.34-1.72,1.47-.76,2.52-.34S234.06,287,233.76,287.55Z" style="fill:#dbdbdb"></path><path d="M261.56,299.61c-.06.68-1,1.08-2.07.81s-1.88-1.09-1.78-1.76,1-.94,2.07-.69S261.62,298.92,261.56,299.61Z" style="fill:#dbdbdb"></path><path d="M226.33,277.18a159,159,0,0,0-9.64,15.92c-.57.12-1.14.27-1.72.45a152.28,152.28,0,0,1,10-16.64C225.4,277,225.86,277.08,226.33,277.18Z" style="fill:#dbdbdb"></path><path d="M271.73,307.35a17.4,17.4,0,0,1-1.72.45q-.13-8-.28-16.09c.47-.1.93-.21,1.4-.33Z" style="fill:#dbdbdb"></path><path d="M271.69,306.35c0,.33,0,.67,0,1-18.92,5.85-37.84-19.65-56.76-13.8q.32-.62.63-1.2C234.3,287.24,253,312.09,271.69,306.35Z" style="fill:#dbdbdb"></path><path d="M271.13,291.38c0,.33,0,.67,0,1-15.62,4.33-31.24-12.29-46.87-14.56l.63-.92C240.33,279.51,255.73,295.61,271.13,291.38Z" style="fill:#dbdbdb"></path><path d="M221.06,291.65a19.82,19.82,0,0,0-3.76.32c.45-.83.89-1.64,1.34-2.44C220.66,289.33,221.74,290.45,221.06,291.65Z" style="fill:#dbdbdb"></path><path d="M270,304.55l0,2.24a19.94,19.94,0,0,1-3.75.42C266.27,306,267.93,305,270,304.55Z" style="fill:#dbdbdb"></path><path d="M266.6,293.08a19.87,19.87,0,0,0,3.15-.36c0,.74,0,1.49,0,2.24C268,295.31,266.57,294.32,266.6,293.08Z" style="fill:#dbdbdb"></path><path d="M224.38,280.07l1.34-2c1.05.21,2.09.48,3.14.8C228.17,279.88,226.17,280.32,224.38,280.07Z" style="fill:#dbdbdb"></path><path d="M246.9,290.27c.18.09.3.26.27.36l-.11.33a9.12,9.12,0,0,1,2.31,1.8c.11.12.16.2.14.28s-.23.13-.43,0a.61.61,0,0,1-.23-.18,8.21,8.21,0,0,0-1.94-1.57l-.75,2.25c2.12,1.39,2.91,2.3,2.69,3.12s-1.77.84-3.66-.1l-.21.63c0,.1-.23.1-.43,0s-.34-.28-.3-.38l.21-.64a11,11,0,0,1-3.08-2.51c-.09-.1-.13-.18-.1-.25s.25-.1.45,0a.56.56,0,0,1,.24.19,9.3,9.3,0,0,0,2.65,2.23c.26-.76.52-1.52.79-2.28-2.08-1.39-2.81-2.29-2.49-3.07s1.78-.75,3.48.09l.1-.3C246.54,290.19,246.72,290.18,246.9,290.27Zm-1.35,2.9.75-2.19c-1.36-.68-2.43-.69-2.65-.12S243.78,292,245.55,293.17Zm.47.82c-.25.74-.5,1.48-.74,2.22,1.51.76,2.62.77,2.8.14S247.84,295.19,246,294Z" style="fill:#ebebeb"></path><path d="M399,214.79c-16.8,8-33.6-3.86-50.4,4.1,1.49-5.24,3-10.32,4.46-15.28,13.67-3.89,27.34,3,41-.65C395.74,207.06,397.38,211,399,214.79Z" style="fill:#ebebeb"></path><path d="M380.12,210.84c.29,2.58-2.55,4.42-6.34,4s-6.7-2.75-6.5-5.28,3-4.37,6.34-4S379.83,208.27,380.12,210.84Z" style="fill:#dbdbdb"></path><path d="M363.06,209.05c-.08.58-.93,1-1.89,1.08s-1.64-.38-1.53-1a1.93,1.93,0,0,1,1.89-1.15C362.46,208,363.15,208.47,363.06,209.05Z" style="fill:#dbdbdb"></path><path d="M387.75,210.65c.14.58-.53,1.11-1.49,1.13s-1.83-.45-1.93-1,.56-1.05,1.49-1.07S387.62,210.08,387.75,210.65Z" style="fill:#dbdbdb"></path><path d="M354.32,203.29q-2.08,7.29-4.17,14.93c-.51.2-1,.43-1.53.67,1.49-5.24,3-10.32,4.46-15.28C353.49,203.49,353.9,203.39,354.32,203.29Z" style="fill:#dbdbdb"></path><path d="M399,214.79c-.51.24-1,.46-1.52.67-1.55-3.92-3.1-8-4.65-12.2.41-.09.83-.19,1.24-.3C395.74,207.06,397.38,211,399,214.79Z" style="fill:#dbdbdb"></path><path d="M398.71,214.07c.11.24.21.48.31.72-16.8,8-33.6-3.86-50.4,4.1.1-.33.19-.66.28-1C365.51,210.26,382.11,221.69,398.71,214.07Z" style="fill:#dbdbdb"></path><path d="M394.09,203c.1.26.21.51.31.77-13.87,3.86-27.74-3.28-41.6.82.09-.32.18-.63.28-.94C366.75,199.72,380.42,206.6,394.09,203Z" style="fill:#dbdbdb"></path><path d="M353.75,216.18a27,27,0,0,0-3.34,1.08c.2-.71.39-1.41.58-2.11C352.79,214.49,354,215.07,353.75,216.18Z" style="fill:#dbdbdb"></path><path d="M396.56,213.06c.21.56.43,1.11.64,1.65a26.87,26.87,0,0,1-3.33,1.08C393.56,214.81,394.76,213.71,396.56,213.06Z" style="fill:#dbdbdb"></path><path d="M390.35,204.56a27.28,27.28,0,0,0,2.79-.51l.65,1.74C392.2,206.2,390.66,205.57,390.35,204.56Z" style="fill:#dbdbdb"></path><path d="M353.48,206.25c.19-.68.38-1.36.58-2,.92-.23,1.85-.42,2.78-.56C356.57,204.74,355.06,205.82,353.48,206.25Z" style="fill:#dbdbdb"></path><path d="M373.71,206.69c.15,0,.29.12.29.23v.32a6.42,6.42,0,0,1,2.23.8c.11.07.18.13.18.21s-.13.18-.31.16a.4.4,0,0,1-.23-.08,5.6,5.6,0,0,0-1.88-.73c0,.75,0,1.49.05,2.24,2,.48,2.81,1,2.87,1.81s-1.1,1.32-2.78,1.16c0,.21,0,.42,0,.62s-.15.18-.33.16-.32-.13-.32-.23,0-.42,0-.63a7.85,7.85,0,0,1-3-1.1c-.09-.06-.14-.11-.14-.19s.17-.18.34-.16a.47.47,0,0,1,.24.08,6.43,6.43,0,0,0,2.58,1l0-2.27c-1.93-.48-2.72-1-2.7-1.8s1.13-1.29,2.63-1.15v-.3C373.41,206.75,373.55,206.67,373.71,206.69Zm-.23,3,0-2.17c-1.2-.13-2,.25-2,.82S371.83,209.26,373.48,209.69Zm.58.55c0,.74,0,1.47.05,2.21,1.33.14,2.17-.23,2.14-.84S375.75,210.67,374.06,210.24Z" style="fill:#ebebeb"></path><path d="M342.1,338.93c-15-6.76-30.06,12.22-45.09,5.46q1.74-5.36,3.5-11.14c12.23,2.49,24.47-9.41,36.7-8C338.84,329.57,340.47,334.1,342.1,338.93Z" style="fill:#ebebeb"></path><path d="M325,333.56c.35,2.17-2.12,4.92-5.51,6.32s-6.06.48-6-1.86S316,333,319,331.74,324.6,331.37,325,333.56Z" style="fill:#dbdbdb"></path><path d="M309.68,338.88c-.05.54-.79,1.15-1.65,1.3s-1.49-.2-1.41-.73.82-1.06,1.65-1.22S309.74,338.33,309.68,338.88Z" style="fill:#dbdbdb"></path><path d="M331.77,331.46c.14.51-.44,1-1.3,1.19s-1.65,0-1.76-.54.47-1.09,1.3-1.28S331.63,331,331.77,331.46Z" style="fill:#dbdbdb"></path><path d="M301.62,333.44q-1.62,5.93-3.25,11.49c-.45-.16-.91-.34-1.37-.54,1.17-3.56,2.34-7.28,3.51-11.13Z" style="fill:#dbdbdb"></path><path d="M342.1,338.93c-.45-.2-.91-.38-1.37-.54-1.54-4.64-3.09-9-4.63-13.2l1.11.09C338.84,329.57,340.47,334.1,342.1,338.93Z" style="fill:#dbdbdb"></path><path d="M341.79,338c.11.3.21.6.31.9-15-6.76-30.06,12.22-45.1,5.46l.23-.68C312.08,350.15,326.94,331.69,341.79,338Z" style="fill:#dbdbdb"></path><path d="M337.21,325.28c.1.27.2.54.31.81-12.41-1.69-24.82,10.59-37.23,7.89.07-.24.15-.48.22-.73C312.74,335.74,325,323.84,337.21,325.28Z" style="fill:#dbdbdb"></path><path d="M301.56,344.93a16.92,16.92,0,0,1-3-.7l.45-1.56C300.63,343.15,301.77,344,301.56,344.93Z" style="fill:#dbdbdb"></path><path d="M339.8,335.61c.21.63.43,1.27.64,1.91a16,16,0,0,0-3-.68C337.14,335.87,338.19,335.16,339.8,335.61Z" style="fill:#dbdbdb"></path><path d="M333.89,326a19,19,0,0,1,2.5,0c.21.58.43,1.17.64,1.77C335.61,327.58,334.2,326.89,333.89,326Z" style="fill:#dbdbdb"></path><path d="M301,335.82l.45-1.63a17.38,17.38,0,0,0,2.49.18A2.51,2.51,0,0,1,301,335.82Z" style="fill:#dbdbdb"></path><path d="M319.09,332.71c.14,0,.27,0,.28.06v.28a5,5,0,0,1,2-.31c.1,0,.16,0,.17.1s-.12.22-.28.29a.42.42,0,0,1-.2,0,4.09,4.09,0,0,0-1.71.23c0,.65.08,1.3.13,2,1.76-.49,2.54-.39,2.62.28s-.94,1.67-2.44,2.31l0,.55c0,.09-.12.22-.28.28s-.3,0-.3,0l0-.55a5.69,5.69,0,0,1-2.71.38c-.08,0-.13,0-.13-.1s.14-.23.3-.29a.35.35,0,0,1,.21,0,4.74,4.74,0,0,0,2.34-.29c0-.67-.08-1.33-.11-2-1.74.47-2.46.35-2.47-.36s1-1.66,2.3-2.23V333C318.83,332.9,319,332.77,319.09,332.71Zm-.09,2.77-.11-1.92c-1.07.45-1.77,1.15-1.76,1.66S317.51,335.86,319,335.48Zm.53.22.12,1.94c1.19-.5,1.93-1.22,1.88-1.74S321.05,335.29,319.53,335.7Z" style="fill:#ebebeb"></path><path d="M95.23,313.3c-9.25,13-38.52,4.74-46.74,18.81a75,75,0,0,1-2.22-16.78C58.7,310,79.33,313.28,86,301.81Z" style="fill:#ebebeb"></path><path d="M77,315.51c1,2.19-1.67,4.54-6,5.09s-8-.62-8.3-2.83,2.46-4.35,6.15-4.92S76.05,313.33,77,315.51Z" style="fill:#dbdbdb"></path><path d="M58,318.35c0,.53-.73,1.14-1.71,1.41s-1.79.05-1.83-.52.68-1.23,1.66-1.45S58,317.83,58,318.35Z" style="fill:#dbdbdb"></path><path d="M84.34,312.77c.32.5-.11,1.25-1,1.61s-1.88.19-2.14-.31.24-1.16,1.09-1.53S84,312.26,84.34,312.77Z" style="fill:#dbdbdb"></path><path d="M47.42,314.87a76,76,0,0,0,1.87,16c-.28.39-.55.8-.8,1.22a75,75,0,0,1-2.22-16.78C46.65,315.17,47,315,47.42,314.87Z" style="fill:#dbdbdb"></path><path d="M95.23,313.3a14.21,14.21,0,0,1-.9,1.12l-9-11.6c.22-.32.44-.66.64-1Z" style="fill:#dbdbdb"></path><path d="M94.65,312.58l.57.72c-9.25,13-38.51,4.74-46.73,18.81-.1-.4-.19-.8-.28-1.2C56.88,317.57,85.57,325.48,94.65,312.58Z" style="fill:#dbdbdb"></path><path d="M86,301.81c.19.25.39.49.58.73-6.83,11.57-28,8-40.3,13.72,0-.32,0-.62,0-.93C58.7,310,79.33,313.28,86,301.81Z" style="fill:#dbdbdb"></path><path d="M51.27,327.58a13.81,13.81,0,0,0-2.22,2.17c-.17-.83-.33-1.65-.47-2.45C49.77,326.14,51.08,326.37,51.27,327.58Z" style="fill:#dbdbdb"></path><path d="M92.53,312.09l1.24,1.61a14.65,14.65,0,0,1-2.29,2.09C90.84,314.89,91.44,313.37,92.53,312.09Z" style="fill:#dbdbdb"></path><path d="M84.21,305.51a12.92,12.92,0,0,0,1.72-2l1.25,1.62C86.29,306.37,84.85,306.41,84.21,305.51Z" style="fill:#dbdbdb"></path><path d="M47.5,317.78c0-.68-.06-1.36-.07-2,.86-.35,1.76-.66,2.68-.94C50.12,315.84,48.89,317.11,47.5,317.78Z" style="fill:#dbdbdb"></path><path d="M69.19,313.8c.18,0,.35,0,.38.11s.05.17.08.26a8.82,8.82,0,0,1,2.59.07c.13,0,.22.06.24.12s-.11.2-.3.23a.57.57,0,0,1-.26,0,7.17,7.17,0,0,0-2.21-.1c.18.62.36,1.25.53,1.87,2.26-.11,3.3.11,3.53.76s-.91,1.43-2.79,1.72c0,.17.1.34.14.52s-.12.18-.32.21-.39,0-.41-.11l-.14-.53a10.82,10.82,0,0,1-3.55-.17c-.11,0-.18-.06-.19-.12s.14-.2.34-.22a.55.55,0,0,1,.27,0,8.94,8.94,0,0,0,3.08.2c-.17-.64-.35-1.27-.52-1.9-2.23.08-3.21-.16-3.36-.83s1-1.37,2.66-1.64l-.07-.25C68.89,313.92,69,313.82,69.19,313.8Zm.4,2.59c-.17-.61-.33-1.22-.5-1.83-1.34.21-2.16.73-2,1.21S67.68,316.44,69.59,316.39Zm.75.31c.17.62.35,1.23.52,1.84,1.5-.22,2.34-.76,2.17-1.27S72.29,316.62,70.34,316.7Z" style="fill:#ebebeb"></path><path d="M111.66,263.88c-8.7-14-31.76-6.64-40.46-20.63,3-2.31,6-4.74,9.12-7.29,8.76,8.89,25.55,5.84,34.9,13.86C114.18,254.29,113,259,111.66,263.88Z" style="fill:#ebebeb"></path><path d="M100.43,249.86c-.92,2-4.5,2.89-8.1,2.16s-5.3-3-3.92-4.88,4.94-2.77,8.07-2.13S101.36,247.84,100.43,249.86Z" style="fill:#dbdbdb"></path><path d="M84.79,245.74a2,2,0,0,1-2.1.17c-.8-.35-1.13-1-.76-1.4a2,2,0,0,1,2-.09C84.76,244.75,85.14,245.32,84.79,245.74Z" style="fill:#dbdbdb"></path><path d="M107.26,251.91c-.16.5-.93.6-1.74.27s-1.35-1-1.16-1.44,1-.64,1.79-.33S107.43,251.41,107.26,251.91Z" style="fill:#dbdbdb"></path><path d="M81.13,236.74q-4.65,4-9.11,7.72c-.29-.39-.56-.79-.83-1.21q4.44-3.47,9.13-7.29Q80.71,236.36,81.13,236.74Z" style="fill:#dbdbdb"></path><path d="M111.66,263.88c-.26-.42-.54-.83-.83-1.21,1.31-4.72,2.47-9.22,3.52-13.55.3.22.59.46.87.7C114.18,254.29,113,259,111.66,263.88Z" style="fill:#dbdbdb"></path><path d="M111.91,263c-.08.31-.16.62-.25.93-8.7-14-31.76-6.64-40.47-20.63l.56-.44C80.49,256.44,103.12,249.41,111.91,263Z" style="fill:#dbdbdb"></path><path d="M115.22,249.82c-.07.28-.13.56-.2.85-9.35-8.33-26.5-5.06-35.29-14.23l.59-.48C89.08,244.85,105.87,241.8,115.22,249.82Z" style="fill:#dbdbdb"></path><path d="M74.67,246.24A16.56,16.56,0,0,1,72.59,244l1.24-1C74.9,244.24,75.36,245.58,74.67,246.24Z" style="fill:#dbdbdb"></path><path d="M111.61,259.84c-.18.64-.35,1.29-.53,1.94a16.55,16.55,0,0,0-2.1-2.23C109.26,258.57,110.52,258.57,111.61,259.84Z" style="fill:#dbdbdb"></path><path d="M112.08,248.54a19.27,19.27,0,0,1,2.07,1.4l-.45,1.83C112.61,250.84,111.83,249.48,112.08,248.54Z" style="fill:#dbdbdb"></path><path d="M79.26,238.35l1.29-1.11a16.78,16.78,0,0,0,2,1.54A2.5,2.5,0,0,1,79.26,238.35Z" style="fill:#dbdbdb"></path><path d="M96,245.88c.15,0,.24.12.19.2l-.14.25a4.7,4.7,0,0,1,1.84.86c.09.07.13.11.09.18s-.22.12-.38.08a.33.33,0,0,1-.19-.08,4.18,4.18,0,0,0-1.55-.77l-1,1.7c1.74.58,2.33,1.1,2,1.7s-1.71.86-3.31.56l-.27.47c0,.08-.23.11-.4.08s-.26-.13-.22-.21l.29-.48a5.61,5.61,0,0,1-2.46-1.19q-.11-.07-.06-.15a.44.44,0,0,1,.41-.08.37.37,0,0,1,.2.09,4.75,4.75,0,0,0,2.1,1.07l1-1.73c-1.7-.58-2.23-1.08-1.84-1.67s1.71-.84,3.15-.56l.14-.23C95.72,245.89,95.89,245.85,96,245.88Zm-1.62,2.24c.32-.55.65-1.1,1-1.65-1.14-.22-2.11,0-2.39.4S93,247.61,94.42,248.12Zm.31.49-1,1.67c1.26.25,2.27.07,2.52-.4S96.22,249.11,94.73,248.61Z" style="fill:#ebebeb"></path><path d="M243,195.85c-16.71-17-33.43,3.78-50.14-13.24,3-1.72,6.05-4.67,9.08-8.41,13.6,4.72,27.21-6.56,40.81,7Q242.85,188.52,243,195.85Z" style="fill:#ebebeb"></path><path d="M226.42,181.61c-.58,2.64-4.11,4.92-7.88,5.4s-6-1.59-4.89-4.37a10.26,10.26,0,0,1,7.88-5.7C224.81,176.63,227,178.93,226.42,181.61Z" style="fill:#dbdbdb"></path><path d="M209.55,182.49a2.33,2.33,0,0,1-2.24,1c-.95-.09-1.47-.68-1.16-1.25a2.58,2.58,0,0,1,2.24-.92C209.32,181.38,209.84,181.87,209.55,182.49Z" style="fill:#dbdbdb"></path><path d="M234.12,182.61c-.06.6-.89.8-1.85.55s-1.65-.86-1.56-1.46.93-1,1.85-.7S234.19,182,234.12,182.61Z" style="fill:#dbdbdb"></path><path d="M203.13,174.59a46.1,46.1,0,0,1-8.79,9.46c-.51-.45-1-.93-1.52-1.44,3-1.72,6.05-4.67,9.07-8.41Z" style="fill:#dbdbdb"></path><path d="M243,195.85c-.5-.52-1-1-1.52-1.45l0-14.39c.42.37.83.76,1.24,1.17Q242.85,188.52,243,195.85Z" style="fill:#dbdbdb"></path><path d="M243,194.92c0,.31,0,.62,0,.93-16.71-17-33.43,3.78-50.14-13.24l.57-.34C209.91,198.25,226.43,178.12,243,194.92Z" style="fill:#dbdbdb"></path><path d="M242.71,181.18l0,.92c-13.8-13.75-27.61-2-41.41-7.2l.57-.7C215.5,178.92,229.1,167.64,242.71,181.18Z" style="fill:#dbdbdb"></path><path d="M198.21,186a24.26,24.26,0,0,1-3.32-2.36c.41-.32.82-.66,1.22-1C197.9,183.89,198.84,185.2,198.21,186Z" style="fill:#dbdbdb"></path><path d="M241.45,191.5v2a25.53,25.53,0,0,0-3.32-2.5C238.18,189.93,239.66,189.91,241.45,191.5Z" style="fill:#dbdbdb"></path><path d="M238.69,178.77a25.07,25.07,0,0,1,2.78,2.15v2C239.89,181.52,238.64,179.85,238.69,178.77Z" style="fill:#dbdbdb"></path><path d="M201.35,176.91c.41-.51.82-1,1.23-1.58a21,21,0,0,0,2.77.65A3.43,3.43,0,0,1,201.35,176.91Z" style="fill:#dbdbdb"></path><path d="M221.23,178.16c.16,0,.27.07.23.18s-.06.23-.1.35a3.8,3.8,0,0,1,2,.43c.09,0,.14.1.12.19a.41.41,0,0,1-.38.23.33.33,0,0,1-.21,0,3.13,3.13,0,0,0-1.7-.41c-.23.81-.47,1.61-.71,2.42,1.87.09,2.56.54,2.35,1.38s-1.59,1.63-3.27,1.85c-.06.23-.13.46-.19.68a.5.5,0,0,1-.39.25c-.17,0-.29-.06-.26-.18l.21-.69a4.72,4.72,0,0,1-2.72-.51c-.07,0-.11-.09-.08-.17a.53.53,0,0,1,.4-.25.29.29,0,0,1,.22,0,3.82,3.82,0,0,0,2.32.5c.25-.83.5-1.65.74-2.48-1.83-.08-2.46-.46-2.17-1.34s1.6-1.69,3.11-1.86c0-.11.07-.22.1-.33A.41.41,0,0,1,221.23,178.16ZM220,181.49c.23-.8.47-1.59.71-2.38a2.79,2.79,0,0,0-2.36,1.37C218.13,181.08,218.42,181.39,220,181.49Zm.4.47c-.23.8-.46,1.59-.7,2.39,1.33-.16,2.33-.73,2.5-1.38S222,182,220.38,182Z" style="fill:#ebebeb"></path><path d="M243.22,359c-17.28-7.13-34.56,8.48-51.84,1.34,1.78-3.9,3.57-8,5.35-12.37,14.06,2.37,28.13-7.22,42.19-4.24Q241.08,351.13,243.22,359Z" style="fill:#ebebeb"></path><path d="M224.15,351.27c.16,2.57-2.88,5.3-6.78,6.29s-6.78-.55-6.42-3.23,3.38-5.45,6.78-6.31S224,348.68,224.15,351.27Z" style="fill:#dbdbdb"></path><path d="M206.62,354.77c-.11.62-1,1.22-2,1.31s-1.67-.38-1.52-1,1.05-1.14,2-1.24S206.74,354.15,206.62,354.77Z" style="fill:#dbdbdb"></path><path d="M232,350c.11.6-.61,1.1-1.6,1.18s-1.85-.3-1.92-.9.64-1.17,1.6-1.25S231.92,349.38,232,350Z" style="fill:#dbdbdb"></path><path d="M198,348.12c-1.69,4.44-3.38,8.71-5.06,12.78-.53-.17-1-.37-1.57-.59,1.78-3.9,3.57-8,5.35-12.37C197.16,348,197.58,348.07,198,348.12Z" style="fill:#dbdbdb"></path><path d="M243.22,359c-.52-.21-1.05-.41-1.57-.58q-2-7.65-4-14.93c.43.07.86.15,1.28.24Q241.08,351.13,243.22,359Z" style="fill:#dbdbdb"></path><path d="M243,358l.27,1c-17.28-7.13-34.56,8.48-51.84,1.34l.33-.73C208.79,366.34,225.87,351.17,243,358Z" style="fill:#dbdbdb"></path><path d="M238.92,343.7l.27.94c-14.26-3.19-28.53,6.71-42.8,4.11.12-.27.23-.54.34-.81C210.79,350.31,224.86,340.72,238.92,343.7Z" style="fill:#dbdbdb"></path><path d="M196.7,361a24.85,24.85,0,0,1-3.43-.84c.23-.57.47-1.14.7-1.72C195.81,358.93,197,359.94,196.7,361Z" style="fill:#dbdbdb"></path><path d="M240.84,355.32c.19.7.37,1.4.56,2.11a25.25,25.25,0,0,0-3.43-.85C237.71,355.48,239,354.77,240.84,355.32Z" style="fill:#dbdbdb"></path><path d="M235,344.05a28.21,28.21,0,0,1,2.88.33c.18.68.37,1.36.55,2C236.82,346.1,235.28,345.14,235,344.05Z" style="fill:#dbdbdb"></path><path d="M197,350.79c.23-.61.46-1.22.7-1.83.95.12,1.91.19,2.86.22C200.21,350.24,198.62,351.06,197,350.79Z" style="fill:#dbdbdb"></path><path d="M217.75,349.17c.17,0,.3,0,.3.13s0,.22,0,.33a5,5,0,0,1,2.26,0c.11,0,.18.06.18.14s-.15.24-.33.29a.4.4,0,0,1-.24,0A4.37,4.37,0,0,0,218,350c0,.77-.05,1.53-.07,2.3,2-.23,2.86,0,2.86.83s-1.21,1.76-2.93,2.21c0,.22,0,.43,0,.64s-.16.24-.34.28-.34,0-.33-.11l0-.65a6,6,0,0,1-3-.06c-.09,0-.14-.06-.13-.14s.18-.24.35-.28a.37.37,0,0,1,.24,0,5,5,0,0,0,2.62.1l.09-2.34c-2,.21-2.75-.05-2.68-.88s1.23-1.74,2.78-2.15v-.31A.41.41,0,0,1,217.75,349.17Zm-.4,3.2.09-2.25c-1.24.32-2.09,1-2.13,1.6S215.67,352.53,217.35,352.37Zm.57.36c0,.75,0,1.51-.08,2.26,1.37-.35,2.27-1,2.27-1.65S219.64,352.54,217.92,352.73Z" style="fill:#ebebeb"></path><path d="M85.21,284.89l-13.13.28-6.66.11c-2.22.05-4.46,0-6.69.06h-.45v-.45l-.05-11.19v-.5h.5l13.24.06c4.41,0,8.82.12,13.24.17h.27v.27c0,1.9-.09,3.79-.13,5.65Zm0,0-.14-5.65c0-1.87-.12-3.71-.14-5.54l.28.27c-4.42,0-8.83.16-13.24.17l-13.24.06.5-.5-.06,11.19-.44-.45c2.18,0,4.35,0,6.54.06l6.58.11Z" style="fill:#ebebeb"></path><path d="M70.44,299l-13.13.28-6.66.11c-2.23.05-4.46,0-6.69.06h-.45V299l0-11.19v-.5H44l13.24.06c4.41,0,8.82.12,13.24.17h.27v.27c0,1.9-.09,3.79-.13,5.65Zm0,0-.15-5.65c0-1.87-.11-3.71-.13-5.54l.28.27c-4.42.05-8.83.16-13.24.17L44,288.31l.49-.5L44.4,299l-.44-.45c2.18,0,4.35,0,6.54.06l6.58.11Z" style="fill:#ebebeb"></path><path d="M100,299l-13.13.28-6.66.11c-2.22.05-4.46,0-6.69.06h-.44V299l0-11.19v-.5h.5l13.24.06c4.41,0,8.83.12,13.24.17h.27v.27c0,1.9-.08,3.79-.13,5.65Zm0,0-.14-5.65c0-1.87-.12-3.71-.13-5.54l.27.27c-4.41.05-8.83.16-13.24.17l-13.24.06.5-.5L73.94,299l-.44-.45c2.18,0,4.36,0,6.54.06l6.58.11Z" style="fill:#ebebeb"></path><path d="M441.27,299l-13.12.28-6.66.11c-2.23.05-4.47,0-6.7.06h-.44V299l-.06-11.19v-.5h.5l13.24.06c4.42,0,8.83.12,13.24.17h.28v.27c0,1.9-.09,3.79-.13,5.65Zm0,0-.14-5.65c0-1.87-.11-3.71-.13-5.54l.27.27c-4.41.05-8.82.16-13.24.17l-13.24.06.5-.5L415.24,299l-.45-.45c2.18,0,4.36,0,6.55.06l6.58.11Z" style="fill:#ebebeb"></path><path d="M441.27,47.77,428.15,48l-6.66.12c-2.23,0-4.47,0-6.7.05h-.44v-.44l-.06-11.19v-.51h.5l13.24.06c4.42,0,8.83.11,13.24.16h.28v.27c0,1.89-.09,3.78-.13,5.65Zm0,0-.14-5.66c0-1.86-.11-3.7-.13-5.53l.27.27c-4.41,0-8.82.16-13.24.16l-13.24.06.5-.49-.05,11.19-.45-.45c2.18,0,4.36,0,6.55,0l6.58.12Z" style="fill:#ebebeb"></path><path d="M456,61.88l-13.12.27-6.66.12c-2.23,0-4.46,0-6.7,0h-.44v-.44l-.06-11.19v-.51h.5l13.24.06c4.42,0,8.83.11,13.24.16h.28v.27c0,1.89-.09,3.78-.13,5.65Zm0,0-.14-5.66c0-1.86-.11-3.7-.13-5.53L456,51c-4.41,0-8.82.16-13.24.16l-13.24.06.5-.49L430,61.88l-.45-.45c2.19,0,4.36,0,6.55,0l6.58.12Z" style="fill:#ebebeb"></path><path d="M70.44,47.78l-13.13.28-6.66.11c-2.23,0-4.46,0-6.69,0h-.45v-.45l0-11.19v-.5H44l13.24.06c4.41,0,8.82.11,13.24.16h.27v.27c0,1.9-.09,3.78-.13,5.65Zm0,0-.15-5.66c0-1.86-.11-3.7-.13-5.53l.28.27c-4.42,0-8.83.16-13.24.16L44,37.09l.49-.5L44.4,47.78,44,47.33c2.18,0,4.35,0,6.54.06l6.58.11Z" style="fill:#ebebeb"></path><path d="M213.79,122.83l13.12-.28,6.66-.11c2.23,0,4.47,0,6.7,0h.44v.45l.06,11.19v.5h-.5L227,134.46c-4.42,0-8.83-.11-13.24-.16h-.28V134c0-1.9.09-3.78.13-5.65Zm0,0,.14,5.66c0,1.86.11,3.7.13,5.53l-.27-.27c4.41-.05,8.82-.16,13.24-.16l13.24-.07-.5.5,0-11.19.45.45c-2.18,0-4.36,0-6.55-.06l-6.58-.11Z" style="fill:#ebebeb"></path><path d="M228.56,108.72l13.12-.28,6.66-.11c2.23,0,4.47,0,6.7,0h.44v.45l.06,11.19v.5H255l-13.24-.06c-4.41,0-8.83-.11-13.24-.16h-.28v-.27c0-1.9.08-3.78.13-5.65Zm0,0,.14,5.66c.05,1.86.11,3.7.13,5.53l-.27-.27c4.41,0,8.83-.16,13.24-.16l13.24-.07-.5.5.05-11.19.45.45c-2.18,0-4.36,0-6.55-.06l-6.58-.11Z" style="fill:#ebebeb"></path><rect x="84.86" width="1" height="119.23" style="fill:#c7c7c7"></rect><polygon points="126.76 159.13 123.43 166.45 47.28 166.45 43.96 159.13 76.38 136.69 94.34 136.69 126.76 159.13" style="fill:#ebebeb"></polygon><polygon points="96.59 115.07 94.34 136.69 76.38 136.69 74.13 115.07 96.59 115.07" style="fill:#dbdbdb"></polygon><polygon points="126.75 159.14 123.42 166.46 47.27 166.46 43.95 159.14 126.75 159.14" style="fill:#dbdbdb"></polygon><rect x="173.75" width="1" height="95.61" style="fill:#c7c7c7"></rect><polygon points="215.65 135.52 212.32 142.84 136.17 142.84 132.85 135.52 165.27 113.08 183.23 113.08 215.65 135.52" style="fill:#ebebeb"></polygon><polygon points="185.48 91.46 183.23 113.08 165.27 113.08 163.02 91.46 185.48 91.46" style="fill:#dbdbdb"></polygon><polygon points="215.65 135.52 212.32 142.84 136.17 142.84 132.85 135.52 215.65 135.52" style="fill:#dbdbdb"></polygon></g><g id="freepik--Shadow--inject-232"><ellipse cx="336.72" cy="441.62" rx="114.49" ry="15.96" style="fill:#ebebeb"></ellipse></g><g id="freepik--Character--inject-232"><path d="M129.88,305.49s20.73,81.43,28.93,113.62h83.47C232.9,386.09,208.42,295,208.42,295Z" style="fill:#f7a9a0"></path><path d="M92.77,386.92s-1.86,18.7-3.15,32.19h79.63c.49-11.62,1.13-26.4,1.16-26.41l.09-.05L174,390.9l12.56-6.24.52-.26,6.38-3.17c0-.05.13-.59.31-1.56.45-2.33,1.35-7.11,2.48-13.16,1.4-7.49,3.15-16.93,4.84-26.12,3.18-17.21,7.34-45.36,7.34-45.36H101S81.22,351.7,92.77,386.92Z" style="fill:#f7a9a0"></path><path d="M242.28,419.11,208.42,295H101s-23.53,53-10.65,90.87l-6.09,33.21Z" style="fill:#263238"></path><path d="M162.81,375.08A176.18,176.18,0,0,1,183,358.45c3.58-2.45,7.24-4.72,11-6.93,1.86-1.1,3.67-2.25,5.48-3.42a27.56,27.56,0,0,0,5.31-4.18.16.16,0,0,1,.23.21,46.93,46.93,0,0,1-4.29,4.74,46.19,46.19,0,0,1-4.88,3.83c-3.6,2.53-7.32,4.88-10.94,7.37-7.32,5-14.63,10-21.56,15.56C163,375.88,162.51,375.36,162.81,375.08Z" style="fill:#37474f"></path><path d="M148.47,395a226.1,226.1,0,0,1,19.09-16.7c3.35-2.59,6.82-5,10.38-7.26,1.69-1.1,3.41-2.17,5.14-3.21,1.9-1.15,4-2.05,5.85-3.23.19-.12.42.16.22.29-1.74,1.17-3.3,2.63-5,3.89l-5,3.79c-3.37,2.55-6.71,5.12-10.11,7.63-6.79,5-13.5,10.09-20.12,15.35C148.53,395.83,148.15,395.3,148.47,395Z" style="fill:#37474f"></path><path d="M173.48,104.46c26,20.49,35.32,59.57,13,97.23-20.34,34.24-65.58,48.22-89.35,35.86-25.21-13.11-29.37-43.45-15-59.37,13.86-15.38,33.65-17.86,40.88-32.64,3.46-7.07,2.55-20.36,7.21-31C135.37,102.61,156.78,91.3,173.48,104.46Z" style="fill:#263238"></path><path d="M123.53,243.73c13.5-.71,26.68-5.44,38.15-12.68a88.9,88.9,0,0,0,28-29.19c7-11.63,11.35-25.06,11.4-38.7a75.56,75.56,0,0,0-10.61-38.73,79.17,79.17,0,0,1,9.37,38.71,74,74,0,0,1-3.28,19.7A80.84,80.84,0,0,1,188.25,201a96.65,96.65,0,0,1-12,16,86.81,86.81,0,0,1-33.14,22A77.23,77.23,0,0,1,123.53,243.73Z" style="fill:#263238"></path><path d="M77.43,181.57a39.5,39.5,0,0,1,8-9.55,53,53,0,0,1,10.15-7.11q5.53-2.94,10.91-6.25a54.38,54.38,0,0,0,10-7.75,35.22,35.22,0,0,0,4.14-4.92,24.69,24.69,0,0,0,2.72-5.85,106,106,0,0,0,2.72-12.31A49.55,49.55,0,0,1,129.72,116,34.43,34.43,0,0,1,137,105.93a32.61,32.61,0,0,0-7.93,9.71,48.7,48.7,0,0,0-4.16,11.93c-1,4.08-1.62,8.22-2.93,12.11a23.26,23.26,0,0,1-2.61,5.46,33.21,33.21,0,0,1-4,4.61c-5.78,5.88-13.27,9.79-20.42,14.07a52.78,52.78,0,0,0-10.08,7.62A37.12,37.12,0,0,0,77.43,181.57Z" style="fill:#263238"></path><path d="M164.54,198.56c15.85,36.1,37.87,77.51,50.68,81.69,13.68,4.48,65.47-4.81,83.35-10.23,5.85-1.77-13.92-42.44-20-44.84s-44.54,11-48.47,10.19c-2.09-.43-29.89-33.49-49.19-47.89C162.91,174.06,159.5,187.07,164.54,198.56Z" style="fill:#f7a9a0"></path><path d="M263.8,230.56s7.6-14.39,12.34-20,30.05-19.91,33.45-14.62c4.4,6.83-8.59,18-15.66,22.61,0,0,10.18,15.79,2.6,25.81S263.8,230.56,263.8,230.56Z" style="fill:#f7a9a0"></path><path d="M294.15,271.22c6.09-1.39,33.42-10.24,40.47-14.4s26.49-17.61,23.85-23.34-8.64-2.24-8.64-2.24,7.3-7,4.12-12.5-12.34.2-12.34.2,7-7.71,3.41-13-11.82,2-11.82,2,6.71-6.75,1.94-9.86c-5.73-3.75-16.7,10.1-24.83,14.11-1.85.91-38.75,15.8-38.75,15.8Z" style="fill:#f7a9a0"></path><path d="M333.92,207.35c-8.09,10.17-13.38,13.22-25.46,17.43-.23.09-.17.46.09.39,12.2-3,19.4-5.91,25.89-17.45C334.75,207.15,334.31,206.87,333.92,207.35Z" style="fill:#263238"></path><path d="M342.23,218.12c-9.32,9.83-15,13.19-27.36,18.53-.17.08-.06.38.12.32,12.53-4.23,19.64-7.26,27.67-18.3C343,218.17,342.66,217.67,342.23,218.12Z" style="fill:#263238"></path><path d="M349.19,231.49c-9.71,8.86-15.82,12.81-28.45,16.47a.24.24,0,0,0,.11.47c13.24-2.47,20.9-7.35,28.58-16.62C350,231.18,349.8,230.93,349.19,231.49Z" style="fill:#263238"></path><path d="M310.18,198.23c-.48,9.12-10.16,14.6-16.68,19.61a.74.74,0,0,0,0,1.23c3.82,6.91,7.21,17.76,3.54,25.24a.19.19,0,1,0,.32.19c5-7.48,2.57-18.42-2.1-25.71,6.77-5,16.23-10.95,15-20.56A0,0,0,0,0,310.18,198.23Z" style="fill:#263238"></path><path d="M101,295H208.42l-6.75-29.75s10.39-12.93,7-26C204,221,177.9,189,175.59,187.06c-9.29-7.94-23.48-7.71-30.73-1.63C111.84,213.12,101,295,101,295Z" style="fill:#BA68C8"></path><path d="M157.28,181a23,23,0,0,1,3.1,0,2.63,2.63,0,0,1,1.12,2.17,2.7,2.7,0,1,1-5.39,0A2.67,2.67,0,0,1,157.28,181Zm20.18,33.09a2.7,2.7,0,1,0,2.69-2.69A2.69,2.69,0,0,0,177.46,214.1Zm-21.35,0a2.7,2.7,0,1,0,2.7-2.69A2.7,2.7,0,0,0,156.11,214.1Zm-21.35,0a2.7,2.7,0,1,0,2.7-2.69A2.7,2.7,0,0,0,134.76,214.1Zm31.82-14.93a2.7,2.7,0,1,0,2.69-2.69A2.69,2.69,0,0,0,166.58,199.17Zm-21.37,0a2.69,2.69,0,1,0,2.69-2.69A2.69,2.69,0,0,0,145.21,199.17ZM198.8,245a2.7,2.7,0,1,0,2.7-2.7A2.69,2.69,0,0,0,198.8,245Zm-21.34,0a2.7,2.7,0,1,0,2.69-2.7A2.68,2.68,0,0,0,177.46,245Zm-21.35,0a2.7,2.7,0,1,0,2.7-2.7A2.69,2.69,0,0,0,156.11,245Zm-21.35,0a2.7,2.7,0,1,0,2.7-2.7A2.69,2.69,0,0,0,134.76,245Zm-21.34,0a2.7,2.7,0,1,0,2.69-2.7A2.68,2.68,0,0,0,113.42,245ZM188,230.06a2.7,2.7,0,1,0,2.7-2.7A2.69,2.69,0,0,0,188,230.06Zm-21.37,0a2.7,2.7,0,1,0,2.69-2.7A2.68,2.68,0,0,0,166.58,230.06Zm-21.37,0a2.69,2.69,0,1,0,2.69-2.7A2.68,2.68,0,0,0,145.21,230.06Zm-21.38,0a2.7,2.7,0,1,0,2.7-2.7A2.69,2.69,0,0,0,123.83,230.06Zm74.75,45.81a2.69,2.69,0,1,0,2.69-2.69A2.69,2.69,0,0,0,198.58,275.87Zm-21.12,0a2.7,2.7,0,1,0,2.69-2.69A2.69,2.69,0,0,0,177.46,275.87Zm-21.35,0a2.7,2.7,0,1,0,2.7-2.69A2.7,2.7,0,0,0,156.11,275.87Zm-21.35,0a2.7,2.7,0,1,0,2.7-2.69A2.7,2.7,0,0,0,134.76,275.87Zm-21.34,0a2.7,2.7,0,1,0,2.69-2.69A2.69,2.69,0,0,0,113.42,275.87ZM188,260.94a2.7,2.7,0,1,0,2.7-2.69A2.7,2.7,0,0,0,188,260.94Zm-21.37,0a2.7,2.7,0,1,0,2.69-2.69A2.69,2.69,0,0,0,166.58,260.94Zm-21.37,0a2.69,2.69,0,1,0,2.69-2.69A2.69,2.69,0,0,0,145.21,260.94Zm-21.38,0a2.7,2.7,0,1,0,2.7-2.69A2.7,2.7,0,0,0,123.83,260.94ZM188,291.83a2.7,2.7,0,1,0,2.7-2.7A2.7,2.7,0,0,0,188,291.83Zm-21.37,0a2.7,2.7,0,1,0,2.69-2.7A2.69,2.69,0,0,0,166.58,291.83Zm-21.37,0a2.69,2.69,0,1,0,2.69-2.7A2.69,2.69,0,0,0,145.21,291.83Zm-21.38,0a2.7,2.7,0,1,0,2.7-2.7A2.7,2.7,0,0,0,123.83,291.83Zm-21.37,0a2.7,2.7,0,1,0,2.69-2.7A2.7,2.7,0,0,0,102.46,291.83Z" style="fill:#fff"></path><path d="M164.46,258.58a98.69,98.69,0,0,1,14.69-.25c2.43.17,4.84.46,7.25.79,1.2.17,2.4.3,3.61.42a15.59,15.59,0,0,0,3.8,0,.09.09,0,0,1,0,.18,26.51,26.51,0,0,1-3.55.57,25.41,25.41,0,0,1-3.49,0c-2.47-.15-4.93-.42-7.39-.6-5-.35-9.94-.71-14.93-.71C164.25,259,164.23,258.59,164.46,258.58Z" style="fill:#263238"></path><path d="M153.37,265a105.86,105.86,0,0,1,11.81-2.74c2-.34,4-.56,6-.73,1-.08,1.92-.14,2.89-.19s2.13,0,3.19,0c.11,0,.14.16,0,.17-1,.1-2,.36-3,.52l-3,.46c-2,.31-4,.64-6,.94-4,.58-8,1.21-11.94,1.93C153.21,265.35,153.17,265,153.37,265Z" style="fill:#263238"></path><path d="M150,185.61c.72,2.07,12.29,15,23.79,12,6.68-1.71-.52-14.3-.52-14.3l2.29-19.56L150,151S149.73,184.74,150,185.61Z" style="fill:#f7a9a0"></path><path d="M150,163.62a37.59,37.59,0,0,0,23.45,18.63l2.18-18.47L150,151S150,156.72,150,163.62Z" style="fill:#263238"></path><path d="M196.66,130.82c8.72,31.06-8.9,39.79-15.6,41.66-6.09,1.7-27,6.71-38.89-23.28s-.19-43.87,13.51-48.49S188,99.75,196.66,130.82Z" style="fill:#f7a9a0"></path><path d="M186.58,125.07a18.6,18.6,0,0,1-2.24,0,3.63,3.63,0,0,1-2.29-.42,1.13,1.13,0,0,1-.29-1.37,2.85,2.85,0,0,1,2.61-1.26,4.18,4.18,0,0,1,2.89.9A1.23,1.23,0,0,1,186.58,125.07Z" style="fill:#263238"></path><path d="M165,133.42a21.94,21.94,0,0,0,2-.92,3.61,3.61,0,0,0,1.91-1.33,1.17,1.17,0,0,0-.3-1.38,2.86,2.86,0,0,0-2.9,0,4.21,4.21,0,0,0-2.26,2A1.23,1.23,0,0,0,165,133.42Z" style="fill:#263238"></path><path d="M171,140.24c0-.07-.15.15-.12.23.59,2.13.9,4.67-.87,5.85-.06,0,0,.15,0,.12C172.3,145.53,171.84,142.17,171,140.24Z" style="fill:#263238"></path><path d="M168.49,138.47c-3.52.57-2.11,7.56,1.14,7S171.43,138,168.49,138.47Z" style="fill:#263238"></path><path d="M167.19,139.11c-.53.52-1,1.34-1.71,1.56s-1.62-.35-2.32-.94c-.07-.06-.12,0-.11.1.25,1.35,1,2.62,2.52,2.53s2.05-1.46,2.11-2.87C167.69,139.23,167.4,138.9,167.19,139.11Z" style="fill:#263238"></path><path d="M183.37,137.22c0-.09.19.07.2.16.35,2.18,1.12,4.62,3.22,5,.07,0,.08.12,0,.12C184.34,142.59,183.35,139.34,183.37,137.22Z" style="fill:#263238"></path><path d="M184.87,134.58c3.44-.94,5.06,6,1.87,6.87S182,135.37,184.87,134.58Z" style="fill:#263238"></path><path d="M186.42,134.7c.64.24,1.34.78,2,.67s1.16-1,1.48-1.84c0-.09.1,0,.12.05.35,1.32.23,2.8-1,3.35s-2.23-.43-2.86-1.68C186.07,135,186.17,134.6,186.42,134.7Z" style="fill:#263238"></path><path d="M175.16,157.45c.6.43,1.23,1.06,2,1a5.7,5.7,0,0,0,2.26-.91.08.08,0,0,1,.11.1,3,3,0,0,1-2.58,1.61,2.35,2.35,0,0,1-2-1.67C174.91,157.46,175.07,157.39,175.16,157.45Z" style="fill:#263238"></path><path d="M182.52,147.72s1.14,3.13,1.46,4.65c0,.15-.32.29-.83.43,0,0,0,0-.06,0a7.39,7.39,0,0,1-7.6-1.21c-.14-.12,0-.32.18-.26a11.11,11.11,0,0,0,7,.49c0-.45-2.12-5.3-1.89-5.37a13.4,13.4,0,0,1,3.62.05c-2.17-6.59-5.38-12.78-7.44-19.37a.22.22,0,0,1,.38-.19c3.82,6.25,6.48,13.78,8.9,20.53C186.56,148.32,183.19,147.85,182.52,147.72Z" style="fill:#263238"></path><path d="M181.59,152.88a7.58,7.58,0,0,1-2.67,2.76,3.41,3.41,0,0,1-2,.42c-1.54-.18-1.77-1.54-1.66-2.74a7.8,7.8,0,0,1,.41-1.87A9.82,9.82,0,0,0,181.59,152.88Z" style="fill:#263238"></path><path d="M178.92,155.64a3.41,3.41,0,0,1-2,.42c-1.54-.18-1.77-1.54-1.66-2.74C176.84,153.26,178.56,154.11,178.92,155.64Z" style="fill:#ff98b9"></path><path d="M143.56,148.86c5.26-.43,4.7-11.52,4.7-11.52s10.57-1.67,11.62-17.42a23.66,23.66,0,0,1-2.66,13.31s18.31-5,23.65-21.81c0,0-1.85,8.44-4.33,11.74,0,0,7.46-3.44,10.25-10.4,0,0,4.71,8.48,7.62,10.56,0,0-6-32.47-35.64-24.16,0,0-18.71,4.3-23.1,20.35S143.56,148.86,143.56,148.86Z" style="fill:#263238"></path><path d="M131.94,154.31l-1.38-.33c.16-.64,1.6-6.32,4.56-7.58,2.76-1.16,21.66-4,22.47-4.08l.2,1.41c-5.42.79-20,3.08-22.11,4C133.72,148.54,132.32,152.76,131.94,154.31Z" style="fill:#a6a6a6"></path><path d="M177.23,140.4l-1.15-.84c1.24-1.7,4.43-4.35,7.61-2.27l-.78,1.18C180.06,136.61,177.34,140.24,177.23,140.4Z" style="fill:#a6a6a6"></path><path d="M171.25,152.88a11.37,11.37,0,0,1-2.55.65,10.62,10.62,0,1,1,8.57-14.4,10.2,10.2,0,0,1,.72,3.3A10.65,10.65,0,0,1,171.25,152.88Z" style="fill:#263238"></path><g style="opacity:0.1"><path d="M169.69,132.62l-12.19,14.2a10.48,10.48,0,0,1-.55-5.67l7-8.21A10.53,10.53,0,0,1,169.69,132.62Z" style="fill:#fff"></path><path d="M176,136.78l-13.46,15.64a10.17,10.17,0,0,1-1.73-1.11l13.81-16.1A10.35,10.35,0,0,1,176,136.78Z" style="fill:#fff"></path><path d="M177.45,139.62,165.6,153.45l-.45-.08,12.14-14.18C177.35,139.33,177.4,139.47,177.45,139.62Z" style="fill:#fff"></path></g><path d="M193,147.46a5.58,5.58,0,0,1-.69.13c-4,.5-8.19-3.16-9.51-8.55a12.53,12.53,0,0,1,.41-7.73,6.6,6.6,0,0,1,11-2.7,12.7,12.7,0,0,1,3.93,6.66C199.57,141,197.25,146.44,193,147.46Z" style="fill:#263238"></path><g style="opacity:0.1"><path d="M198.13,135.15l-9.92,11.55a10.11,10.11,0,0,1-3.14-2.81l11.16-13A13.33,13.33,0,0,1,198.13,135.15Z" style="fill:#fff"></path><path d="M192.12,127.27l-9.46,11a4.71,4.71,0,0,1-.09-.52l9.15-10.67A2,2,0,0,1,192.12,127.27Z" style="fill:#fff"></path></g><path d="M147.51,148s-8.79-8.58-12.81-5.27,3.89,16.68,9.53,17.64a5.46,5.46,0,0,0,6.64-4.24Z" style="fill:#f7a9a0"></path><path d="M137.06,146.5c-.09,0-.08.13,0,.14,4,.8,6.57,3.86,8.61,7.15-1.36-1.16-3-1.62-4.58,0-.09.09,0,.22.13.18a3.36,3.36,0,0,1,3.85.47,15.74,15.74,0,0,1,2.29,2.6c.24.3.8,0,.61-.35a.22.22,0,0,1-.05-.08C147.12,151.91,142.21,146,137.06,146.5Z" style="fill:#263238"></path><polygon points="338.9 242.51 270.83 242.42 278.35 224.18 333.75 224.21 338.9 242.51" style="fill:#BA68C8"></polygon><g style="opacity:0.1"><path d="M314.1,233.56c.11,3.42-4,6.2-9.07,6.19s-8.82-2.78-8.27-6.2,4.62-6.2,9.07-6.19S314,230.14,314.1,233.56Z"></path><path d="M291.1,233.14c-.18.79-1.37,1.42-2.67,1.42s-2.17-.64-1.95-1.42,1.41-1.43,2.67-1.42S291.28,232.35,291.1,233.14Z"></path><path d="M324.45,233.17c.11.79-.84,1.42-2.14,1.42s-2.41-.64-2.49-1.42.88-1.43,2.14-1.43S324.33,232.38,324.45,233.17Z"></path></g><g style="opacity:0.1"><polygon points="280.03 224.18 272.89 242.43 270.83 242.42 278.35 224.18 280.03 224.18"></polygon><polygon points="338.9 242.51 336.83 242.51 332.07 224.21 333.75 224.21 338.9 242.51"></polygon><polygon points="338.57 241.36 338.89 242.51 270.83 242.42 271.3 241.28 338.57 241.36"></polygon><polygon points="333.75 224.21 334.07 225.36 277.88 225.33 278.35 224.18 333.75 224.21"></polygon><path d="M277.84,241.28h-4.5l1-2.54C276.76,238.74,278.33,239.88,277.84,241.28Z"></path><path d="M335.87,238.81l.66,2.55H332C331.73,239.94,333.45,238.81,335.87,238.81Z"></path><path d="M328.6,225.36h3.77l.66,2.54C330.88,227.9,328.9,226.76,328.6,225.36Z"></path><path d="M278.59,227.87l1-2.54h3.76C282.86,226.74,280.73,227.87,278.59,227.87Z"></path></g><path d="M305.83,228.88c.21,0,.39.11.38.25l0,.43a7.16,7.16,0,0,1,2.95.75c.15.08.23.14.23.25s-.21.26-.45.26a.59.59,0,0,1-.3-.07,6.29,6.29,0,0,0-2.49-.7l-.18,3c2.63.35,3.73,1,3.71,2s-1.64,1.94-3.91,2l-.05.83c0,.14-.21.26-.45.26s-.43-.12-.42-.26l.05-.84a8.81,8.81,0,0,1-3.95-1c-.12-.06-.18-.12-.17-.22s.24-.27.47-.27a.63.63,0,0,1,.32.08,7.2,7.2,0,0,0,3.4,1l.21-3c-2.58-.36-3.59-.94-3.47-2s1.67-1.9,3.71-1.93l0-.41C305.42,229,305.61,228.88,305.83,228.88Zm-.64,4.06.2-2.92c-1.63,0-2.76.64-2.84,1.41S303,232.6,305.19,232.94Zm.72.65-.17,2.95c1.8,0,3-.64,3-1.45S308.17,233.9,305.91,233.59Z" style="fill:#BA68C8"></path><polygon points="338.89 247.63 270.83 247.63 270.83 242.43 338.9 242.51 338.89 247.63" style="fill:#BA68C8"></polygon><polygon points="338.89 247.63 270.83 247.63 270.83 242.43 338.9 242.51 338.89 247.63" style="opacity:0.2"></polygon><polygon points="341.28 240.73 273.21 240.65 280.73 222.4 336.13 222.43 341.28 240.73" style="fill:#BA68C8"></polygon><g style="opacity:0.1"><path d="M316.48,231.78c.11,3.43-4,6.2-9.07,6.19s-8.82-2.78-8.27-6.2,4.62-6.19,9.07-6.19S316.37,228.36,316.48,231.78Z"></path><path d="M293.48,231.36c-.18.79-1.37,1.42-2.67,1.42s-2.17-.64-1.95-1.42,1.41-1.42,2.67-1.42S293.66,230.58,293.48,231.36Z"></path><path d="M326.83,231.39c.11.79-.84,1.43-2.14,1.43s-2.41-.64-2.49-1.43.88-1.42,2.14-1.42S326.71,230.61,326.83,231.39Z"></path></g><g style="opacity:0.1"><polygon points="282.41 222.41 275.27 240.65 273.21 240.65 280.73 222.41 282.41 222.41"></polygon><polygon points="341.28 240.73 339.21 240.73 334.45 222.43 336.13 222.43 341.28 240.73"></polygon><polygon points="340.95 239.58 341.27 240.73 273.21 240.65 273.68 239.5 340.95 239.58"></polygon><polygon points="336.13 222.43 336.45 223.59 280.26 223.55 280.73 222.4 336.13 222.43"></polygon><path d="M280.22,239.51h-4.5l1-2.54C279.14,237,280.71,238.1,280.22,239.51Z"></path><path d="M338.25,237l.66,2.55h-4.5C334.11,238.17,335.83,237,338.25,237Z"></path><path d="M331,223.58h3.77l.66,2.55C333.26,226.13,331.28,225,331,223.58Z"></path><path d="M281,226.09l1-2.54h3.76C285.24,225,283.11,226.09,281,226.09Z"></path></g><path d="M308.21,227.1c.21,0,.39.12.38.26l0,.42a7.49,7.49,0,0,1,2.95.75c.15.08.23.14.23.25s-.21.27-.45.27a.61.61,0,0,1-.3-.08,6.29,6.29,0,0,0-2.49-.7l-.18,3c2.63.34,3.73.95,3.71,2s-1.64,1.93-3.91,2l-.05.83c0,.14-.21.26-.45.26s-.43-.12-.42-.26l.05-.84a8.86,8.86,0,0,1-3.95-1c-.12-.07-.19-.13-.17-.23s.24-.26.47-.26a.61.61,0,0,1,.31.07,7.4,7.4,0,0,0,3.41,1l.21-3.05c-2.58-.35-3.59-.94-3.47-2s1.67-1.9,3.71-1.93l0-.41C307.8,227.22,308,227.1,308.21,227.1Zm-.64,4.06.2-2.92c-1.63,0-2.76.64-2.84,1.41S305.37,230.83,307.57,231.16Zm.72.65-.18,2.95c1.81,0,3-.64,3-1.45S310.55,232.12,308.29,231.81Z" style="fill:#BA68C8"></path><path d="M351.9,232.58a165.51,165.51,0,0,1-77.61,7q5.4-8.44,10.1-17.17a147.25,147.25,0,0,0,56.37-5.52Q345.92,224.94,351.9,232.58Z" style="fill:#BA68C8"></path><g style="opacity:0.1"><path d="M322.87,230.59c.75,3.34-3.25,6.84-9.08,7.39s-10.21-2.16-9.75-5.59,4.59-6.36,9.2-6.82S322.12,227.24,322.87,230.59Z"></path><path d="M297.8,232.08c-.19.79-1.5,1.42-2.95,1.38s-2.41-.71-2.15-1.49,1.57-1.37,2.94-1.34S298,231.29,297.8,232.08Z"></path><path d="M333.77,228.07c.31.73-.54,1.59-1.93,1.89s-2.71-.09-2.95-.84.63-1.58,1.94-1.86S333.45,227.34,333.77,228.07Z"></path></g><g style="opacity:0.1"><path d="M286.15,222.61q-4.39,8.79-9.44,17.35l-2.42-.34q5.4-8.44,10.1-17.17Z"></path><path d="M351.9,232.58l-2.23.74q-5.66-7.78-10.54-15.91c.54-.15,1.09-.31,1.63-.48Q345.92,224.94,351.9,232.58Z"></path><path d="M351.15,231.62l.74,1a165.47,165.47,0,0,1-77.6,7l.68-1.06A164.51,164.51,0,0,0,351.15,231.62Z"></path><path d="M340.76,216.93c.21.34.43.67.65,1a148.12,148.12,0,0,1-57.61,5.6l.59-1.09A147.27,147.27,0,0,0,340.76,216.93Z"></path><path d="M282.59,239.47c-1.75-.17-3.5-.36-5.25-.59.47-.79.93-1.59,1.38-2.39C281.49,236.83,283.23,238.12,282.59,239.47Z"></path><path d="M347.42,230.16c.51.73,1,1.46,1.54,2.18q-2.41.78-4.86,1.49C343.35,232.58,344.86,231,347.42,230.16Z"></path><path d="M336,219.46c1.24-.33,2.48-.67,3.71-1,.45.75.92,1.5,1.38,2.25C339,221.31,336.69,220.74,336,219.46Z"></path><path d="M284.35,226.15c.42-.81.83-1.62,1.24-2.44,1.32.12,2.65.21,4,.29C289,225.38,286.65,226.37,284.35,226.15Z"></path></g><path d="M313.4,227.08c.23,0,.43.07.43.21l0,.43a8.76,8.76,0,0,1,3.21.4c.17,0,.26.11.28.21s-.19.29-.44.32a.55.55,0,0,1-.33,0,7.54,7.54,0,0,0-2.73-.4l.15,3c2.88,0,4.16.49,4.3,1.53s-1.53,2.15-4,2.44c0,.28,0,.56.05.84,0,.13-.21.27-.48.3s-.5-.07-.5-.21,0-.57,0-.85a10.07,10.07,0,0,1-4.49-.69c-.14,0-.22-.11-.21-.21s.24-.28.5-.3a.71.71,0,0,1,.35.05,8.68,8.68,0,0,0,3.88.67c-.05-1-.09-2-.13-3.05-2.84-.1-4-.63-3.95-1.7s1.62-2,3.77-2.25v-.4C313,227.24,313.18,227.1,313.4,227.08Zm-.23,4.1c0-1-.07-2-.11-2.92-1.72.18-2.87.89-2.89,1.66S310.75,231.07,313.17,231.18Zm.86.57c.06,1,.11,2,.16,2.95,2-.21,3.22-1,3.12-1.8S316.52,231.81,314,231.75Z" style="fill:#BA68C8"></path><path d="M365.85,209.22c-19.41,16.92-46.82,28.59-78.48,29.35q1.94-9.7,4.14-19.34c22.63-1.29,42.39-9,57.38-20.2A100.31,100.31,0,0,0,365.85,209.22Z" style="fill:#BA68C8"></path><g style="opacity:0.1"><path d="M336.23,217.72c2.09,2.88-.47,7.45-6.4,9.73s-11.91.86-12.79-2.58,2.55-7.3,7.25-9S334.12,214.83,336.23,217.72Z"></path><path d="M310.12,226.12c.12.81-1.06,1.75-2.67,2s-2.95-.16-3-1,1.19-1.69,2.71-2S310,225.31,310.12,226.12Z"></path><path d="M346.26,211.79c.6.57.1,1.65-1.16,2.4s-2.77.83-3.32.21,0-1.67,1.23-2.37S345.65,211.22,346.26,211.79Z"></path></g><g style="opacity:0.1"><path d="M293.56,219.1q-1.83,9.65-3.33,19.37l-2.86.1q1.94-9.7,4.14-19.34C292.2,219.2,292.88,219.15,293.56,219.1Z"></path><path d="M365.85,209.22l-1.79,1.52A102,102,0,0,1,347.51,200c.47-.34.93-.67,1.38-1A100.31,100.31,0,0,0,365.85,209.22Z"></path><path d="M364.69,208.66l1.16.56c-19.41,16.92-46.82,28.59-78.48,29.35l.24-1.22C318.66,236.55,345.56,225.16,364.69,208.66Z"></path><path d="M348.89,199l1,.72c-15.26,11.47-35.47,19.43-58.62,20.69l.27-1.21C314.14,217.94,333.9,210.19,348.89,199Z"></path><path d="M296.54,236.82q-3,.28-6.12.42c.14-.9.28-1.8.43-2.7C294.11,234.38,296.62,235.32,296.54,236.82Z"></path><path d="M360.46,208.79l2.47,1.36q-2,1.62-4.05,3.18C357.58,212.49,358.36,210.48,360.46,208.79Z"></path><path d="M345.26,203c1.09-.73,2.15-1.47,3.2-2.22.7.54,1.41,1.08,2.14,1.61C348.79,203.73,346.34,204,345.26,203Z"></path><path d="M292.83,223c.17-.9.33-1.79.5-2.69,1.53-.11,3.06-.25,4.56-.42C297.75,221.37,295.52,222.82,292.83,223Z"></path></g><path d="M325,217.24c.23-.09.48-.05.54.08l.18.4a10.89,10.89,0,0,1,3.52-.55c.2,0,.32,0,.37.12s-.08.33-.33.43a.67.67,0,0,1-.36.06,9.53,9.53,0,0,0-3,.42c.43.93.87,1.87,1.33,2.8,3-.79,4.55-.78,5.12.16s-.69,2.49-3.23,3.52l.41.77c.06.13-.11.33-.38.43s-.55.08-.62,0l-.39-.79a12.41,12.41,0,0,1-5.08.64c-.17,0-.28-.05-.31-.14s.14-.34.41-.43a.92.92,0,0,1,.4-.05,10.42,10.42,0,0,0,4.39-.48c-.47-1-.93-1.9-1.37-2.86-3.05.73-4.51.53-4.88-.5s1-2.37,3.16-3.2c-.06-.13-.11-.26-.17-.38S324.78,217.32,325,217.24Zm1.33,4c-.43-.91-.84-1.83-1.25-2.75-1.75.66-2.72,1.65-2.43,2.4S323.73,221.8,326.34,221.21Zm1.13.29c.45.92.91,1.84,1.38,2.75,2-.8,3-1.91,2.54-2.64S330.12,220.83,327.47,221.5Z" style="fill:#BA68C8"></path><path d="M380.8,187.66a170.4,170.4,0,0,0-66.67,29.42q-2.44-9.56-5.06-19.08a188.05,188.05,0,0,1,58.29-26.62A191.31,191.31,0,0,1,380.8,187.66Z" style="fill:#BA68C8"></path><g style="opacity:0.1"><path d="M349.79,187.28c1.79,3.1-1.19,7.22-6.25,9.5s-10,1.71-11.4-1.51,1.05-7.72,5.72-9.86S348,184.2,349.79,187.28Z"></path><path d="M326.46,197.89c.29.76-.48,1.93-1.68,2.64s-2.38.66-2.64-.11.46-2,1.65-2.67S326.18,197.13,326.46,197.89Z"></path><path d="M360.82,183c.49.7-.28,1.63-1.7,2.09s-2.92.3-3.38-.4.28-1.66,1.67-2.12S360.34,182.26,360.82,183Z"></path></g><g style="opacity:0.1"><path d="M310.61,197q2.7,9.42,5.2,18.89l-1.68,1.23q-2.44-9.56-5.06-19.08C309.58,197.65,310.09,197.3,310.61,197Z"></path><path d="M380.8,187.66l-2.33.5a193,193,0,0,0-13.09-16.24l2-.54A191.31,191.31,0,0,1,380.8,187.66Z"></path><path d="M380,186.61l.78,1a170.4,170.4,0,0,0-66.67,29.42c-.1-.4-.2-.8-.31-1.2A171.41,171.41,0,0,1,380,186.61Z"></path><path d="M367.36,171.38c.3.34.61.67.91,1A186.89,186.89,0,0,0,309.4,199.2l-.33-1.2A188.05,188.05,0,0,1,367.36,171.38Z"></path><path d="M319.28,212q-1.92,1.29-3.78,2.62l-.71-2.63C316.84,210.58,318.88,210.61,319.28,212Z"></path><path d="M376,184.81c.57.77,1.14,1.53,1.7,2.3-1.69.39-3.37.79-5,1.22C371.79,187.06,373.25,185.46,376,184.81Z"></path><path d="M361.88,174.18c1.45-.44,2.91-.86,4.39-1.26.65.73,1.3,1.47,1.93,2.21C365.7,175.79,362.9,175.39,361.88,174.18Z"></path><path d="M311.69,200.77c-.24-.88-.49-1.75-.74-2.63,1.14-.77,2.3-1.53,3.47-2.28C314.86,197.28,313.61,199.46,311.69,200.77Z"></path></g><path d="M338.69,186.75c.22-.1.47-.08.53.05l.21.39a9.16,9.16,0,0,1,3.47-.69c.19,0,.31,0,.37.12s-.08.33-.33.43a.63.63,0,0,1-.35.07,8.1,8.1,0,0,0-3,.53l1.41,2.73c2.86-.9,4.33-.82,4.84.13s-.74,2.45-3,3.5c.13.26.25.51.37.77s-.08.32-.32.43-.49.09-.55,0-.25-.52-.38-.77a11.78,11.78,0,0,1-4.47.93c-.15,0-.25,0-.29-.12s.1-.35.33-.46a.76.76,0,0,1,.35-.09,9.64,9.64,0,0,0,3.91-.72c-.45-.94-.91-1.87-1.37-2.8-2.81.88-4.12.87-4.6-.12s.64-2.48,2.73-3.48c-.06-.12-.13-.24-.19-.37S338.46,186.85,338.69,186.75Zm1.52,3.89c-.45-.89-.9-1.78-1.36-2.67-1.66.78-2.47,1.88-2.13,2.59S337.79,191.37,340.21,190.64Zm1.08.24c.45.9.9,1.8,1.34,2.71,1.81-.83,2.72-1.9,2.33-2.64S343.76,190.13,341.29,190.88Z" style="fill:#BA68C8"></path><path d="M138.69,215.13c2.47,17,18.88,81.14,34.18,86.64,14.83,5.33,70.8-19.3,89.35-30.27,5.44-3.22-28.38-43.77-34.21-40.33-7,4.16-38,20-40.15,21.47-1.44,1-20-35.55-31-51C139.61,177.51,135.83,195.38,138.69,215.13Z" style="fill:#f7a9a0"></path><path d="M225.06,235.39a86.41,86.41,0,0,1,23.63-23.78c6.59-4.48,20.54-9.18,26.2-10.25,8.46-1.59,44.87-2.85,45.37,6,.45,8-31,5.1-31,5.1s32,.11,30.73,9.83S283.73,224,283.73,224s32.83.86,30,10.67c-2.15,7.42-34.32,2-34.32,2s28.22.93,26.33,8.65c-2.08,8.54-32.09,5.38-32.09,5.38.05,3.72-2.46,17.85-14.52,22.3C257,273.73,225.06,235.39,225.06,235.39Z" style="fill:#f7a9a0"></path><path d="M278.23,211.68c3.76-.13,7.56-.27,11.31-.06s7.5.55,11.22,1.11c9.12,1.38,14.61,3.66,14.25,3.56-8.38-2.47-21.81-3.43-25.56-3.65s-7.48-.61-11.23-.82A.07.07,0,0,1,278.23,211.68Z" style="fill:#263238"></path><path d="M277.22,225.22c4.8.05,9.57-.08,14.37.18s9.29.93,14,1.52c.36.05.22.23-.15.2-4.77-.4-9.21-.4-14-.75s-9.53-.87-14.29-1C277.14,225.33,277.15,225.21,277.22,225.22Z" style="fill:#263238"></path><path d="M274.26,236.68a110.56,110.56,0,0,1,22.32,1.72c.36.06.14.28-.23.24-7.28-.79-13.35-1.22-22.08-1.71C274.14,236.93,274.11,236.68,274.26,236.68Z" style="fill:#263238"></path><path d="M245.71,280.1q5-2.14,9.78-4.72a62.07,62.07,0,0,0,9.1-5.84,21.86,21.86,0,0,0,6.41-8.46,30.81,30.81,0,0,0,2.21-10.45l0-.44.45,0c3.84.37,7.73.56,11.6.57a66.16,66.16,0,0,0,11.53-.86,24.8,24.8,0,0,0,5.46-1.65,9.84,9.84,0,0,0,2.35-1.45,3,3,0,0,0,1.19-2.12,2.9,2.9,0,0,0-1.14-2.14,8.93,8.93,0,0,0-2.39-1.39,44.7,44.7,0,0,0-5.36-2.1L293.23,238l3.84.22a53.36,53.36,0,0,0,7.48-.09,28,28,0,0,0,3.67-.55,12.34,12.34,0,0,0,3.42-1.23,3.33,3.33,0,0,0,1.9-2.63,4.34,4.34,0,0,0-1.39-3.07,11.63,11.63,0,0,0-3.1-1.92,28.76,28.76,0,0,0-3.49-1.32l-2.47-.75,2.58.17a37.91,37.91,0,0,0,6.12-.06,13.8,13.8,0,0,0,5.81-1.59,5.21,5.21,0,0,0,2-2.17,3.42,3.42,0,0,0,0-2.9,6,6,0,0,0-1.95-2.29,13.61,13.61,0,0,0-2.69-1.5,13.27,13.27,0,0,1,2.75,1.42,6,6,0,0,1,2.07,2.29,3.67,3.67,0,0,1,0,3.09,5.48,5.48,0,0,1-2.07,2.35,14.14,14.14,0,0,1-6,1.79,38,38,0,0,1-6.22.16l.1-.57a28.56,28.56,0,0,1,3.6,1.29,12.35,12.35,0,0,1,3.32,2,5.56,5.56,0,0,1,1.19,1.62,4.32,4.32,0,0,1,.47,2,3.34,3.34,0,0,1-.71,2,5.23,5.23,0,0,1-1.53,1.33,12.32,12.32,0,0,1-3.65,1.36,28.81,28.81,0,0,1-3.78.59,53.83,53.83,0,0,1-7.62.13l.15-.9a47.92,47.92,0,0,1,5.51,2.12,10.11,10.11,0,0,1,2.63,1.54,3.85,3.85,0,0,1,1.48,2.87,4,4,0,0,1-1.5,2.85,10.27,10.27,0,0,1-2.6,1.62,26,26,0,0,1-5.69,1.69,67.77,67.77,0,0,1-11.71.82c-3.91,0-7.8-.24-11.7-.63l.48-.4a30.81,30.81,0,0,1-2.42,10.68,22.44,22.44,0,0,1-6.71,8.6,58.69,58.69,0,0,1-9.29,5.69C252.4,277.29,249.09,278.79,245.71,280.1Z" style="fill:#263238"></path><path d="M291.5,200.22a106.2,106.2,0,0,1,11,0c1.84.07,3.67.24,5.5.48a45.5,45.5,0,0,1,5.43,1.13,18,18,0,0,1,5.19,2.18,4.81,4.81,0,0,1,1.88,2.32,3.65,3.65,0,0,1,.15,1.54,3.14,3.14,0,0,1-.59,1.43,5.67,5.67,0,0,1-2.3,1.76,15.07,15.07,0,0,1-2.66.88,29.87,29.87,0,0,1-5.48.62,35.86,35.86,0,0,0,5.36-1.09,15.45,15.45,0,0,0,2.5-1,5,5,0,0,0,1.94-1.62,2.48,2.48,0,0,0,.25-2.26,3.91,3.91,0,0,0-1.59-1.82,17.6,17.6,0,0,0-4.91-2,57.73,57.73,0,0,0-10.72-1.81c-1.82-.17-3.64-.3-5.47-.4S293.33,200.33,291.5,200.22Z" style="fill:#263238"></path><path d="M228,231.17l-6.36,3.5-6.39,3.44L202.48,245c-4.29,2.24-8.53,4.56-12.78,6.86-2.13,1.14-4.24,2.32-6.35,3.5l-3.16,1.78-3.14,1.82c3.95-2.81,8.1-5.31,12.27-7.77s8.43-4.76,12.69-7.07,8.56-4.51,12.9-6.65S223.6,233.16,228,231.17Z" style="fill:#263238"></path></g><g id="freepik--Table--inject-232"><polygon points="459.98 419.11 407.49 419.36 354.99 419.44 250 419.61 145.01 419.44 92.52 419.36 40.02 419.11 92.52 418.87 145.01 418.78 250 418.61 354.99 418.78 407.49 418.87 459.98 419.11" style="fill:#263238"></polygon></g><g id="freepik--money-bag--inject-232"><path d="M322.18,318.67S327,313.53,333.4,315s7.81,10.92,14.56,13.21,15.14-2,20.56,1.7,4.19,12.93,6.58,14.46-21.8,2.32-21.8,2.32-27.66-20.87-30.89-27.29" style="fill:#BA68C8"></path><path d="M322.18,318.67S327,313.53,333.4,315s7.81,10.92,14.56,13.21,15.14-2,20.56,1.7,4.19,12.93,6.58,14.46-21.8,2.32-21.8,2.32-27.66-20.87-30.89-27.29" style="opacity:0.2"></path><path d="M389.23,429.78c-2.49,1.88-14.55-2.1-17.73-1.58s-18.19,6.68-35,7.68-26.63-4.87-29.29-5.43-13.44,2.07-16.54-.45,2.3-12.84,2.3-12.84a21.23,21.23,0,0,1-3.69-7.51c-1.38-4.69-2-11.51.56-20.31,5.36-18.11,33.67-29.75,38.37-32.54s8.85-12.41.64-23.34l-.78-1c-.53-.74-1-1.44-1.46-2.11h0a.6.6,0,0,0-.09-.13c-5.56-8.42-4.32-11.49-4.32-11.49a13.11,13.11,0,0,0,11.75,6.41c8.52,0,19.85-4.81,25.37-2.22s1.59,12.94,2.73,15.89,2.61,2.5,8.71,1.7,15.41,6,7.13,6.52-20.05,3.34-17.1,11.21a10.87,10.87,0,0,0,2.08,3.29h0l0,0,.1.11a1.29,1.29,0,0,0,.16.17l.1.12c2.9,3.15,7.59,6.35,12.26,10l.05,0c1.14.9,2.28,1.83,3.39,2.81,3.8,3.32,7.25,7.05,9.29,11.46,8.73,18.9-2.28,29.79-1.56,30.3S391.71,427.9,389.23,429.78Z" style="fill:#BA68C8"></path><g style="opacity:0.2"><path d="M307.2,430.45a5.91,5.91,0,0,1-2.54-.41,10.46,10.46,0,0,1-2.24-1.19,11.07,11.07,0,0,1-2.7-2.63,8.6,8.6,0,0,1-.65-1.1,9.18,9.18,0,0,1,1.13.57c.37.2.71.42,1.06.64.68.42,1.33.88,2,1.32l1.94,1.37Z"></path><path d="M371.42,428.2l2.08-1.32,2-1.26c.68-.41,1.35-.83,2.06-1.22.36-.19.71-.39,1.09-.57a9.44,9.44,0,0,1,1.16-.51,7.94,7.94,0,0,1-.71,1.07,12.49,12.49,0,0,1-.85.93,11.55,11.55,0,0,1-2,1.55,11.17,11.17,0,0,1-2.3,1.06A6.13,6.13,0,0,1,371.42,428.2Z"></path><path d="M333.52,357.92a16.23,16.23,0,0,1-2.56,2.35,27.45,27.45,0,0,1-2.88,1.89,26.83,26.83,0,0,1-3.1,1.5,17.77,17.77,0,0,1-3.33,1,27.74,27.74,0,0,1,2.8-2c1-.61,1.93-1.2,2.91-1.75s2-1.09,3-1.59A31.07,31.07,0,0,1,333.52,357.92Z"></path><path d="M336.56,358a8,8,0,0,1-.84,2.22,11.53,11.53,0,0,1-1.3,1.94,10.49,10.49,0,0,1-1.68,1.65,5.81,5.81,0,0,1-2.15,1.08c.46-.68.89-1.29,1.33-1.89s.9-1.19,1.38-1.77,1-1.14,1.5-1.68A12,12,0,0,1,336.56,358Z"></path><path d="M351,358.89c.42,1.1.84,2.14,1.31,3.15a32.65,32.65,0,0,0,3.31,5.73c.62.93,1.36,1.77,2.05,2.74a10.36,10.36,0,0,1-2.92-2,11.9,11.9,0,0,1-2.19-2.8,12.35,12.35,0,0,1-1.33-3.31A9.29,9.29,0,0,1,351,358.89Z"></path><path d="M366.21,368.19a8.86,8.86,0,0,1-2.4-1.15,13.08,13.08,0,0,1-2.06-1.65,11.51,11.51,0,0,1-1.66-2.07,7,7,0,0,1-1-2.51c.68.62,1.27,1.21,1.88,1.79s1.2,1.16,1.79,1.75,1.19,1.19,1.76,1.82A18.68,18.68,0,0,1,366.21,368.19Z"></path><path d="M355.94,361.29c.77,1,1.48,1.94,2.2,2.89l2.14,2.85,2.17,2.82c.72,1,1.48,1.88,2.18,2.92a14.61,14.61,0,0,1-3-2.14,20.06,20.06,0,0,1-4.44-5.85A13.42,13.42,0,0,1,355.94,361.29Z"></path><path d="M352.45,353.85a13,13,0,0,1,1.76-2.34,17.7,17.7,0,0,1,2.17-2,14.94,14.94,0,0,1,2.51-1.54,8.59,8.59,0,0,1,2.83-.82c-.86.48-1.67,1-2.46,1.48s-1.54,1.09-2.29,1.66C355.46,351.45,354,352.67,352.45,353.85Z"></path><path d="M341.27,352.68a17.11,17.11,0,0,0-1.14-4,16.48,16.48,0,0,0-.92-1.83c-.34-.6-.74-1.17-1.12-1.81a5.9,5.9,0,0,1,1.74,1.37,6.86,6.86,0,0,1,1.19,1.89,6.52,6.52,0,0,1,.53,2.17A4.85,4.85,0,0,1,341.27,352.68Z"></path><path d="M344.34,353.62a27,27,0,0,1-.84-2.78l-.39-1.34c-.14-.45-.31-.88-.48-1.39a3.08,3.08,0,0,1,1.16,1.05,5.07,5.07,0,0,1,.65,1.42,6.05,6.05,0,0,1,.19,1.53A4.18,4.18,0,0,1,344.34,353.62Z"></path></g><path d="M325.54,355.05c2.57,2.38,6.06,3.87,9.32,5,9.24,3.17,19.26,3.16,28.86,2.13,3.49-.37,2.16-5.69-1.31-5.32-8.61.93-17.68.79-26-2.05a26.36,26.36,0,0,1-5.45-2.5c-.5-.31-1-.66-1.46-1s.46.44,0,0c-2.57-2.38-6.56,1.36-4,3.77Z" style="fill:#455a64"></path><path d="M329,351.59a22.27,22.27,0,0,0,7.78,4.27c7.59,2.72,16,2.89,23.89,2.1,3.46-.35,3.65-5.82.15-5.47-7.34.73-15,.7-22-1.72a22.21,22.21,0,0,1-4.59-2.12c-.43-.27-.84-.56-1.26-.85s.48.44.05,0c-2.57-2.4-6.55,1.35-4,3.77Z" style="fill:#455a64"></path><g style="opacity:0.2"><path d="M332.26,375.91a1.25,1.25,0,0,1,1.22,1.23l-.1,1.95a18.36,18.36,0,0,1,9.3,3.9c.46.37.72.67.69,1.16a1.32,1.32,0,0,1-1.45,1.15,1.4,1.4,0,0,1-.94-.39,15.92,15.92,0,0,0-7.83-3.58l-.7,13.65c8,2,11.29,4.93,11,9.7-.26,5.17-5.19,8.58-11.86,8.44l-.19,3.8a1.29,1.29,0,0,1-2.56-.13l.2-3.85a21,21,0,0,1-11.75-5.35,1.26,1.26,0,0,1-.53-1,1.32,1.32,0,0,1,1.39-1.15,1.45,1.45,0,0,1,.95.39,18,18,0,0,0,10.16,5l.71-13.89c-7.91-2-11.07-4.87-10.82-9.75s5.13-8.43,11.63-8.24l.1-1.86A1.24,1.24,0,0,1,332.26,375.91Zm-2.12,18.46.68-13.31c-5.17-.16-8.73,2.49-8.91,6C321.74,390.37,323.34,392.51,330.14,394.37Zm2.19,3.09-.69,13.46c5.33.17,8.94-2.48,9.13-6.18C340.94,401.38,339.18,399.23,332.33,397.46Z"></path></g></g><g id="freepik--Money--inject-232"><path d="M421.49,444.07a138.78,138.78,0,0,1-65,5.9q4.51-7.08,8.46-14.39A123.13,123.13,0,0,0,412.16,431Q416.48,437.67,421.49,444.07Z" style="fill:#BA68C8"></path><g style="opacity:0.1"><path d="M397.17,442.4c.63,2.8-2.72,5.73-7.6,6.19s-8.56-1.81-8.17-4.68,3.84-5.33,7.71-5.72S396.55,439.59,397.17,442.4Z"></path><path d="M376.17,443.65c-.15.66-1.26,1.19-2.47,1.16s-2-.6-1.8-1.25,1.32-1.15,2.46-1.13S376.32,443,376.17,443.65Z"></path><path d="M406.3,440.29c.27.62-.45,1.33-1.61,1.58s-2.27-.07-2.47-.7.52-1.32,1.62-1.56S406,439.67,406.3,440.29Z"></path></g><g style="opacity:0.1"><path d="M366.41,435.71q-3.69,7.37-7.91,14.54l-2-.28q4.53-7.08,8.47-14.39Z"></path><path d="M421.49,444.07l-1.86.62q-4.75-6.53-8.84-13.33l1.37-.4Q416.48,437.67,421.49,444.07Z"></path><path d="M420.86,443.26l.63.81a138.82,138.82,0,0,1-65,5.9l.57-.89A137.74,137.74,0,0,0,420.86,443.26Z"></path><path d="M412.16,431c.18.28.36.56.55.84a124.2,124.2,0,0,1-48.27,4.7l.5-.92A123.13,123.13,0,0,0,412.16,431Z"></path><path d="M363.43,449.84c-1.47-.14-2.93-.3-4.4-.49.39-.67.78-1.33,1.16-2C362.51,447.63,364,448.71,363.43,449.84Z"></path><path d="M417.74,442c.42.61.86,1.22,1.29,1.83-1.35.44-2.71.85-4.07,1.25C414.33,444.07,415.59,442.72,417.74,442Z"></path><path d="M408.2,433.07c1-.27,2.08-.55,3.11-.85l1.16,1.88C410.68,434.63,408.75,434.15,408.2,433.07Z"></path><path d="M364.9,438.68c.35-.68.7-1.36,1-2,1.11.1,2.22.18,3.32.24C368.79,438,366.83,438.87,364.9,438.68Z"></path></g><path d="M389.24,439.46c.19,0,.36.06.36.18l0,.36a7.13,7.13,0,0,1,2.69.33c.14.05.23.09.24.18s-.16.24-.37.27a.56.56,0,0,1-.28,0,6.37,6.37,0,0,0-2.29-.34c.05.84.09,1.67.14,2.51,2.41,0,3.48.41,3.59,1.28s-1.27,1.8-3.38,2.05l0,.7c0,.11-.18.23-.4.25s-.42-.06-.42-.18l0-.7a8.61,8.61,0,0,1-3.77-.58c-.11-.05-.18-.1-.17-.18s.2-.24.42-.25a.6.6,0,0,1,.29,0,7,7,0,0,0,3.25.56c0-.85-.07-1.7-.1-2.56-2.38-.08-3.35-.52-3.32-1.42s1.36-1.68,3.16-1.88c0-.12,0-.23,0-.34S389.05,439.48,389.24,439.46Zm-.19,3.44-.09-2.45c-1.45.15-2.41.74-2.42,1.39S387,442.8,389.05,442.9Zm.72.48c0,.82.09,1.64.13,2.47,1.67-.18,2.7-.84,2.62-1.51S391.85,443.43,389.77,443.38Z" style="fill:#BA68C8"></path><path d="M431.5,447a159.18,159.18,0,0,0-59.7-.36q1.83-8.46,4.32-16.9a175.4,175.4,0,0,1,53.54.64Q430.8,438.71,431.5,447Z" style="fill:#BA68C8"></path><g style="opacity:0.1"><path d="M410.26,436.48c-.1,3-3.87,5.19-8.42,5.16s-8-2.28-7.6-5.31,4.17-5.59,8.44-5.54S410.35,433.48,410.26,436.48Z"></path><path d="M389,436.27c-.12.7-1.18,1.33-2.37,1.44s-2-.38-1.91-1.08,1.2-1.37,2.37-1.46S389.1,435.57,389,436.27Z"></path><path d="M419.83,436.94c0,.7-.92,1.15-2.1,1s-2.16-.77-2.17-1.46.93-1.17,2.1-1.05S419.8,436.25,419.83,436.94Z"></path></g><g style="opacity:0.1"><path d="M377.74,429.54q-2.4,8.38-4.14,16.8l-1.8.32q1.81-8.46,4.32-16.9Z"></path><path d="M431.5,447l-1.79-.34q-.63-8.26-1.66-16.54l1.61.26Q430.8,438.71,431.5,447Z"></path><path d="M431.41,446l.09,1a159.18,159.18,0,0,0-59.7-.36l.24-1.07A160.37,160.37,0,0,1,431.41,446Z"></path><path d="M429.66,430.4c0,.35.1.7.14,1a174.25,174.25,0,0,0-54-.62l.31-1.06A175.4,175.4,0,0,1,429.66,430.4Z"></path><path d="M377.78,444.66c-1.32.19-2.64.39-4,.62l.51-2.34C376.5,442.59,378,443.38,377.78,444.66Z"></path><path d="M429.44,443.34c.07.76.13,1.53.19,2.3-1.31-.24-2.63-.47-3.95-.68C425.6,443.71,427.28,443,429.44,443.34Z"></path><path d="M424.58,430.64l3.6.54.27,2.3C426.44,433.15,424.7,431.9,424.58,430.64Z"></path><path d="M376.8,432.93c.21-.78.42-1.56.64-2.34l3.6-.45C380.71,431.42,378.82,432.64,376.8,432.93Z"></path></g><path d="M402.66,432.12c.2,0,.37.11.36.23l0,.37a6.92,6.92,0,0,1,2.76.72c.14.07.22.12.21.22s-.2.23-.42.22a.54.54,0,0,1-.29-.07,5.94,5.94,0,0,0-2.32-.66c-.07.88-.14,1.75-.2,2.62,2.43.33,3.43.91,3.38,1.83s-1.55,1.64-3.6,1.65c0,.24,0,.49-.05.73s-.2.22-.42.22-.38-.1-.38-.23l.06-.74a8.6,8.6,0,0,1-3.6-.89c-.11,0-.17-.11-.16-.19s.21-.24.43-.24a.52.52,0,0,1,.28.06,7.12,7.12,0,0,0,3.12.84c.06-.89.13-1.77.2-2.66-2.38-.32-3.33-.81-3.23-1.75s1.56-1.69,3.48-1.7l0-.36C402.28,432.22,402.46,432.12,402.66,432.12Zm-.63,3.55.21-2.55c-1.54,0-2.6.56-2.66,1.23S400,435.37,402,435.67Zm.66.58-.18,2.58c1.63,0,2.73-.51,2.77-1.22S404.78,436.55,402.69,436.25Z" style="fill:#BA68C8"></path><path d="M409.67,189.6a112.85,112.85,0,0,0-71-14.11A129.2,129.2,0,0,1,348,156.28a130.74,130.74,0,0,1,66.3,14.89Q412.08,180.41,409.67,189.6Z" style="fill:#BA68C8"></path><g style="opacity:0.1"><path d="M389,170.88c-1.12,3.27-6.21,4.57-11.69,3.43s-9.17-4.33-7.88-7.65,6.9-5.38,12.19-4.17S390.08,167.63,389,170.88Z"></path><path d="M362.81,165.57c-.33.77-1.82,1.3-3.35,1.22s-2.51-.74-2.16-1.52,1.88-1.37,3.39-1.28S363.15,164.8,362.81,165.57Z"></path><path d="M400.17,174.47c-.23.76-1.48.93-2.83.4s-2.28-1.54-2-2.3,1.52-1,2.86-.46S400.39,173.7,400.17,174.47Z"></path></g><g style="opacity:0.1"><path d="M350.18,156.21a129.77,129.77,0,0,0-9.16,19q-1.18.12-2.37.27A129.2,129.2,0,0,1,348,156.28Z"></path><path d="M409.67,189.6l-1.84-1q2.4-9.15,4.7-18.32c.59.3,1.19.61,1.78.93Q412.08,180.41,409.67,189.6Z"></path><path d="M410,188.45c-.1.38-.2.77-.31,1.15a112.81,112.81,0,0,0-71-14.11l.48-1.22A113.86,113.86,0,0,1,410,188.45Z"></path><path d="M414.31,171.16c-.09.39-.19.78-.28,1.17a129.7,129.7,0,0,0-66.72-14.86l.7-1.19A130.83,130.83,0,0,1,414.31,171.16Z"></path><path d="M346.68,173.6c-1.72.1-3.45.23-5.19.41.35-.89.72-1.78,1.1-2.67C345.45,171.09,347.25,172.16,346.68,173.6Z"></path><path d="M408.8,184.86c-.22.85-.45,1.7-.67,2.55q-2-1.14-4.15-2.19C404.34,183.83,406.53,183.62,408.8,184.86Z"></path><path d="M408.21,169.42c1.36.64,2.7,1.29,4,2-.21.85-.43,1.7-.64,2.55C409.39,172.8,407.85,170.81,408.21,169.42Z"></path><path d="M348.05,160c.47-.87,1-1.74,1.45-2.61,1.61,0,3.21-.06,4.81,0C353.52,158.75,350.75,159.89,348.05,160Z"></path></g><path d="M381.14,164c.25.06.41.22.36.35l-.15.41a8.63,8.63,0,0,1,3.16,1.53c.14.12.22.2.18.3s-.32.2-.59.13a.65.65,0,0,1-.32-.16,7.64,7.64,0,0,0-2.65-1.35c-.36,1-.72,1.9-1.07,2.85,2.88,1,3.89,1.93,3.56,2.92s-2.37,1.39-4.86.89c-.1.26-.19.53-.28.8s-.3.19-.56.14-.44-.21-.4-.35.19-.54.28-.81a11.81,11.81,0,0,1-4.16-1.84c-.12-.09-.18-.17-.14-.26s.34-.21.6-.17a.68.68,0,0,1,.33.14,9.56,9.56,0,0,0,3.57,1.68q.51-1.46,1.05-2.91c-2.83-1-3.87-1.71-3.46-2.74s2.45-1.51,4.84-1l.15-.39C380.63,164,380.88,163.9,381.14,164Zm-1.9,3.77c.34-.92.69-1.85,1.05-2.78-1.9-.39-3.39,0-3.68.71S376.82,166.87,379.24,167.72Zm.63.81q-.51,1.41-1,2.82c2,.41,3.46.15,3.73-.63S382.33,169.4,379.87,168.53Z" style="fill:#BA68C8"></path><path d="M445,223.67c-22,6.81-44.09-22.91-66.14-16.1a179.8,179.8,0,0,1,11.61-19.39c17.94,3,35.88,21.8,53.83,16.87Q444.65,214.36,445,223.67Z" style="fill:#BA68C8"></path><g style="opacity:0.1"><path d="M423,211.85c-.69,3.27-5.3,4-10.27,1.39s-7.92-6.88-6.57-9.74,5.94-3.32,10.27-1.12S423.7,208.62,423,211.85Z"></path><path d="M400.75,200.58c-.36.66-1.67.76-2.93.3s-2-1.33-1.56-2,1.71-.88,2.93-.39S401.11,199.93,400.75,200.58Z"></path><path d="M433.15,214.64c-.07.8-1.15,1.27-2.41,1s-2.2-1.28-2.08-2.05,1.19-1.1,2.41-.8S433.22,213.84,433.15,214.64Z"></path></g><g style="opacity:0.1"><path d="M392.09,188.5a187.75,187.75,0,0,0-11.22,18.55c-.67.15-1.34.32-2,.52a181.48,181.48,0,0,1,11.6-19.39C391,188.28,391.55,188.38,392.09,188.5Z"></path><path d="M445,223.67c-.67.2-1.34.38-2,.52l-.33-18.76c.54-.11,1.08-.23,1.63-.38Q444.65,214.36,445,223.67Z"></path><path d="M445,222.49c0,.4,0,.79,0,1.18-22.05,6.81-44.09-22.91-66.14-16.1.25-.46.49-.93.73-1.39C401.38,200.23,423.17,229.18,445,222.49Z"></path><path d="M444.3,205.05c0,.39,0,.78,0,1.17-18.2,5-36.4-14.32-54.61-17l.73-1.07C408.41,191.23,426.35,210,444.3,205.05Z"></path><path d="M386,205.37a24,24,0,0,0-4.38.36c.52-1,1-1.9,1.56-2.83C385.49,202.67,386.75,204,386,205.37Z"></path><path d="M442.93,220.4c0,.87,0,1.74.05,2.61a23.32,23.32,0,0,1-4.38.49C438.64,222.05,440.57,220.89,442.93,220.4Z"></path><path d="M439,207a24,24,0,0,0,3.67-.43c0,.87,0,1.74,0,2.61C440.65,209.64,439,208.47,439,207Z"></path><path d="M389.83,191.88q.78-1.2,1.56-2.34c1.21.24,2.43.55,3.65.92C394.24,191.65,391.91,192.17,389.83,191.88Z"></path></g><path d="M416.07,203.76c.2.11.35.3.31.42l-.13.38a10.6,10.6,0,0,1,2.69,2.1c.13.14.19.23.16.33s-.26.15-.49,0a.85.85,0,0,1-.28-.21,9,9,0,0,0-2.26-1.84l-.87,2.63c2.47,1.61,3.4,2.67,3.13,3.63s-2.05,1-4.26-.12l-.25.73c0,.12-.27.12-.5,0s-.39-.32-.35-.44l.26-.74a12.81,12.81,0,0,1-3.6-2.93c-.1-.12-.15-.21-.12-.29s.3-.12.53,0a.92.92,0,0,1,.28.22,10.78,10.78,0,0,0,3.09,2.6c.3-.88.61-1.77.92-2.66-2.43-1.61-3.27-2.66-2.91-3.57s2.08-.87,4.06.11l.12-.36C415.64,203.67,415.86,203.66,416.07,203.76Zm-1.58,3.38c.29-.85.59-1.7.88-2.56-1.59-.78-2.83-.8-3.09-.14S412.43,205.73,414.49,207.14Zm.55,1-.87,2.59c1.76.88,3.06.89,3.27.16S417.16,209.49,415,208.09Z" style="fill:#BA68C8"></path><path d="M301.19,369.94c-19.58,9.27-39.15-4.49-58.73,4.78q2.59-9.15,5.19-17.8c15.93-4.54,31.86,3.48,47.79-.76C297.36,360.94,299.28,365.55,301.19,369.94Z" style="fill:#BA68C8"></path><g style="opacity:0.1"><path d="M279.16,365.34c.34,3-3,5.15-7.39,4.62s-7.8-3.2-7.57-6.14,3.54-5.1,7.38-4.64S278.82,362.35,279.16,365.34Z"></path><path d="M259.29,363.26c-.1.68-1.09,1.22-2.21,1.26s-1.91-.45-1.78-1.14a2.23,2.23,0,0,1,2.2-1.34C258.59,362,259.39,362.57,259.29,363.26Z"></path><path d="M288.06,365.12c.16.68-.63,1.29-1.74,1.32s-2.13-.53-2.25-1.22.66-1.22,1.74-1.24S287.9,364.45,288.06,365.12Z"></path></g><g style="opacity:0.1"><path d="M249.1,356.54q-2.43,8.5-4.86,17.4c-.59.24-1.19.5-1.78.78q2.59-9.15,5.19-17.8C248.13,356.78,248.62,356.66,249.1,356.54Z"></path><path d="M301.19,369.94c-.59.28-1.19.54-1.78.78-1.81-4.56-3.61-9.31-5.42-14.21l1.45-.35C297.36,360.94,299.28,365.55,301.19,369.94Z"></path><path d="M300.83,369.11l.36.83c-19.58,9.27-39.15-4.49-58.73,4.78l.33-1.15C262.14,364.66,281.48,378,300.83,369.11Z"></path><path d="M295.44,356.16l.36.9c-16.16,4.49-32.32-3.82-48.47.95.1-.36.21-.73.32-1.09C263.58,352.38,279.51,360.4,295.44,356.16Z"></path><path d="M248.43,371.56a32.43,32.43,0,0,0-3.88,1.26c.22-.82.45-1.64.67-2.46C247.31,369.59,248.75,370.27,248.43,371.56Z"></path><path d="M298.32,367.93l.75,1.93a34.41,34.41,0,0,1-3.89,1.25C294.82,370,296.23,368.69,298.32,367.93Z"></path><path d="M291.08,358c1.09-.15,2.17-.35,3.26-.6l.75,2C293.24,359.94,291.44,359.2,291.08,358Z"></path><path d="M248.12,360l.67-2.38c1.08-.27,2.16-.48,3.25-.64C251.72,358.23,250,359.49,248.12,360Z"></path></g><path d="M271.69,360.51c.19,0,.34.14.35.26v.37a7.67,7.67,0,0,1,2.59.94c.14.08.21.15.22.24s-.16.22-.37.19a.48.48,0,0,1-.26-.09,6.43,6.43,0,0,0-2.2-.85l.06,2.6c2.29.56,3.28,1.19,3.34,2.11s-1.28,1.55-3.23,1.36v.72c0,.13-.16.21-.37.18s-.38-.14-.38-.26,0-.49,0-.74a9.15,9.15,0,0,1-3.49-1.28c-.11-.07-.17-.13-.16-.21s.19-.22.39-.2a.6.6,0,0,1,.27.1,7.6,7.6,0,0,0,3,1.18c0-.88,0-1.77,0-2.65-2.24-.56-3.16-1.17-3.13-2.09s1.3-1.52,3.06-1.34v-.36C271.35,360.57,271.5,360.49,271.69,360.51Zm-.26,3.5,0-2.54c-1.4-.14-2.33.29-2.34,1S269.5,363.5,271.43,364Zm.67.64.06,2.57c1.55.16,2.53-.28,2.49-1S274.07,365.14,272.1,364.65Z" style="fill:#BA68C8"></path><path d="M342.82,304.92c-18.22,3.62-36.44-26.77-54.66-21.41a87.75,87.75,0,0,1,11.53-16c14.84,5.38,29.67,24.69,44.5,20.31Q343.52,296.4,342.82,304.92Z" style="fill:#BA68C8"></path><g style="opacity:0.1"><path d="M325.59,292.22c-.94,2.62-5,2.51-9.15-.47s-6.25-6.9-4.77-9,5.57-1.72,9.15.74S326.53,289.62,325.59,292.22Z"></path><path d="M307.24,279.47c-.38.48-1.53.38-2.57-.18s-1.56-1.39-1.14-1.9,1.56-.5,2.57.09S307.62,279,307.24,279.47Z"></path><path d="M334,295.77c-.14.68-1.1,1-2.14.56s-1.75-1.34-1.57-2,1.13-.78,2.14-.41S334.17,295.09,334,295.77Z"></path></g><g style="opacity:0.1"><path d="M301,268a88.8,88.8,0,0,0-11.23,15.08,16.42,16.42,0,0,0-1.65.39,87.75,87.75,0,0,1,11.53-16C300.14,267.67,300.59,267.85,301,268Z"></path><path d="M342.82,304.92a15.43,15.43,0,0,1-1.66.24q.84-8.46,1.68-17,.68-.13,1.35-.33Q343.52,296.4,342.82,304.92Z"></path><path d="M342.91,303.85l-.09,1.07c-18.22,3.62-36.44-26.77-54.66-21.41.24-.42.48-.84.72-1.24C306.89,277.89,324.9,307.53,342.91,303.85Z"></path><path d="M344.19,287.82l-.08,1.08c-15.05,4.35-30.1-15.61-45.14-20.59l.72-.8C314.53,272.88,329.36,292.2,344.19,287.82Z"></path><path d="M294.14,281.89a16.24,16.24,0,0,0-3.62.07c.52-.84,1-1.66,1.56-2.45C294,279.47,295,280.72,294.14,281.89Z"></path><path d="M341.51,301.74l-.24,2.36a16.86,16.86,0,0,1-3.62-.06C337.83,302.77,339.56,302,341.51,301.74Z"></path><path d="M339.71,289.51a16.35,16.35,0,0,0,3-.28c-.08.79-.16,1.58-.23,2.37C340.78,291.9,339.53,290.79,339.71,289.51Z"></path><path d="M298.77,270.57l1.56-1.77c1,.39,2,.85,3,1.35C302.54,271,300.49,271.11,298.77,270.57Z"></path></g><path d="M320.36,284.53c.17.12.27.3.22.4l-.14.29a10,10,0,0,1,2.14,2.12c.09.14.14.23.11.3s-.25.08-.44,0a.77.77,0,0,1-.22-.22,9,9,0,0,0-1.79-1.85l-1.05,2c2,1.71,2.71,2.72,2.38,3.46s-1.9.49-3.73-.78l-.29.56c-.05.1-.25.06-.45-.08s-.31-.32-.26-.42l.3-.56a12.29,12.29,0,0,1-2.86-3c-.08-.11-.11-.19-.07-.26s.27-.05.46.09a.8.8,0,0,1,.23.23,10.37,10.37,0,0,0,2.44,2.62c.36-.67.73-1.34,1.09-2-2-1.71-2.6-2.71-2.19-3.39s1.92-.37,3.56.74l.15-.27C320,284.39,320.18,284.42,320.36,284.53Zm-1.74,2.52,1-1.95c-1.31-.89-2.41-1.11-2.7-.61S317,285.57,318.62,287.05Zm.38.86-1,2c1.45,1,2.59,1.23,2.85.66S320.72,289.4,319,287.91Z" style="fill:#BA68C8"></path><path d="M412.46,258.67c-22.53-10.13-45,18.3-67.58,8.17q2.63-8,5.25-16.68c18.33,3.72,36.66-14.11,55-11.95C407.57,244.64,410,251.43,412.46,258.67Z" style="fill:#BA68C8"></path><g style="opacity:0.1"><path d="M386.76,250.62c.52,3.25-3.18,7.36-8.26,9.47s-9.09.72-8.95-2.79,3.82-7.58,8.25-9.41S386.23,247.33,386.76,250.62Z"></path><path d="M363.87,258.58c-.08.81-1.19,1.73-2.47,2s-2.24-.3-2.11-1.11,1.23-1.58,2.47-1.82S364,257.76,363.87,258.58Z"></path><path d="M397,247.46c.21.77-.66,1.53-2,1.79s-2.47-.06-2.64-.81.7-1.63,1.95-1.91S396.77,246.7,397,247.46Z"></path></g><g style="opacity:0.1"><path d="M351.8,250.44q-2.44,8.87-4.87,17.22c-.69-.24-1.37-.51-2.05-.82q2.63-8,5.25-16.68C350.69,250.27,351.24,250.36,351.8,250.44Z"></path><path d="M412.46,258.67c-.69-.31-1.37-.58-2-.82-2.32-7-4.64-13.52-7-19.78.55,0,1.11.07,1.66.14C407.57,244.64,410,251.43,412.46,258.67Z"></path><path d="M412,257.31c.16.45.31.9.46,1.36-22.52-10.13-45.05,18.3-67.57,8.17l.33-1C367.47,275.47,389.73,247.81,412,257.31Z"></path><path d="M405.12,238.21c.16.4.31.81.46,1.22-18.59-2.54-37.18,15.86-55.78,11.81l.33-1.08C368.46,253.89,386.79,236.05,405.12,238.21Z"></path><path d="M351.71,267.65a24.85,24.85,0,0,1-4.48-1c.23-.77.46-1.55.68-2.33C350.32,265,352,266.26,351.71,267.65Z"></path><path d="M409,253.69c.33.94.65,1.89,1,2.85a24.83,24.83,0,0,0-4.47-1C405,254.07,406.6,253,409,253.69Z"></path><path d="M400.15,239.24a31.11,31.11,0,0,1,3.74,0c.33.88.65,1.76,1,2.65C402.73,241.66,400.62,240.62,400.15,239.24Z"></path><path d="M350.82,254c.22-.81.45-1.63.67-2.45a27.66,27.66,0,0,0,3.73.28C354.91,253.24,352.94,254.38,350.82,254Z"></path></g><path d="M378,249.34c.21-.08.4,0,.41.1s0,.28,0,.42a7,7,0,0,1,3-.47c.16,0,.25,0,.26.14s-.18.34-.41.44a.54.54,0,0,1-.31,0,6.36,6.36,0,0,0-2.56.34l.19,2.94c2.64-.73,3.81-.58,3.92.43s-1.4,2.5-3.64,3.46c0,.27,0,.54.05.82s-.18.33-.42.43-.44.06-.45-.08,0-.55,0-.83a8.66,8.66,0,0,1-4.06.58c-.12,0-.19-.06-.19-.15s.21-.35.44-.44a.52.52,0,0,1,.32-.05A7.11,7.11,0,0,0,378,257c-.06-1-.11-2-.17-3-2.6.7-3.67.52-3.69-.55s1.43-2.47,3.45-3.32c0-.14,0-.27,0-.4S377.76,249.43,378,249.34Zm-.15,4.15-.15-2.87c-1.61.67-2.66,1.71-2.65,2.48S375.61,254.06,377.83,253.49Zm.8.33.18,2.9c1.79-.75,2.89-1.81,2.82-2.6S380.91,253.21,378.63,253.82Z" style="fill:#BA68C8"></path><path d="M425.86,333.7c-19.48-19.84-38.95,4.41-58.43-15.43,3.53-2,7.05-5.44,10.58-9.8,15.85,5.5,31.7-7.64,47.56,8.14Q425.71,325.15,425.86,333.7Z" style="fill:#BA68C8"></path><g style="opacity:0.1"><path d="M406.59,317.11c-.68,3.08-4.8,5.73-9.19,6.29s-6.95-1.85-5.7-5.09,5.36-6.27,9.19-6.65S407.26,314,406.59,317.11Z"></path><path d="M386.93,318.13a2.74,2.74,0,0,1-2.61,1.18c-1.12-.1-1.72-.79-1.36-1.45a3,3,0,0,1,2.62-1.07C386.65,316.83,387.26,317.41,386.93,318.13Z"></path><path d="M415.56,318.28c-.08.69-1,.92-2.16.64s-1.93-1-1.81-1.71,1.07-1.12,2.15-.82S415.64,317.58,415.56,318.28Z"></path></g><g style="opacity:0.1"><path d="M379.44,308.92a53.32,53.32,0,0,1-10.24,11q-.88-.78-1.77-1.68c3.52-2,7.05-5.44,10.57-9.8Q378.72,308.72,379.44,308.92Z"></path><path d="M425.86,333.7c-.59-.6-1.18-1.16-1.77-1.69l0-16.76c.48.43,1,.88,1.45,1.36Q425.71,325.15,425.86,333.7Z"></path><path d="M425.84,332.62c0,.36,0,.72,0,1.08-19.48-19.84-38.95,4.41-58.43-15.43l.67-.39C387.34,336.5,406.59,313,425.84,332.62Z"></path><path d="M425.56,316.6c0,.36,0,.72,0,1.08-16.08-16-32.16-2.28-48.24-8.39l.66-.82C393.86,314,409.71,300.83,425.56,316.6Z"></path><path d="M373.71,322.19a27.75,27.75,0,0,1-3.87-2.73c.48-.38,1-.78,1.43-1.21C373.35,319.76,374.44,321.29,373.71,322.19Z"></path><path d="M424.1,328.63V331a29.65,29.65,0,0,0-3.87-2.91C420.28,326.81,422,326.78,424.1,328.63Z"></path><path d="M420.89,313.8a31.65,31.65,0,0,1,3.23,2.5v2.34C422.28,317,420.83,315.06,420.89,313.8Z"></path><path d="M377.38,311.63c.47-.6.95-1.21,1.42-1.84a25.16,25.16,0,0,0,3.23.76C381.3,311.73,379.22,312.35,377.38,311.63Z"></path></g><path d="M400.54,313.09c.18,0,.31.08.27.21l-.12.4a4.44,4.44,0,0,1,2.36.51c.11.06.17.12.14.22s-.24.25-.44.27a.4.4,0,0,1-.24-.05,3.68,3.68,0,0,0-2-.48c-.28.94-.56,1.88-.83,2.83,2.17.09,3,.62,2.73,1.59s-1.85,1.91-3.8,2.17c-.08.26-.15.53-.23.79a.54.54,0,0,1-.45.28c-.2,0-.34-.07-.3-.2l.24-.8a5.49,5.49,0,0,1-3.17-.6c-.08-.05-.12-.1-.09-.19a.61.61,0,0,1,.47-.3.47.47,0,0,1,.25,0,4.41,4.41,0,0,0,2.7.59l.87-2.89c-2.13-.09-2.87-.54-2.53-1.56s1.87-2,3.62-2.17l.12-.39A.49.49,0,0,1,400.54,313.09ZM399.07,317c.28-.92.56-1.84.83-2.76a3.25,3.25,0,0,0-2.75,1.59C396.93,316.49,397.26,316.86,399.07,317Zm.48.55c-.27.93-.55,1.86-.82,2.8,1.55-.19,2.71-.86,2.92-1.62S401.42,317.61,399.55,317.51Z" style="fill:#BA68C8"></path><path d="M277.38,441c-20.14-8.31-40.28,9.88-60.42,1.57,2.08-4.55,4.16-9.38,6.24-14.43,16.39,2.76,32.78-8.41,49.16-4.93Q274.86,431.85,277.38,441Z" style="fill:#BA68C8"></path><g style="opacity:0.1"><path d="M255.15,432c.18,3-3.36,6.18-7.9,7.32s-7.89-.63-7.48-3.76,3.94-6.35,7.89-7.35S255,429,255.15,432Z"></path><path d="M234.73,436.09a2.6,2.6,0,0,1-2.34,1.52c-1.15.1-1.94-.44-1.76-1.14s1.22-1.33,2.33-1.44S234.87,435.37,234.73,436.09Z"></path><path d="M264.33,430.49c.12.7-.72,1.28-1.87,1.37s-2.15-.35-2.24-1,.75-1.36,1.86-1.46S264.2,429.8,264.33,430.49Z"></path></g><g style="opacity:0.1"><path d="M224.69,428.34c-2,5.17-3.93,10.15-5.9,14.89-.61-.21-1.22-.43-1.83-.68q3.12-6.82,6.24-14.43C223.7,428.21,224.19,428.28,224.69,428.34Z"></path><path d="M277.38,441c-.62-.25-1.23-.48-1.84-.68q-2.32-8.91-4.67-17.39c.5.08,1,.17,1.49.28Q274.86,431.85,277.38,441Z"></path><path d="M277.06,439.83c.1.39.21.77.31,1.15-20.13-8.31-40.27,9.88-60.41,1.57l.39-.87C237.26,449.57,257.16,431.89,277.06,439.83Z"></path><path d="M272.36,423.19c.11.36.21.72.32,1.09-16.62-3.72-33.25,7.82-49.87,4.79l.39-.95C239.59,430.88,256,419.71,272.36,423.19Z"></path><path d="M223.16,443.31a29.5,29.5,0,0,1-4-1c.28-.66.55-1.33.82-2C222.13,440.94,223.56,442.11,223.16,443.31Z"></path><path d="M274.6,436.72c.22.82.43,1.64.65,2.46a29.14,29.14,0,0,0-4-1C271,436.91,272.45,436.09,274.6,436.72Z"></path><path d="M267.82,423.6a31.8,31.8,0,0,1,3.35.38c.21.79.43,1.58.65,2.38C269.91,426,268.12,424.86,267.82,423.6Z"></path><path d="M223.5,431.45c.27-.71.54-1.42.82-2.14a31.11,31.11,0,0,0,3.33.26C227.26,430.81,225.4,431.76,223.5,431.45Z"></path></g><path d="M247.7,429.56c.19,0,.35,0,.34.15v.38a5.91,5.91,0,0,1,2.63,0c.14,0,.21.07.21.17s-.18.28-.39.33a.39.39,0,0,1-.26,0,5.07,5.07,0,0,0-2.23-.07l-.09,2.68c2.34-.27,3.33,0,3.34,1s-1.41,2-3.42,2.58l0,.74c0,.13-.18.27-.39.33s-.39,0-.38-.14l0-.75a7.19,7.19,0,0,1-3.54-.07c-.11,0-.16-.07-.16-.16s.21-.29.42-.34a.62.62,0,0,1,.28,0,5.84,5.84,0,0,0,3,.13l.11-2.74c-2.3.26-3.21,0-3.13-1s1.44-2,3.24-2.5l0-.37C247.34,429.76,247.51,429.61,247.7,429.56Zm-.47,3.73c0-.88.07-1.75.1-2.62-1.44.37-2.43,1.16-2.48,1.86S245.27,433.47,247.23,433.29Zm.66.41-.09,2.64c1.6-.41,2.64-1.21,2.64-1.93S249.9,433.49,247.89,433.7Z" style="fill:#BA68C8"></path><polygon points="211.01 432.45 142.94 432.4 150.47 421.47 205.86 421.49 211.01 432.45" style="fill:#BA68C8"></polygon><g style="opacity:0.1"><path d="M186.21,427.09c.11,2.05-4,3.71-9.07,3.7s-8.82-1.66-8.26-3.71,4.61-3.71,9.07-3.71S186.1,425,186.21,427.09Z"></path><path d="M163.21,426.84c-.17.47-1.37.85-2.67.85s-2.17-.39-1.95-.86,1.42-.85,2.67-.85S163.39,426.37,163.21,426.84Z"></path><path d="M196.56,426.86c.12.47-.84.85-2.14.85s-2.41-.39-2.49-.86.89-.85,2.14-.85S196.44,426.38,196.56,426.86Z"></path></g><g style="opacity:0.1"><polygon points="152.14 421.47 145 432.4 142.94 432.4 150.47 421.47 152.14 421.47"></polygon><polygon points="211.01 432.45 208.95 432.44 204.18 421.49 205.86 421.49 211.01 432.45"></polygon><polygon points="210.69 431.76 211.01 432.45 142.94 432.4 143.42 431.71 210.69 431.76"></polygon><polygon points="205.86 421.49 206.18 422.18 149.99 422.16 150.47 421.47 205.86 421.49"></polygon><path d="M150,431.71h-4.51l1-1.52C148.87,430.19,150.44,430.87,150,431.71Z"></path><path d="M208,430.23l.66,1.53h-4.51C203.84,430.91,205.56,430.23,208,430.23Z"></path><path d="M200.71,422.18h3.77l.67,1.52C203,423.7,201,423,200.71,422.18Z"></path><path d="M150.7,423.68l1-1.52h3.76C155,423,152.84,423.68,150.7,423.68Z"></path></g><path d="M177.94,424.28c.22,0,.39.07.38.16l0,.25a11.65,11.65,0,0,1,2.94.45c.15.05.24.09.23.15s-.2.16-.44.16a.82.82,0,0,1-.3-.05,9.75,9.75,0,0,0-2.49-.41l-.18,1.79c2.62.2,3.72.57,3.71,1.2s-1.65,1.15-3.91,1.18l-.05.5c0,.08-.22.15-.46.15s-.43-.07-.42-.15l.06-.51a13.65,13.65,0,0,1-4-.62c-.12,0-.18-.08-.17-.14s.25-.16.48-.16a.83.83,0,0,1,.31,0,11.27,11.27,0,0,0,3.41.58l.21-1.82c-2.58-.21-3.59-.56-3.48-1.2s1.68-1.14,3.71-1.16l0-.24C177.54,424.35,177.73,424.28,177.94,424.28Zm-.64,2.43.2-1.74c-1.62,0-2.76.38-2.83.84S175.1,426.51,177.3,426.71Zm.73.39-.18,1.77c1.8,0,3-.38,3-.87S180.28,427.29,178,427.1Z" style="fill:#BA68C8"></path><polygon points="211.01 439.73 142.94 439.73 142.94 432.4 211.01 432.45 211.01 439.73" style="fill:#BA68C8"></polygon><polygon points="211.01 439.73 142.94 439.73 142.94 432.4 211.01 432.45 211.01 439.73" style="opacity:0.2"></polygon><rect x="168.79" y="432.41" width="16.38" height="7.32" style="fill:#ebebeb"></rect><polygon points="168.79 432.41 185.17 432.41 183.1 421.47 171.92 421.47 168.79 432.41" style="fill:#ebebeb"></polygon><polygon points="214.9 422.9 146.83 422.84 154.35 411.92 209.75 411.94 214.9 422.9" style="fill:#BA68C8"></polygon><g style="opacity:0.1"><path d="M190.1,417.54c.11,2-3.95,3.71-9.07,3.7s-8.82-1.66-8.27-3.71,4.62-3.71,9.07-3.71S190,415.49,190.1,417.54Z"></path><path d="M167.1,417.29c-.18.47-1.37.85-2.67.85s-2.17-.39-2-.86,1.41-.85,2.67-.85S167.28,416.81,167.1,417.29Z"></path><path d="M200.45,417.3c.11.47-.84.86-2.14.86s-2.41-.39-2.49-.86.88-.85,2.14-.85S200.33,416.83,200.45,417.3Z"></path></g><g style="opacity:0.1"><polygon points="156.03 411.92 148.89 422.85 146.83 422.84 154.35 411.92 156.03 411.92"></polygon><polygon points="214.9 422.9 212.83 422.89 208.07 411.94 209.75 411.94 214.9 422.9"></polygon><polygon points="214.57 422.21 214.89 422.89 146.83 422.84 147.3 422.16 214.57 422.21"></polygon><polygon points="209.75 411.94 210.07 412.63 153.88 412.61 154.35 411.92 209.75 411.94"></polygon><path d="M153.84,422.16h-4.5l1-1.52C152.76,420.64,154.33,421.32,153.84,422.16Z"></path><path d="M211.87,420.68l.66,1.53H208C207.73,421.36,209.45,420.68,211.87,420.68Z"></path><path d="M204.6,412.63h3.77l.66,1.52C206.88,414.15,204.9,413.47,204.6,412.63Z"></path><path d="M154.59,414.13l1-1.52h3.76C158.86,413.45,156.73,414.13,154.59,414.13Z"></path></g><path d="M181.83,414.73c.21,0,.39.07.38.16l0,.25a11.23,11.23,0,0,1,2.95.45c.15.05.23.08.23.15s-.21.16-.45.16a.86.86,0,0,1-.3,0,9.27,9.27,0,0,0-2.49-.41l-.18,1.79c2.63.2,3.73.57,3.71,1.2s-1.64,1.15-3.91,1.18l-.05.5c0,.08-.21.15-.45.15s-.43-.07-.42-.15l.05-.51a13.92,13.92,0,0,1-4-.62c-.12,0-.19-.08-.17-.14s.24-.16.47-.16a.83.83,0,0,1,.31.05,11.39,11.39,0,0,0,3.41.58l.21-1.82c-2.58-.21-3.59-.57-3.47-1.21s1.67-1.13,3.71-1.15l0-.25C181.42,414.8,181.61,414.73,181.83,414.73Zm-.64,2.43.2-1.74c-1.63,0-2.76.38-2.84.84S179,417,181.19,417.16Zm.72.39-.18,1.77c1.81,0,3-.38,3-.87S184.17,417.74,181.91,417.55Z" style="fill:#BA68C8"></path><polygon points="214.89 430.18 146.83 430.18 146.83 422.85 214.9 422.9 214.89 430.18" style="fill:#BA68C8"></polygon><polygon points="214.89 430.18 146.83 430.18 146.83 422.85 214.9 422.9 214.89 430.18" style="opacity:0.2"></polygon><rect x="172.67" y="422.86" width="16.38" height="7.32" style="fill:#ebebeb"></rect><polygon points="172.67 422.86 189.05 422.86 186.99 411.92 175.8 411.92 172.67 422.86" style="fill:#ebebeb"></polygon><polygon points="214 413.77 145.93 413.72 153.46 402.79 208.85 402.81 214 413.77" style="fill:#BA68C8"></polygon><g style="opacity:0.1"><path d="M189.2,408.41c.11,2-3.95,3.71-9.07,3.71s-8.82-1.67-8.26-3.72,4.61-3.71,9.06-3.71S189.09,406.36,189.2,408.41Z"></path><path d="M166.2,408.16c-.18.47-1.37.85-2.67.85s-2.17-.38-1.95-.86,1.42-.85,2.67-.85S166.38,407.69,166.2,408.16Z"></path><path d="M199.55,408.18c.12.47-.84.85-2.14.85s-2.41-.39-2.49-.86.88-.85,2.14-.85S199.43,407.7,199.55,408.18Z"></path></g><g style="opacity:0.1"><polygon points="155.13 402.79 147.99 413.72 145.93 413.72 153.45 402.79 155.13 402.79"></polygon><polygon points="214 413.77 211.94 413.77 207.17 402.81 208.85 402.81 214 413.77"></polygon><polygon points="213.68 413.08 214 413.77 145.93 413.72 146.41 413.03 213.68 413.08"></polygon><polygon points="208.85 402.81 209.17 403.5 152.98 403.48 153.45 402.79 208.85 402.81"></polygon><path d="M153,413h-4.51l1-1.52C151.86,411.51,153.43,412.19,153,413Z"></path><path d="M211,411.55l.66,1.53h-4.51C206.83,412.23,208.55,411.55,211,411.55Z"></path><path d="M203.7,403.5h3.77l.66,1.52C206,405,204,404.34,203.7,403.5Z"></path><path d="M153.69,405l1-1.52h3.76C158,404.32,155.83,405,153.69,405Z"></path></g><path d="M180.93,405.6c.22,0,.39.07.38.16l0,.25a11.65,11.65,0,0,1,2.94.45c.15.05.23.09.23.15s-.21.16-.44.16a1.08,1.08,0,0,1-.3,0,9.84,9.84,0,0,0-2.5-.42l-.17,1.79c2.62.21,3.72.57,3.71,1.2s-1.65,1.16-3.91,1.18l0,.5c0,.08-.22.15-.46.15s-.43-.07-.42-.15l.06-.51a13.65,13.65,0,0,1-4-.62c-.12,0-.18-.08-.17-.14s.24-.16.48-.15a.9.9,0,0,1,.31,0,11.27,11.27,0,0,0,3.41.58l.2-1.82c-2.57-.21-3.58-.56-3.47-1.2s1.68-1.14,3.71-1.16l0-.24C180.53,405.67,180.72,405.6,180.93,405.6Zm-.64,2.43.2-1.74c-1.63,0-2.76.38-2.84.84S178.09,407.84,180.29,408Zm.72.4-.17,1.76c1.8,0,3-.38,3-.87S183.27,408.61,181,408.43Z" style="fill:#BA68C8"></path><polygon points="214 421.05 145.93 421.05 145.93 413.72 214 413.77 214 421.05" style="fill:#BA68C8"></polygon><polygon points="214 421.05 145.93 421.05 145.93 413.72 214 413.77 214 421.05" style="opacity:0.2"></polygon><rect x="171.78" y="413.73" width="16.38" height="7.32" style="fill:#ebebeb"></rect><polygon points="171.78 413.73 188.16 413.73 186.09 402.79 174.91 402.79 171.78 413.73" style="fill:#ebebeb"></polygon><polygon points="174.19 445.08 106.12 445.03 113.64 434.1 169.04 434.12 174.19 445.08" style="fill:#BA68C8"></polygon><g style="opacity:0.1"><path d="M149.39,439.72c.11,2-3.95,3.71-9.07,3.7s-8.82-1.66-8.27-3.71,4.62-3.71,9.07-3.71S149.28,437.67,149.39,439.72Z"></path><path d="M126.39,439.47c-.18.47-1.37.85-2.67.85s-2.17-.39-2-.86,1.41-.85,2.67-.85S126.57,439,126.39,439.47Z"></path><path d="M159.74,439.49c.11.47-.84.85-2.14.85s-2.41-.39-2.49-.86.88-.85,2.14-.85S159.62,439,159.74,439.49Z"></path></g><g style="opacity:0.1"><polygon points="115.32 434.1 108.18 445.03 106.12 445.03 113.64 434.1 115.32 434.1"></polygon><polygon points="174.19 445.08 172.12 445.08 167.36 434.12 169.04 434.12 174.19 445.08"></polygon><polygon points="173.86 444.39 174.19 445.08 106.12 445.03 106.59 444.34 173.86 444.39"></polygon><polygon points="169.03 434.12 169.36 434.81 113.17 434.79 113.64 434.1 169.03 434.12"></polygon><path d="M113.13,444.34h-4.5l1-1.52C112.05,442.82,113.62,443.5,113.13,444.34Z"></path><path d="M171.16,442.86l.66,1.53h-4.5C167,443.54,168.74,442.86,171.16,442.86Z"></path><path d="M163.89,434.81h3.77l.66,1.52C166.17,436.33,164.19,435.65,163.89,434.81Z"></path><path d="M113.88,436.31l1-1.52h3.76C118.15,435.63,116,436.31,113.88,436.31Z"></path></g><path d="M141.12,436.91c.21,0,.39.07.38.16l0,.25a11.66,11.66,0,0,1,2.95.45c.15.05.23.09.23.15s-.21.16-.45.16a.86.86,0,0,1-.3-.05,9.68,9.68,0,0,0-2.49-.41l-.18,1.79c2.63.2,3.73.57,3.71,1.2s-1.64,1.15-3.91,1.18l-.05.5c0,.08-.21.15-.45.15s-.43-.07-.42-.15l0-.51a13.58,13.58,0,0,1-3.95-.62c-.12,0-.19-.08-.17-.14s.24-.16.47-.16a.83.83,0,0,1,.31.05,11.39,11.39,0,0,0,3.41.58l.21-1.82c-2.58-.21-3.59-.56-3.47-1.2s1.67-1.14,3.71-1.16l0-.24C140.71,437,140.9,436.91,141.12,436.91Zm-.64,2.43.2-1.74c-1.63,0-2.76.38-2.84.84S138.28,439.14,140.48,439.34Zm.72.4L141,441.5c1.81,0,3-.38,3-.87S143.46,439.92,141.2,439.74Z" style="fill:#BA68C8"></path><polygon points="174.19 452.36 106.12 452.36 106.12 445.03 174.19 445.08 174.19 452.36" style="fill:#BA68C8"></polygon><polygon points="174.19 452.36 106.12 452.36 106.12 445.03 174.19 445.08 174.19 452.36" style="opacity:0.2"></polygon><rect x="131.96" y="445.04" width="16.38" height="7.32" style="fill:#ebebeb"></rect><polygon points="131.96 445.04 148.34 445.04 146.28 434.1 135.09 434.1 131.96 445.04" style="fill:#ebebeb"></polygon></g><g id="freepik--Sparkles--inject-232"><polygon points="311.31 348.02 305.57 349.09 304.29 355.14 303.01 349.09 297.27 348.02 302.99 346.63 304.29 340.91 305.6 346.63 311.31 348.02" style="fill:#BA68C8"></polygon><polygon points="267.96 98.68 262.22 99.74 260.94 105.79 259.65 99.74 253.91 98.67 259.63 97.28 260.94 91.56 262.25 97.28 267.96 98.68" style="fill:#BA68C8"></polygon><polygon points="102.98 291.44 97.25 292.5 95.96 298.55 94.68 292.5 88.94 291.44 94.66 290.04 95.96 284.33 97.27 290.04 102.98 291.44" style="fill:#BA68C8"></polygon><polygon points="297.39 291.09 291.65 292.15 290.36 298.21 289.08 292.15 283.34 291.09 289.06 289.69 290.36 283.98 291.67 289.69 297.39 291.09" style="fill:#BA68C8"></polygon><polygon points="395.44 226.28 392.23 226.88 391.51 230.26 390.79 226.88 387.59 226.28 390.78 225.5 391.51 222.31 392.24 225.5 395.44 226.28" style="fill:#BA68C8"></polygon><polygon points="81.13 207.49 77.92 208.09 77.2 211.47 76.49 208.09 73.28 207.49 76.47 206.71 77.2 203.52 77.94 206.71 81.13 207.49" style="fill:#BA68C8"></polygon><polygon points="309.9 115.07 306.69 115.67 305.98 119.05 305.26 115.67 302.05 115.07 305.24 114.29 305.98 111.1 306.71 114.29 309.9 115.07" style="fill:#BA68C8"></polygon><polygon points="376.92 287.12 373.72 287.71 373 291.09 372.28 287.71 369.07 287.12 372.27 286.33 373 283.14 373.73 286.33 376.92 287.12" style="fill:#BA68C8"></polygon><polygon points="428.06 309.79 424.86 310.38 424.14 313.76 423.42 310.38 420.21 309.79 423.41 309.01 424.14 305.81 424.87 309.01 428.06 309.79" style="fill:#BA68C8"></polygon><polygon points="338.47 158.92 335.26 159.51 334.54 162.89 333.83 159.51 330.62 158.91 333.81 158.13 334.54 154.94 335.27 158.13 338.47 158.92" style="fill:#BA68C8"></polygon><polygon points="246.3 166.34 243.09 166.94 242.37 170.32 241.65 166.94 238.44 166.34 241.64 165.56 242.37 162.37 243.1 165.56 246.3 166.34" style="fill:#BA68C8"></polygon><polygon points="129.42 142.84 126.21 143.44 125.49 146.82 124.78 143.44 121.57 142.84 124.76 142.06 125.49 138.87 126.22 142.06 129.42 142.84" style="fill:#BA68C8"></polygon><polygon points="178.6 312.58 175.4 313.17 174.68 316.56 173.96 313.17 170.75 312.58 173.95 311.8 174.68 308.6 175.41 311.8 178.6 312.58" style="fill:#BA68C8"></polygon><path d="M317.89,300.35a.93.93,0,0,0,0,1.86A.93.93,0,0,0,317.89,300.35Z" style="fill:#BA68C8"></path><path d="M331.92,176a.93.93,0,0,0,0,1.86A.93.93,0,0,0,331.92,176Z" style="fill:#BA68C8"></path><path d="M203.08,107.76a.93.93,0,0,0,0,1.85A.93.93,0,0,0,203.08,107.76Z" style="fill:#BA68C8"></path><path d="M117.06,157.06a.93.93,0,0,0,0,1.86A.93.93,0,0,0,117.06,157.06Z" style="fill:#BA68C8"></path><path d="M121,260a.93.93,0,0,0,0,1.86A.93.93,0,0,0,121,260Z" style="fill:#BA68C8"></path><path d="M87.75,249.73a.66.66,0,0,0,0,1.32A.66.66,0,0,0,87.75,249.73Z" style="fill:#BA68C8"></path><path d="M230.11,133.48a.66.66,0,0,0,0,1.32A.66.66,0,0,0,230.11,133.48Z" style="fill:#BA68C8"></path><path d="M237.59,202.3a.66.66,0,0,0,0,1.31A.66.66,0,0,0,237.59,202.3Z" style="fill:#BA68C8"></path><path d="M154.17,332.8a.66.66,0,0,0,0,1.32A.66.66,0,0,0,154.17,332.8Z" style="fill:#BA68C8"></path><path d="M258.15,320.56a1.79,1.79,0,0,0,0,3.57A1.79,1.79,0,0,0,258.15,320.56Z" style="fill:#BA68C8"></path><path d="M425.86,194.7a1.78,1.78,0,0,0,0,3.56A1.78,1.78,0,0,0,425.86,194.7Z" style="fill:#BA68C8"></path><path d="M279.79,86.1a1.78,1.78,0,0,0,0,3.56A1.78,1.78,0,0,0,279.79,86.1Z" style="fill:#BA68C8"></path><path d="M256.42,157.14a1.79,1.79,0,0,0,0,3.57A1.79,1.79,0,0,0,256.42,157.14Z" style="fill:#BA68C8"></path><path d="M211.63,333.91a1.79,1.79,0,0,0,0,3.57A1.79,1.79,0,0,0,211.63,333.91Z" style="fill:#BA68C8"></path></g></svg>