<svg xmlns="http://www.w3.org/2000/svg" viewBox="0 0 500 500"><g id="freepik--background-complete--inject-474"><path d="M77.14,168.27a35,35,0,1,1,45,20.59A35,35,0,0,1,77.14,168.27Z" style="fill:#ebebeb"></path><path d="M128.14,158.36c-4,11.19-15.76,18.93-15.76,18.93s-13.21-4.82-19.69-14.79c-5.4-8.31-3.74-18.17,2.91-21.06,9.53-4.15,14.08,12.77,14.08,12.77s.53-17.51,10.77-15.68C127.59,139.81,131.47,149,128.14,158.36Z" style="fill:#fff"></path><path d="M405.86,302.33a35,35,0,1,1,18.78-36.54A34.71,34.71,0,0,1,405.86,302.33Z" style="fill:#ebebeb"></path><path d="M401,268.06a10.64,10.64,0,1,1-9.69-11.51A10.64,10.64,0,0,1,401,268.06Z" style="fill:#fff"></path><path d="M406.23,298l-.37,4.37a34.9,34.9,0,0,1-36.63-3.16l.37-4.35A18.38,18.38,0,1,1,406.23,298Z" style="fill:#fff"></path><circle cx="321.8" cy="95.2" r="38.4" transform="translate(-7.95 157.53) rotate(-27.18)" style="fill:#ebebeb"></circle><g id="freepik--xsrjP0--inject-474"><path d="M316.56,110.48c-1-.64-1.9-1.57-3.26-1.44-.52,0-.41-.38-.41-.66,0-5.12,0-10.23,0-15.35,0-.37,0-.67.43-.88,3.91-2,5.6-5.84,8-9.16a15.29,15.29,0,0,0,2.84-11.6c-.17-1.15.37-1.67,1.41-1.9a2.57,2.57,0,0,1,2.92.91,20.82,20.82,0,0,1,2.23,6.71c.22,1.94-.47,3.83-.71,5.74-.18,1.41-.51,2.8-.78,4.22.35.25.74.12,1.11.12h13c1.82,0,2.71.52,3,1.73a3.46,3.46,0,0,1-1.88,3.75c-.32.16-.91,0-.95.52s.57.46.86.67c1.57,1.07,1.28,3.29-.53,4.56-.44.31-1.28.17-1.3.81s.78.5,1.13.86c1.27,1.25.64,3.58-1.25,4.52a6.28,6.28,0,0,0-.76.29c-.21.15-.42.31,0,.6,1.87,1.34,1.83,3.2-.06,4.56l-.56.4a3.66,3.66,0,0,1-2.28.5q-10.16,0-20.32,0A2.45,2.45,0,0,1,316.56,110.48Z" style="fill:#fff;fill-rule:evenodd"></path><path d="M297.29,101.46c0-3.25,0-6.51,0-9.75,0-.66.07-1,.88-1q5.94.08,11.89,0c.77,0,.89.26.89,1q0,9.81,0,19.62c0,.84-.22,1.07-1.05,1.06-3.85,0-7.69,0-11.54,0-1,0-1.08-.32-1.07-1.16C297.32,108,297.29,104.71,297.29,101.46Z" style="fill:#fff;fill-rule:evenodd"></path></g></g><g id="freepik--Letter--inject-474"><polygon points="170.81 273.16 97.82 304.25 71.52 242.51 98.14 203.8 144.51 211.42 170.81 273.16" style="fill:#BA68C8"></polygon><polygon points="170.81 273.16 97.82 304.25 71.52 242.51 98.14 203.8 144.51 211.42 170.81 273.16" style="opacity:0.2"></polygon><polygon points="166.44 274.31 101.68 301.89 67.13 220.78 115.21 200.29 138.63 209.03 166.44 274.31" style="fill:#ebebeb"></polygon><polygon points="115.21 200.29 138.63 209.03 121.95 216.13 115.21 200.29" style="fill:#dbdbdb"></polygon><rect x="78.27" y="224.27" width="39.13" height="2.32" transform="translate(276.2 394.48) rotate(156.93)" style="fill:#dbdbdb"></rect><rect x="80.57" y="229.66" width="39.13" height="2.32" transform="translate(282.72 403.93) rotate(156.93)" style="fill:#dbdbdb"></rect><rect x="82.86" y="235.04" width="39.13" height="2.32" transform="translate(289.24 413.37) rotate(156.93)" style="fill:#dbdbdb"></rect><rect x="84.43" y="236.87" width="57.34" height="2.32" transform="translate(310.43 412.69) rotate(156.93)" style="fill:#dbdbdb"></rect><rect x="86.73" y="242.25" width="57.34" height="2.32" transform="translate(316.95 422.13) rotate(156.93)" style="fill:#dbdbdb"></rect><rect x="89.02" y="247.64" width="57.34" height="2.32" transform="translate(323.47 431.58) rotate(156.93)" style="fill:#dbdbdb"></rect><rect x="91.32" y="253.03" width="57.34" height="2.32" transform="translate(329.99 441.02) rotate(156.93)" style="fill:#dbdbdb"></rect><rect x="93.61" y="258.42" width="57.34" height="2.32" transform="translate(336.51 450.47) rotate(156.93)" style="fill:#dbdbdb"></rect><rect x="95.91" y="263.8" width="57.34" height="2.32" transform="translate(343.02 459.91) rotate(156.93)" style="fill:#dbdbdb"></rect><rect x="98.2" y="269.19" width="57.34" height="2.32" transform="translate(349.54 469.36) rotate(156.93)" style="fill:#dbdbdb"></rect><rect x="100.5" y="274.58" width="57.34" height="2.32" transform="translate(356.06 478.8) rotate(156.93)" style="fill:#dbdbdb"></rect><rect x="102.79" y="279.97" width="57.34" height="2.32" transform="translate(362.58 488.24) rotate(156.93)" style="fill:#dbdbdb"></rect><path d="M151.09,226.88l19.72,46.28-73,31.09L78.11,258c3.89.44,7.76,1,11.64,1.49s7.76,1.07,11.63,1.65q6.47.93,13,2l.08-.12s0,.08-.06.12l9.7,1.52c1.87-2.68,3.73-5.38,5.61-8.05,0,0-.07,0-.12,0h.14q3.75-5.37,7.55-10.7,3.41-4.77,6.86-9.51C146.43,233.16,148.71,230,151.09,226.88Z" style="fill:#BA68C8"></path><g style="opacity:0.2"><path d="M151.09,226.88c-2.06,3.32-4.22,6.59-6.32,9.89s-4.3,6.54-6.47,9.8-4.56,6.79-6.85,10.16l-.2.32L125.12,266l-.31.43-.51-.08c-3.57-.59-7.12-1.19-10.68-1.8l-.38-.06c-4-.68-8-1.37-12.08-2.1-3.84-.68-7.69-1.4-11.54-2.12s-7.68-1.48-11.51-2.29c3.89.44,7.76,1,11.64,1.49s7.76,1.07,11.63,1.65q6.47.93,13,2h0l9.7,1.52c1.87-2.68,3.73-5.38,5.61-8.05l0,0q3.75-5.37,7.55-10.7,3.41-4.77,6.86-9.51C146.43,233.16,148.71,230,151.09,226.88Z"></path><path d="M114.41,263s0,.08-.06.12c-.24.49-.48,1-.73,1.46-1.17,2.33-2.42,4.61-3.71,6.85-1.57,2.77-3.23,5.48-4.9,8.19s-3.4,5.35-5.2,8-3.62,5.23-5.59,7.74c1.38-2.88,2.92-5.67,4.49-8.43s3.23-5.48,4.89-8.18,3.41-5.36,5.21-8c1.42-2.1,2.89-4.19,4.43-6.22.36-.47.72-.94,1.09-1.4Z"></path><path d="M166.85,264.36c-3.18-.32-6.33-.8-9.46-1.33s-6.25-1.15-9.37-1.77-6.21-1.36-9.29-2.14c-2.51-.63-5-1.3-7.48-2.07l-1.59-.5s-.07,0-.12,0h.14c.6.07,1.18.13,1.77.21,2.53.29,5,.68,7.55,1.1,3.14.53,6.25,1.15,9.36,1.79s6.21,1.36,9.29,2.14S163.81,263.36,166.85,264.36Z"></path></g></g><g id="freepik--Megaphone--inject-474"><polygon points="329.66 198.78 340.63 194.46 328.11 162.67 314.22 168.14 329.66 198.78" style="fill:#BA68C8"></polygon><polygon points="314.22 168.14 320.11 179.83 329.66 198.78 340.64 194.46 328.11 162.67 314.22 168.14" style="fill:#BA68C8"></polygon><polygon points="314.22 168.14 320.11 179.83 332.89 174.79 328.11 162.67 314.22 168.14" style="opacity:0.1"></polygon><rect x="311.55" y="156.32" width="18.57" height="14.11" transform="translate(679.22 197.77) rotate(158.49)" style="fill:#BA68C8"></rect><polygon points="296.14 159.98 310.1 156.03 301.73 134.79 288.83 141.42 296.14 159.98" style="fill:#BA68C8"></polygon><polygon points="306.98 127.86 319.33 159.21 342.92 153.03 402.88 151.67 373.21 76.38 328.44 116.29 306.98 127.86" style="fill:#BA68C8"></polygon><ellipse cx="389.27" cy="113.54" rx="13.07" ry="40.66" transform="translate(-14.52 150.61) rotate(-21.51)" style="fill:#BA68C8"></ellipse><ellipse cx="389.64" cy="112.65" rx="10.7" ry="36.1" transform="translate(-14.17 150.68) rotate(-21.51)" style="opacity:0.2"></ellipse><path d="M381.31,115.93c1,2.47,2,4.85,3.07,7.1a8.06,8.06,0,0,0,9.94-10.66l-1.4-3.55a8.06,8.06,0,0,0-14.5-1.07C379.24,110.41,380.21,113.15,381.31,115.93Z" style="fill:#BA68C8"></path><polygon points="307.86 165.74 334.84 158.1 318.66 117.02 293.72 129.84 307.86 165.74" style="fill:#BA68C8"></polygon><polygon points="307.86 165.74 334.84 158.1 318.66 117.02 293.72 129.84 307.86 165.74" style="opacity:0.2"></polygon><path d="M371.72,82.93a25.24,25.24,0,0,0-1,9A57.62,57.62,0,0,0,371.8,101c.26,1.51.66,3,1,4.47s.81,2.94,1.27,4.39.92,2.91,1.45,4.34,1,2.87,1.6,4.29a100.56,100.56,0,0,0,8.16,16.35,52.33,52.33,0,0,0,5.54,7.28,21.56,21.56,0,0,0,7.29,5.43,22.38,22.38,0,0,1-7-5.71,52.56,52.56,0,0,1-5.29-7.36,105.48,105.48,0,0,1-7.92-16.32,109.58,109.58,0,0,1-5.49-17.29,57.79,57.79,0,0,1-1.34-9A26,26,0,0,1,371.72,82.93Z" style="opacity:0.2"></path><path d="M399.32,76.34c-1.14,1.36-2.22,2.77-3.28,4.18s-2.09,2.86-3.11,4.31-2,2.92-3,4.41l-1.43,2.25c-.45.76-.92,1.51-1.35,2.29.58-.68,1.11-1.38,1.67-2.07l1.61-2.12c1.08-1.41,2.1-2.85,3.11-4.3s2-2.92,3-4.42S398.45,77.89,399.32,76.34Z" style="fill:#263238"></path><path d="M400,129.09c2,.11,4,.13,6,.14s4,0,6-.08,4-.14,6-.27l3-.2c1-.09,2-.16,3-.28-1-.06-2-.07-3-.11l-3,0c-2,0-4,0-6,.08s-4,.14-6,.27S402,128.87,400,129.09Z" style="fill:#263238"></path><path d="M434.64,114.93c-2.92.36-5.82.81-8.72,1.26s-5.8,1-8.69,1.48-5.77,1.06-8.65,1.65l-4.31.89c-1.43.33-2.87.63-4.3,1,1.46-.17,2.91-.39,4.37-.59l4.35-.67c2.9-.45,5.8-1,8.69-1.47s5.77-1.07,8.65-1.66S431.78,115.62,434.64,114.93Z" style="fill:#263238"></path><path d="M415.5,73.64c-2.13,2.08-4.21,4.22-6.27,6.37s-4.09,4.32-6.11,6.51-4,4.39-6,6.63l-2.94,3.37c-1,1.14-1.94,2.26-2.88,3.42,1.08-1,2.11-2.11,3.17-3.16l3.1-3.21c2.07-2.14,4.1-4.32,6.12-6.51s4-4.4,6-6.64S413.61,75.94,415.5,73.64Z" style="fill:#263238"></path><path d="M396.56,110.33c3.25-1.14,6.46-2.36,9.67-3.59s6.39-2.53,9.59-3.8,6.36-2.61,9.52-4l4.74-2c1.57-.7,3.14-1.39,4.7-2.12-1.62.56-3.23,1.17-4.85,1.76l-4.82,1.84c-3.21,1.23-6.39,2.53-9.59,3.79s-6.36,2.61-9.52,4S399.68,108.89,396.56,110.33Z" style="fill:#263238"></path></g><g id="freepik--Button--inject-474"><rect x="65.22" y="310" width="369.56" height="101.5" style="fill:#BA68C8"></rect><polygon points="434.78 411.5 65.22 411.5 69.22 416.42 430.78 416.42 434.78 411.5" style="fill:#BA68C8"></polygon><polygon points="434.78 411.5 65.22 411.5 69.22 416.42 430.78 416.42 434.78 411.5" style="opacity:0.1"></polygon><path d="M103.65,369.42a2.31,2.31,0,0,1,3.24-.31c2,1.59,5.32,3.46,8.47,3.41a9.54,9.54,0,0,0,5.55-1.64,4,4,0,0,0,1.9-3.19,2.49,2.49,0,0,0-.4-1.42,4,4,0,0,0-1.33-1.33,17.6,17.6,0,0,0-6.07-2.09h-.09a23.8,23.8,0,0,1-5.72-1.73,9.58,9.58,0,0,1-4.13-3.46,6.83,6.83,0,0,1-1-3.64,8.19,8.19,0,0,1,3.55-6.47,13.09,13.09,0,0,1,7.67-2.35c4.26,0,7.41,2.08,9.67,3.55a2.28,2.28,0,0,1,.62,3.15,2.24,2.24,0,0,1-3.15.66c-2.26-1.51-4.43-2.84-7.14-2.84a8.42,8.42,0,0,0-5,1.51,3.53,3.53,0,0,0-1.69,2.79,2.19,2.19,0,0,0,.31,1.25,4.29,4.29,0,0,0,1.2,1.15,15.18,15.18,0,0,0,5.54,1.95h.09a26.5,26.5,0,0,1,6.12,1.86,10.41,10.41,0,0,1,4.44,3.69,7.21,7.21,0,0,1,1.06,3.77,8.57,8.57,0,0,1-3.81,6.87,13.85,13.85,0,0,1-8.21,2.53c-4.79,0-8.82-2.44-11.35-4.44A2.35,2.35,0,0,1,103.65,369.42Z" style="fill:#fff"></path><path d="M142.5,377.13a9.27,9.27,0,0,1-9.22-9.22v-10.6a2.39,2.39,0,0,1,2.35-2.35,2.37,2.37,0,0,1,2.35,2.35v10.6a4.48,4.48,0,0,0,4.52,4.52,4.59,4.59,0,0,0,4.66-4.52v-10.6a2.33,2.33,0,0,1,2.31-2.35,2.46,2.46,0,0,1,2.39,2.35v10.6A9.36,9.36,0,0,1,142.5,377.13Z" style="fill:#fff"></path><path d="M160.91,366.09V348.48a2.42,2.42,0,0,1,4.83,0v8.34a10.52,10.52,0,0,1,5.95-1.86,11.09,11.09,0,1,1-6,20.27,2.4,2.4,0,0,1-4.74-.49Zm4.83,0a6.23,6.23,0,0,0,1.78,4.39,5.65,5.65,0,0,0,4.17,1.82,5.77,5.77,0,0,0,4.17-1.82,6.27,6.27,0,0,0,1.77-4.39,6.34,6.34,0,0,0-1.77-4.48,5.77,5.77,0,0,0-4.17-1.82,5.65,5.65,0,0,0-4.17,1.82A6.31,6.31,0,0,0,165.74,366.09Z" style="fill:#fff"></path><path d="M189.11,370.79a2.31,2.31,0,0,1,3.33-.35,8.2,8.2,0,0,0,4.88,1.95,6,6,0,0,0,3-.84,1.82,1.82,0,0,0,.79-1.34.64.64,0,0,0-.13-.44c0-.13-.22-.31-.58-.53a10.34,10.34,0,0,0-3.54-1.24h0a17,17,0,0,1-3.86-1.16,7.33,7.33,0,0,1-3.06-2.57,5.34,5.34,0,0,1-.75-2.79,6.24,6.24,0,0,1,2.61-4.88,9.53,9.53,0,0,1,5.46-1.64,11.37,11.37,0,0,1,6.65,2.44,2.44,2.44,0,0,1,.71,3.28,2.35,2.35,0,0,1-3.28.62,7.61,7.61,0,0,0-4.08-1.64,4.47,4.47,0,0,0-2.66.8c-.58.4-.71.79-.71,1a.47.47,0,0,0,.09.35,1.19,1.19,0,0,0,.49.45,9.28,9.28,0,0,0,3.23,1.06l.05,0h0a16.16,16.16,0,0,1,4.13,1.29,6.92,6.92,0,0,1,3.15,2.62,5.72,5.72,0,0,1,.84,2.92,6.41,6.41,0,0,1-2.79,5.15,10.11,10.11,0,0,1-5.77,1.77,12.88,12.88,0,0,1-7.9-3.06A2.37,2.37,0,0,1,189.11,370.79Z" style="fill:#fff"></path><path d="M210.44,366.09A11.28,11.28,0,0,1,221.71,355a11.63,11.63,0,0,1,7,2.44,2.43,2.43,0,0,1,.49,3.28,2.36,2.36,0,0,1-3.32.44,7.13,7.13,0,0,0-4.22-1.42,6.37,6.37,0,1,0,0,12.73,7.16,7.16,0,0,0,4.22-1.42,2.42,2.42,0,0,1,3.32.49,2.45,2.45,0,0,1-.49,3.28,12.16,12.16,0,0,1-7,2.35A11.24,11.24,0,0,1,210.44,366.09Z" style="fill:#fff"></path><path d="M251,357.31a2.37,2.37,0,0,1-2.35,2.35,4.21,4.21,0,0,0-2.66.84,6.7,6.7,0,0,0-2,2.13,13.74,13.74,0,0,0-1.82,3.73v8.42a2.41,2.41,0,0,1-2.44,2.35,2.37,2.37,0,0,1-2.35-2.35V357.31a2.33,2.33,0,0,1,2.35-2.31,2.38,2.38,0,0,1,2.44,2.31v.31a6,6,0,0,1,.93-.89,9.74,9.74,0,0,1,5.59-1.73A2.3,2.3,0,0,1,251,357.31Z" style="fill:#fff"></path><path d="M261.62,349.41a2.39,2.39,0,0,1-2.39,2.44,2.43,2.43,0,0,1-2.4-2.44v-.93a2.39,2.39,0,0,1,2.4-2.4,2.35,2.35,0,0,1,2.39,2.4Zm0,8v17.3a2.35,2.35,0,0,1-2.39,2.39,2.39,2.39,0,0,1-2.4-2.39v-17.3a2.37,2.37,0,0,1,2.4-2.44A2.34,2.34,0,0,1,261.62,357.44Z" style="fill:#fff"></path><path d="M269.25,366.09V348.48a2.42,2.42,0,0,1,4.84,0v8.34A10.52,10.52,0,0,1,280,355a11.09,11.09,0,0,1,0,22.17,10.81,10.81,0,0,1-6-1.9,2.4,2.4,0,0,1-4.75-.49Zm4.84,0a6.22,6.22,0,0,0,1.77,4.39A5.69,5.69,0,0,0,280,372.3a5.75,5.75,0,0,0,4.17-1.82,6.22,6.22,0,0,0,1.77-4.39,6.3,6.3,0,0,0-1.77-4.48,5.75,5.75,0,0,0-4.17-1.82,5.69,5.69,0,0,0-4.17,1.82A6.3,6.3,0,0,0,274.09,366.09Z" style="fill:#fff"></path><path d="M297,366.05A11,11,0,0,1,307.79,355a10.6,10.6,0,0,1,10.69,10.29v.22a1.36,1.36,0,0,1,0,.4,2.13,2.13,0,0,1-2.31,1.77H302a5.79,5.79,0,0,0,1.51,2.93,6.91,6.91,0,0,0,4.25,2,7.3,7.3,0,0,0,4.62-1.11,2.5,2.5,0,0,1,3.32-.14,2,2,0,0,1,0,2.89,11.22,11.22,0,0,1-7.94,2.92A11,11,0,0,1,297,366.05Zm4.83-2.18h12.56c-.44-1.77-2.71-4.39-6.57-4.7A6.21,6.21,0,0,0,301.8,363.87Z" style="fill:#fff"></path><path d="M325.53,366.44V348.52a2.46,2.46,0,0,1,2.44-2.44,2.43,2.43,0,0,1,2.4,2.44v17.92a2.4,2.4,0,0,1-2.4,2.44A2.43,2.43,0,0,1,325.53,366.44ZM328,377.13a2.43,2.43,0,0,1-2.44-2.43v-.89a2.46,2.46,0,0,1,2.44-2.44,2.43,2.43,0,0,1,2.4,2.44v.89A2.39,2.39,0,0,1,328,377.13Z" style="fill:#fff"></path><path d="M384.51,379.68a4.6,4.6,0,1,1-4.6-4.6A4.6,4.6,0,0,1,384.51,379.68Z" style="fill:#fff"></path><path d="M400,378.15H359.84l.52-2.83a8.15,8.15,0,0,1,2.6-4.52l2.12-1.9,5.31-20.46c.8-4,4.66-6.87,9.17-6.87h.7c4.51,0,8.39,2.89,9.17,6.87l5.32,20.46,2.11,1.9a7.92,7.92,0,0,1,2.6,4.52Z" style="fill:#fff"></path><path d="M379.56,345.93a4.36,4.36,0,1,1,4.36-4.36A4.36,4.36,0,0,1,379.56,345.93Zm0-6.09a1.73,1.73,0,1,0,1.73,1.73A1.73,1.73,0,0,0,379.56,339.84Z" style="fill:#fff"></path></g><g id="freepik--Character--inject-474"><path d="M318.11,157.82a1,1,0,0,1-.82,1c-1.13.06-2.49.1-4,.15-3.33-9.44-7-17-6.06-14.05a48.18,48.18,0,0,1,2.12,14.18l-7.93.18c-2.65-16.55-6.31-28.86-6.17-25.09.58,15.22-.45,20.08-1.65,25.26-19.12.36-44.19.56-62.31.32-1.84-9.16-3.4-19.05-3.73-18.37-2.62,5.07-3.49,12.51-3.71,18.25-5.77-.12-10.38-.32-13.18-.58,0,0-1.14-7.69-1.26-10.21A52.58,52.58,0,0,1,212,129.75c2.1-6.32,5.57-11.86,8.87-17.55a.73.73,0,0,1,.09-.13s0,0,0,0a54.3,54.3,0,0,0,5.15-11.74.19.19,0,0,0,0-.09,51.88,51.88,0,0,0,1.75-9.07c1.15-11.22,7.75-20.76,18.39-23.44,20.47-18.24,40.23-9.79,45.86,4.78.54,1.42,1.06,3,1.56,4.81v.06c1.87,6.55,3.46,15,5,21.58,0,0,0,0,0,0s0,0,0,.07v0a64,64,0,0,0,2.16,7.59C305.55,118.5,316.88,125.47,318.11,157.82Z" style="fill:#263238"></path><path d="M241.56,70.66c-7,3.42-11.42,8.59-12.72,16.76-.76,4.76-1.21,9.42-3.17,13.88s-5.13,8.34-8.32,12.07c-5.06,5.93-8.65,11.88-9.63,19.9s-.87,17.81,1.67,25.51a0,0,0,1,0,.07,0c-2-7.79-1.78-18.5-.18-26.56,1.76-8.86,6.95-14.32,12.29-20.94a37,37,0,0,0,8.08-18c.63-4,.69-8.25,2.42-12,2.08-4.5,6-7.3,10-9.77A.48.48,0,0,0,241.56,70.66Z" style="fill:#263238"></path><path d="M312.11,119.52c-4.71-6.5-9.66-12.07-12.3-20-2.41-7.27-3.69-14.92-6.15-22.19a.09.09,0,1,0-.18,0c3.74,12.89,4.18,25.8,12.13,36.76,4.32,6,8.65,11.49,11.41,18.57a62.29,62.29,0,0,1,4,23.22.2.2,0,1,0,.4,0A51.66,51.66,0,0,0,312.11,119.52Z" style="fill:#263238"></path><path d="M248.66,65.64c-.32,2.7-13.55,8.38-22.33.9s-4.07-20.93,8.42-18.79C242.65,49.1,249.35,59.94,248.66,65.64Z" style="fill:#263238"></path><path d="M222.45,54.05a15.88,15.88,0,0,1,7.49-7.35,9.57,9.57,0,0,1,9.56.6,19.35,19.35,0,0,1,6.59,8,30.07,30.07,0,0,1,1.89,5,14.68,14.68,0,0,1,.68,5.36,12.86,12.86,0,0,0,.29-5.56,24.1,24.1,0,0,0-1.41-5.46,18.68,18.68,0,0,0-6.95-9,11.14,11.14,0,0,0-5.68-1.79,11.29,11.29,0,0,0-5.69,1.48A14,14,0,0,0,222.45,54.05Z" style="fill:#263238"></path><path d="M286.19,158.11c45.17,31.47,106.43,96.53,100.57,114.62-6.53,20.14-69.91-17.41-68.77-20.41,1-2.55-27.55-47.9-48.32-81.08S275,150.33,286.19,158.11Z" style="fill:#f7a9a0"></path><path d="M341.32,195.64l-51.51,20.49s-21-35.18-28-55.68c-3.88-11.49,2.95-13.38,12.94-8.88C309.75,167.3,341.32,195.64,341.32,195.64Z" style="fill:#455a64"></path><path d="M292.81,160.84a62.61,62.61,0,0,0-16.75-.15c-4.5.48-9,1.19-13.45,1.9-.12-.31-.23-.62-.34-.93,4.54-.71,9.1-1.41,13.7-1.9a65.86,65.86,0,0,1,14.72-.12Zm12.91,7.93c-3.65,1-7.31,2-11,2.81-5.73,1.21-11.59,2.29-17.4,1.75a35.15,35.15,0,0,1-8.5-2c-1.1-.41-2.19-.88-3.25-1.39l.36.82c.87.42,1.76.81,2.67,1.16a35.08,35.08,0,0,0,8.64,2.16,41.45,41.45,0,0,0,8.91-.19,80.3,80.3,0,0,0,8.74-1.55c3.9-.9,7.76-2,11.59-3.09Zm23.87,17.15c-4.37,3.71-8.77,7.38-13.38,10.77s-9.67,6.78-15.2,8.65a35.63,35.63,0,0,1-8.58,1.61,43.37,43.37,0,0,1-8.13-.33l.34.58a43.59,43.59,0,0,0,7.83.38,34.48,34.48,0,0,0,8.77-1.53,40.65,40.65,0,0,0,8.07-3.77,78.43,78.43,0,0,0,7.37-5c4.63-3.48,9.05-7.23,13.42-11ZM328,184.68c-2.86,0-5.73.2-8.59.46a68.44,68.44,0,0,0-8.76,1.47,60.12,60.12,0,0,0-16.37,6.85c-4.39,2.53-8.64,5.27-12.87,8,.17.29.32.56.47.84,4.26-2.75,8.49-5.53,12.87-8a61.2,61.2,0,0,1,16.1-6.83,68.28,68.28,0,0,1,8.64-1.55c2.92-.3,5.85-.51,8.79-.56h.54Z" style="fill:#37474f"></path><path d="M334.42,198.39,289.8,216.12s-21-35.17-27.95-55.66c-2.48-7.36-.57-10.78,3.74-11.11Z" style="fill:#37474f"></path><path d="M288.38,207.3c7.67-3.81,28.75-13.54,43.28-18.07.09,0,.23.3.15.34-11.52,5.59-35.25,15.08-43.22,18.2C288.44,207.83,288.24,207.37,288.38,207.3Z" style="fill:#263238"></path><path d="M321.88,310.1H190.44S195.77,207.74,240.31,157c12-13.68,30.91-10.35,40.54-.37,15.91,16.5,34.69,52.32,36.12,60.14,2.36,12.92-5.07,26.88-5.07,26.88Z" style="fill:#455a64"></path><path d="M315,264.55c-3.41,1-6.85,2-10.32,2.8a103.41,103.41,0,0,1-17.5,2.8,71.11,71.11,0,0,1-8.88,0,40.93,40.93,0,0,1-8.72-1.72,68.66,68.66,0,0,1-16-7.58c-5-3.09-9.83-6.53-14.77-9.74-2.72-1.79-5.48-3.53-8.32-5.12l-1.13-.62c-1.93-1.05-3.9-2-5.92-2.88a44.81,44.81,0,0,0-8.35-2.66,35.38,35.38,0,0,0-8.7-.67,36.76,36.76,0,0,0-4.79.65c.07-.28.14-.56.22-.84a34.24,34.24,0,0,1,4.52-.56,34.82,34.82,0,0,1,8.88.8,46.06,46.06,0,0,1,8.43,2.8,68.69,68.69,0,0,1,6.3,3.17c.38.2.74.41,1.11.63,2.71,1.57,5.35,3.27,7.94,5,4.89,3.3,9.72,6.69,14.76,9.72A68.34,68.34,0,0,0,269.76,268a40.3,40.3,0,0,0,8.62,1.6,69.73,69.73,0,0,0,8.79-.13,109.73,109.73,0,0,0,17.35-2.93c3.49-.84,7-1.83,10.38-2.89Zm-.55-3.67c-1.73-1-3.43-2.13-5.11-3.24-4.94-3.21-9.74-6.65-14.77-9.74a69.33,69.33,0,0,0-16-7.58,41,41,0,0,0-8.71-1.72,71.1,71.1,0,0,0-8.88,0,103.69,103.69,0,0,0-17.51,2.8c-4.55,1.09-9.05,2.4-13.51,3.78l-.59.19-2.92.91c-5.63,1.78-11.2,3.68-16.88,5.18a72.58,72.58,0,0,1-11.18,2.16c-.07.32-.13.63-.2.94a72.58,72.58,0,0,0,11.62-2.19c7-1.87,13.82-4.21,20.69-6.38l.57-.18c4.17-1.31,8.36-2.55,12.61-3.57a108.43,108.43,0,0,1,17.35-2.94,71.53,71.53,0,0,1,8.78-.13,40.19,40.19,0,0,1,8.62,1.6,68.15,68.15,0,0,1,15.94,7.41c5.05,3,9.88,6.42,14.77,9.72,1.77,1.19,3.56,2.36,5.38,3.48ZM283.29,159.3c-2.45,0-4.9.21-7.32.46-7.2.77-14.31,2-21.43,3.12l-.6.09c-4.32.66-8.65,1.24-13,1.6-2.33.19-4.67.34-7,.41l-.61.84c2.57,0,5.13-.19,7.69-.39,4.67-.38,9.31-1,13.93-1.66l.62-.09,3-.46c5.83-.89,11.63-1.91,17.47-2.53a77,77,0,0,1,8-.48C283.82,159.9,283.56,159.6,283.29,159.3ZM293,171.93c-5.19,1.06-10.47,1.89-15.71,1.4a35.15,35.15,0,0,1-8.5-2,44.25,44.25,0,0,1-7.85-3.92c-1.86-1.16-3.66-2.42-5.4-3.74l-1-.8c-2.56-2-5-4.16-7.43-6.34-1.09-1-2.16-2-3.24-2.95l-.23.19,3.23,3c2.3,2.12,4.63,4.21,7.07,6.17.33.28.66.54,1,.8a70.49,70.49,0,0,0,5.75,4.1,46,46,0,0,0,7.9,4.06,35.08,35.08,0,0,0,8.64,2.16,41.45,41.45,0,0,0,8.91-.19q3.74-.45,7.38-1.25Zm17.19,28.86a43.52,43.52,0,0,1-9.2,4.55,35.63,35.63,0,0,1-8.58,1.61,44.32,44.32,0,0,1-8.76-.41c-2.18-.3-4.33-.73-6.46-1.24L276,205c-3.16-.81-6.27-1.78-9.36-2.8-5.61-1.81-11.13-3.89-16.79-5.57a68.62,68.62,0,0,0-17.41-3.17,41.15,41.15,0,0,0-8.86.59,57.84,57.84,0,0,0-7.12,1.89l-.36.84a59.43,59.43,0,0,1,7.59-2.13,39.38,39.38,0,0,1,8.74-.69,68.27,68.27,0,0,1,17.32,3c5.66,1.62,11.2,3.63,16.78,5.55,2.95,1,5.94,2,9,2.79l1.23.32a70.12,70.12,0,0,0,6.92,1.42,45.33,45.33,0,0,0,8.87.52,34.48,34.48,0,0,0,8.77-1.53,40.65,40.65,0,0,0,8.07-3.77l1.26-.77Zm-6.53-12a76.52,76.52,0,0,0-9.39,4.64C288,197.08,282,201.12,276,205l-.51.32c-3.68,2.34-7.4,4.63-11.24,6.72a108.94,108.94,0,0,1-16,7.33,71.85,71.85,0,0,1-8.45,2.41,40.61,40.61,0,0,1-8.74.69,68.56,68.56,0,0,1-17.31-3q-2.84-.81-5.62-1.73c0,.09-.07.19-.1.29,1.86.62,3.73,1.22,5.61,1.78A69.15,69.15,0,0,0,231,223a40.49,40.49,0,0,0,8.86-.6,70,70,0,0,0,8.57-2.34,102.83,102.83,0,0,0,16.18-7.24c4.12-2.23,8.11-4.66,12.06-7.15.18-.11.36-.22.53-.34.87-.54,1.73-1.09,2.59-1.64,5-3.17,9.86-6.46,15-9.38a74.54,74.54,0,0,1,9.39-4.66C304,189.36,303.84,189.09,303.68,188.82Zm14.15,94.33a61.52,61.52,0,0,0-13-2,41.11,41.11,0,0,0-8.86.59,71.31,71.31,0,0,0-8.57,2.34,103.34,103.34,0,0,0-16.18,7.24c-4.12,2.23-8.12,4.66-12.07,7.15-.17.12-.35.23-.53.34L256,300.5c-5,3.17-9.87,6.45-15,9.38l-.39.22h1.87c5.91-3.46,11.57-7.27,17.32-10.93l.51-.33c3.68-2.34,7.4-4.63,11.24-6.72a108,108,0,0,1,16-7.33,67.56,67.56,0,0,1,8.44-2.41,39.42,39.42,0,0,1,8.74-.69,61.26,61.26,0,0,1,13.11,1.89Zm3.56,23.66c-.26.11-.52.2-.78.29a70,70,0,0,1-8.45,2.41,35.9,35.9,0,0,1-4.51.59c-1.41.1-2.81.13-4.22.1-.68,0-1.36-.05-2-.1a72,72,0,0,1-15.28-2.92c-5.66-1.62-11.2-3.64-16.78-5.56-3-1-5.94-2-9-2.78l-1.24-.33a70.53,70.53,0,0,0-6.91-1.42,47,47,0,0,0-8.87-.52,35.46,35.46,0,0,0-8.78,1.53,41,41,0,0,0-8.07,3.78,79.61,79.61,0,0,0-7.36,5q-2.13,1.59-4.2,3.26h1.19q1.71-1.34,3.47-2.63c4.75-3.43,9.67-6.78,15.21-8.65a35.07,35.07,0,0,1,8.57-1.61,44.28,44.28,0,0,1,8.76.4c2.17.31,4.32.73,6.46,1.24l1.26.32c3.15.79,6.27,1.76,9.36,2.78,5.6,1.82,11.13,3.9,16.79,5.58a82.34,82.34,0,0,0,11.1,2.57,52.88,52.88,0,0,0,6.3.6,40.49,40.49,0,0,0,8.86-.6,69.5,69.5,0,0,0,8.57-2.34l.65-.23Z" style="fill:#37474f"></path><path d="M271.78,234.5a122.31,122.31,0,0,1,17.82,3.09c2.9.77,5.74,1.67,8.58,2.64,1.42.48,2.84.91,4.27,1.33a19,19,0,0,0,4.6.91.11.11,0,0,1,0,.21,32.78,32.78,0,0,1-4.43-.12,31.65,31.65,0,0,1-4.21-.83c-2.95-.75-5.86-1.64-8.8-2.43-5.94-1.58-11.87-3.16-17.9-4.3A.26.26,0,0,1,271.78,234.5Z" style="fill:#263238"></path><path d="M256.87,239.7a132.64,132.64,0,0,1,14.92-.59c2.49,0,5,.25,7.44.51,1.18.12,2.36.27,3.54.43s2.57.53,3.87.69c.14,0,.13.22,0,.21-1.23-.11-2.49,0-3.72-.06l-3.72-.13c-2.48-.08-5-.14-7.45-.24-5-.22-9.92-.38-14.89-.42C256.59,240.1,256.62,239.72,256.87,239.7Z" style="fill:#263238"></path><path d="M386.72,272.32c-5.13,14.29-27.36,22.8-81.32,49.5-7.47,3.69-47.71-42-39.94-46.35,9.79-5.49,49-24.65,52-25.69C343.12,241,390.19,262.62,386.72,272.32Z" style="fill:#f7a9a0"></path><path d="M211.07,336.05c5.39,4.71,15.87-9.56,15.87-9.56a13.23,13.23,0,0,0,1.93,8.77c3.12,4.46,11.48,1.53,11.48,1.53a16.36,16.36,0,0,0,3.5,8.93c3.42,4,12.27,2.21,12.27,2.21a15,15,0,0,0,8,5.91c14.74,3.88,40.72-25.91,46.33-36l-32.84-48.3s-37.82,11-48.81,22.71C222.73,298.77,202.83,328.85,211.07,336.05Z" style="fill:#f7a9a0"></path><path d="M226.89,326.24c4.06-8.85,10.24-16.71,16.28-24.24.13-.16.39.05.26.22-6.1,7.41-10.36,16.63-16.15,24.27C227.12,326.7,226.78,326.48,226.89,326.24Z" style="fill:#263238"></path><path d="M240,336.12a25.49,25.49,0,0,1,4.06-5.26c1.56-1.76,3.16-3.49,4.78-5.19q4.86-5.13,10-10c.15-.14.41,0,.26.21-3.23,3.41-6.4,6.87-9.48,10.42-1.55,1.77-3.07,3.56-4.59,5.36a29.78,29.78,0,0,1-4.51,4.87A.33.33,0,0,1,240,336.12Z" style="fill:#263238"></path><path d="M256.26,347.78c.78-1.75,2.57-3.19,3.9-4.54,1.52-1.52,3-3.06,4.51-4.6,3-3.08,6-6.17,8.85-9.36.14-.16.4.05.26.21-2.91,3.26-5.77,6.55-8.71,9.78q-2.16,2.37-4.35,4.73c-1.24,1.33-2.64,3.14-4.31,3.94A.12.12,0,0,1,256.26,347.78Z" style="fill:#263238"></path><path d="M344.43,248.87c-4.48-1.3-16.83-3.82-26.91.8a.1.1,0,0,0,.05.19c8.68-2.57,22.37-1.71,26.82-.81A.09.09,0,0,0,344.43,248.87Z" style="fill:#263238"></path><path d="M248,167.69c-1.86,21.23-30.44,117.28-75.22,131.92-15.2,5-37.7-54.8-32.19-124.83.16-2.07,47.29-12.7,51.19-1.87.42,1.16,4,32.33,2.67,32-1.69-.4,12.63-16.15,36.12-42.08C241.7,150.58,249.14,155,248,167.69Z" style="fill:#f7a9a0"></path><path d="M193.67,202.46c1.85,15.95,3.38,32,4.47,48,.3,4.47.65,8.93,1,13.4,0,.16.27.13.27,0a230.68,230.68,0,0,0-.38-24.1c-.53-7.94-1.23-16-2.54-23.82-.75-4.52-1.57-9-2.49-13.5C193.93,202.2,193.65,202.27,193.67,202.46Z" style="fill:#263238"></path><path d="M140.51,188.62c-3.8-5-19.21-29.47-22-37.24s-9.1-30.7-3.36-33.42,8.12,3.84,8.12,3.84-1.14-10.1,4.88-12.32,9.41,8.13,9.41,8.13-.42-10.47,5.74-12.24,7.83,9.18,7.83,9.18-.83-9.55,4.87-8.88c6.85.81,6.38,18.59,10.08,26.94.83,1.89,19.74,37.2,19.74,37.2Z" style="fill:#f7a9a0"></path><path d="M151,113.61c-.31,13.08,1.81,18.85,8.42,29.9.13.21-.16.46-.32.24-7.45-10.23-11.16-17.08-8.73-30.18C150.48,112.92,151,113,151,113.61Z" style="fill:#263238"></path><path d="M137.63,116.57c.86,13.61,3.11,19.89,9.18,32,.09.17-.19.33-.29.17-7-11.35-10.5-18.28-9.57-32C137,116.1,137.59,116,137.63,116.57Z" style="fill:#263238"></path><path d="M123.63,122.41c1.78,13.11,4,20.11,11.35,31.08a.24.24,0,0,1-.38.29c-8.64-10.45-11.41-19.16-11.36-31.27C123.24,121.68,123.52,121.58,123.63,122.41Z" style="fill:#263238"></path><path d="M169,80.41H132.93a3.69,3.69,0,0,0-3.65,3.72v74.22a3.69,3.69,0,0,0,3.65,3.72H169a3.69,3.69,0,0,0,3.65-3.72V84.13A3.69,3.69,0,0,0,169,80.41Zm1.37,75.65a3.4,3.4,0,0,1-3.27,3.53H134.83a3.41,3.41,0,0,1-3.27-3.53V86.94c0-4,1.47-4.17,3.27-4.17h6.47c.37,0,.68.43.68,1V84c0,1.24.68,1.25,1.51,1.25h14.94c.84,0,1.52,0,1.52-1.25v-.23c0-.52.3-1,.68-1h6.46c1.81,0,3.27.53,3.27,4.17Z" style="fill:#37474f"></path><path d="M170.36,87v69.12a3.4,3.4,0,0,1-3.27,3.53H134.84a3.41,3.41,0,0,1-3.28-3.53V87c0-4,1.47-4.17,3.28-4.17h6.46c.37,0,.68.43.68,1V84c0,1.24.68,1.25,1.51,1.25h14.94c.84,0,1.52,0,1.52-1.25v-.23c0-.52.3-1,.68-1h6.46C168.9,82.83,170.36,83.36,170.36,87Z" style="fill:#BA68C8"></path><path d="M170.36,95.82v60.3a3.4,3.4,0,0,1-3.27,3.53H134.84a3.4,3.4,0,0,1-3.27-3.53V110.88c8.49-1.09,17,11.31,24.92,7.66,7.23-3.35,6.9-13.94,9.59-18.77A9.21,9.21,0,0,1,170.36,95.82Z" style="fill:#fff;opacity:0.2"></path><path d="M170.36,135.52v20.6a3.4,3.4,0,0,1-3.27,3.53H134.84a3.4,3.4,0,0,1-3.27-3.53V129.19c4.6,8.05,9.76,10.37,14.45,9.18,5.36-1.36,13-8.3,20.24-5.88A8.38,8.38,0,0,1,170.36,135.52Z" style="fill:#fff;opacity:0.2"></path><path d="M153,83.65h-4.08a.25.25,0,0,1-.25-.25h0a.26.26,0,0,1,.25-.26H153a.26.26,0,0,1,.25.26h0A.25.25,0,0,1,153,83.65Z" style="fill:#263238"></path><g id="freepik--u5Zjqx--inject-474"><path d="M140.18,84.32l-.06.06,0,0a.82.82,0,0,0-.6-.25.86.86,0,0,0-.6.25l0,0-.07-.06h0a.27.27,0,0,1,.08-.07.57.57,0,0,1,.18-.12.75.75,0,0,1,.24-.08l.12,0h.19a.54.54,0,0,1,.22,0l.15.07a.71.71,0,0,1,.14.1l.07.06Z" style="fill:#263238"></path><path d="M139.08,84.61l-.1-.09a.67.67,0,0,1,.4-.2.65.65,0,0,1,.6.2l-.1.09a.58.58,0,0,0-.8,0Z" style="fill:#263238"></path><path d="M139.79,84.71l-.1.1a.32.32,0,0,0-.42,0l-.09-.1A.44.44,0,0,1,139.79,84.71Z" style="fill:#263238"></path><path d="M139.57,84.9a.09.09,0,1,1-.09-.09A.09.09,0,0,1,139.57,84.9Z" style="fill:#263238"></path></g><path d="M134.09,84.51a.26.26,0,1,1,.26.26A.26.26,0,0,1,134.09,84.51Z" style="fill:#263238"></path><path d="M134.9,84.51a.26.26,0,1,1,.26.26A.26.26,0,0,1,134.9,84.51Z" style="fill:#263238"></path><circle cx="135.97" cy="84.51" r="0.26" style="fill:#263238"></circle><circle cx="136.78" cy="84.51" r="0.26" style="fill:#263238"></circle><circle cx="137.59" cy="84.51" r="0.26" style="fill:#263238"></circle><path d="M167.45,85.07h-2.09v-1h2.09Zm-2-.11h1.88v-.75h-1.88Z" style="fill:#263238"></path><rect x="165.53" y="84.27" width="1.35" height="0.64" style="fill:#263238"></rect><rect x="167.45" y="84.33" width="0.19" height="0.52" style="fill:#263238"></rect><path d="M152.25,119.08A1.29,1.29,0,1,1,151,117.8,1.28,1.28,0,0,1,152.25,119.08Z" style="fill:#fff"></path><path d="M156.57,118.65H145.35l.15-.79a2.26,2.26,0,0,1,.73-1.26l.59-.53,1.48-5.72a2.55,2.55,0,0,1,2.57-1.92h.19a2.54,2.54,0,0,1,2.56,1.92l1.49,5.72.59.53a2.19,2.19,0,0,1,.72,1.26Z" style="fill:#fff"></path><path d="M150.87,109.65a1.22,1.22,0,1,1,1.21-1.22A1.22,1.22,0,0,1,150.87,109.65Zm0-1.7a.49.49,0,1,0,.48.48A.49.49,0,0,0,150.87,108Z" style="fill:#fff"></path><path d="M151,126.59a12.8,12.8,0,1,1,12.8-12.8A12.81,12.81,0,0,1,151,126.59Zm0-24.6a11.8,11.8,0,1,0,11.8,11.8A11.81,11.81,0,0,0,151,102Z" style="fill:#fff"></path><path d="M139.14,134.24a.2.2,0,0,1,.28,0,1.2,1.2,0,0,0,.73.29.8.8,0,0,0,.48-.14.35.35,0,0,0,.16-.28.24.24,0,0,0,0-.12.44.44,0,0,0-.12-.11,1.36,1.36,0,0,0-.52-.18h0a2.17,2.17,0,0,1-.49-.15.82.82,0,0,1-.36-.3.57.57,0,0,1-.09-.32.7.7,0,0,1,.31-.55,1.13,1.13,0,0,1,.66-.21,1.5,1.5,0,0,1,.84.31.2.2,0,0,1,.05.27.2.2,0,0,1-.27.06,1.15,1.15,0,0,0-.62-.25.78.78,0,0,0-.43.13.32.32,0,0,0-.14.24.18.18,0,0,0,0,.11.36.36,0,0,0,.11.1,1.33,1.33,0,0,0,.47.17h0a2.37,2.37,0,0,1,.53.16.86.86,0,0,1,.38.32.6.6,0,0,1,.1.32.75.75,0,0,1-.33.6,1.2,1.2,0,0,1-.71.22,1.63,1.63,0,0,1-1-.39A.19.19,0,0,1,139.14,134.24Z" style="fill:#fff"></path><path d="M142.88,134.91a1.11,1.11,0,0,1-1.1-1.11v-1.36a.21.21,0,0,1,.21-.21.21.21,0,0,1,.21.21v1.36a.68.68,0,1,0,1.36,0v-1.36a.21.21,0,0,1,.22-.21.21.21,0,0,1,.21.21v1.36A1.11,1.11,0,0,1,142.88,134.91Z" style="fill:#fff"></path><path d="M144.88,134.7v-2.26a.21.21,0,0,1,.22-.21h.54a.73.73,0,0,1,.73.73.72.72,0,0,1-.15.43.85.85,0,0,1,.39.7.82.82,0,0,1-.82.82h-.69A.22.22,0,0,1,144.88,134.7Zm.43-1.43h.33a.31.31,0,0,0,0-.62h-.33Zm0,1.22h.48a.4.4,0,0,0,0-.8h-.48Z" style="fill:#fff"></path><path d="M147.07,134.24a.2.2,0,0,1,.28,0,1.2,1.2,0,0,0,.73.29.78.78,0,0,0,.48-.14.33.33,0,0,0,.17-.28.17.17,0,0,0,0-.12.38.38,0,0,0-.11-.11,1.36,1.36,0,0,0-.53-.18h0a2.54,2.54,0,0,1-.49-.15,1,1,0,0,1-.36-.3.66.66,0,0,1-.08-.32.72.72,0,0,1,.3-.55,1.16,1.16,0,0,1,.67-.21,1.46,1.46,0,0,1,.83.31.18.18,0,0,1,.05.27.19.19,0,0,1-.27.06,1.09,1.09,0,0,0-.61-.25.76.76,0,0,0-.43.13.31.31,0,0,0-.15.24.18.18,0,0,0,0,.11.31.31,0,0,0,.1.1,1.32,1.32,0,0,0,.48.17h0a2.74,2.74,0,0,1,.53.16,1,1,0,0,1,.38.32.59.59,0,0,1,.09.32.75.75,0,0,1-.33.6,1.18,1.18,0,0,1-.71.22,1.66,1.66,0,0,1-1-.39A.21.21,0,0,1,147.07,134.24Z" style="fill:#fff"></path><path d="M149.59,133.53a1.41,1.41,0,0,1,1.4-1.38,1.43,1.43,0,0,1,.89.3.22.22,0,0,1-.27.35,1,1,0,0,0-.62-.21,1,1,0,0,0-.69.28.92.92,0,0,0-.27.66.94.94,0,0,0,.27.67,1,1,0,0,0,.69.27,1,1,0,0,0,.62-.21.24.24,0,0,1,.31.05.22.22,0,0,1,0,.3,1.43,1.43,0,0,1-.89.3A1.4,1.4,0,0,1,149.59,133.53Z" style="fill:#fff"></path><path d="M154.43,134.59a.21.21,0,0,1-.14.27h-.08a.31.31,0,0,1-.15,0,.37.37,0,0,1-.12-.13.94.94,0,0,1-.09-.46.27.27,0,0,0,0-.17.32.32,0,0,0-.12-.11,1,1,0,0,0-.21-.09H153v.83a.22.22,0,0,1-.22.21.21.21,0,0,1-.21-.21v-2.26a.21.21,0,0,1,.21-.21h.69a.82.82,0,0,1,.82.82.81.81,0,0,1-.3.63.86.86,0,0,1,.13.14.72.72,0,0,1,.13.42c0,.11,0,.18,0,.22A.2.2,0,0,1,154.43,134.59Zm-.54-1.54a.39.39,0,0,0-.39-.4H153v.79h.47A.38.38,0,0,0,153.89,133.05Z" style="fill:#fff"></path><path d="M155.07,132.44a.21.21,0,0,1,.21-.21.21.21,0,0,1,.22.21v2.26a.21.21,0,0,1-.22.21.21.21,0,0,1-.21-.21Z" style="fill:#fff"></path><path d="M156.21,134.7v-2.26a.21.21,0,0,1,.21-.21H157a.73.73,0,0,1,.72.73.71.71,0,0,1-.14.43.85.85,0,0,1,.39.7.82.82,0,0,1-.82.82h-.7A.22.22,0,0,1,156.21,134.7Zm.43-1.43H157a.31.31,0,0,0,0-.62h-.33Zm0,1.22h.48a.4.4,0,0,0,0-.8h-.48Z" style="fill:#fff"></path><path d="M158.48,134.7v-2.26a.21.21,0,0,1,.21-.21H160a.21.21,0,0,1,0,.42h-1v.71h.89a.21.21,0,0,1,.21.21.21.21,0,0,1-.21.21h-.89v.71h1a.21.21,0,0,1,.21.21.22.22,0,0,1-.21.21h-1.26A.22.22,0,0,1,158.48,134.7Z" style="fill:#fff"></path><path d="M160.75,134.7v-2.26a.21.21,0,0,1,.21-.21h.45a1.34,1.34,0,0,1,0,2.68H161A.21.21,0,0,1,160.75,134.7Zm.43-.21h.23a.92.92,0,0,0,0-1.84h-.23Z" style="fill:#fff"></path><path d="M192.14,173.35s.37-16.38-1-23.62-16.64-32.24-22.23-29.25c-7.22,3.84-1.27,20,2.67,27.55,0,0-16.69,8.89-14.94,21.41S192.14,173.35,192.14,173.35Z" style="fill:#f7a9a0"></path><path d="M167.22,122.18c-4,8.26,1.77,17.82,5.06,25.42a.76.76,0,0,1-.61,1.08c-6.75,4.2-15,12.07-15.49,20.45a.19.19,0,0,1-.38,0c-.75-9,6.77-17.45,14.46-21.57-3.49-7.74-8.9-17.58-3.11-25.43C167.18,122.1,167.25,122.13,167.22,122.18Z" style="fill:#263238"></path><path d="M194,202.4,239,220.82s12.63-39,14.78-60.52c1.2-12.06-5.88-12.38-14.61-5.76C208.65,177.71,194,202.4,194,202.4Z" style="fill:#455a64"></path><path d="M253.48,163c0,.32-.08.64-.13,1-4.09.59-8.2,1.09-12.34,1.43a106.77,106.77,0,0,1-15.28.25l.77-.69a120,120,0,0,0,14.44-.42C245.14,164.22,249.31,163.67,253.48,163Zm-6.37-6.5c-1.55-1.39-3.08-2.8-4.61-4.22l-.27.16c1.55,1.43,3.09,2.88,4.64,4.32,2.17,2,4.37,4,6.66,5.85,0-.18.05-.35.07-.52C251.38,160.35,249.23,158.46,247.11,156.54ZM232.4,193.46a41.15,41.15,0,0,0-8.86.59,72.34,72.34,0,0,0-8.57,2.34,104.17,104.17,0,0,0-16.18,7.24c-.26.14-.52.28-.77.43l1,.42.15-.09a108.94,108.94,0,0,1,16-7.33,68.2,68.2,0,0,1,8.45-2.41,39.38,39.38,0,0,1,8.74-.69,62,62,0,0,1,13.92,2.1c0-.13.06-.25.1-.38A62.5,62.5,0,0,0,232.4,193.46Z" style="fill:#37474f"></path><path d="M240.29,210.44c-7.18-3.44-26.95-12.16-40.59-16-.08,0-.22.3-.14.33,10.8,5,33.05,13.4,40.52,16.16C240.22,211,240.42,210.5,240.29,210.44Z" style="fill:#263238"></path><path d="M251.32,180.8c-.91,2.3-1.78,4.62-2.64,6.94.06-.28.14-.57.2-.86.74-3.3,1.46-6.6,2.1-9.93,0-.08-.12-.11-.14,0-3,11.5-11.15,40.49-11.8,43.7-.25-.07-4.64-1.83-5.23-1.93-.12,0-.23.22-.11.25.3.07,6,2.48,6,2.4,2.32-5.51,7.36-26.74,8.46-31.45q1.83-4.45,3.21-9.07S251.34,180.75,251.32,180.8Z" style="fill:#263238"></path><path d="M252.24,153.41c.8,2.22,13.42,15.72,23.78,14,3.38-.57,1.11-19.12,1.11-19.12l.15-1.41,2-19.7L255,115.38l-3.48-1.53s-.2,5.43-.38,12.19c0,.32,0,.63,0,1s0,.75,0,1.11c0,1-.08,2-.09,3.06,0,.79,0,1.55,0,2.37s0,1.62,0,2.45C251.11,144.12,251.91,152.47,252.24,153.41Z" style="fill:#f7a9a0"></path><path d="M251.18,126a39.71,39.71,0,0,0,26.1,20.85l2-19.7L255,115.38l-3.48-1.53S251.36,119.28,251.18,126Z" style="fill:#263238"></path><path d="M301.64,94.7c8.49,33.71-10.74,42.61-18,44.43-6.6,1.66-29.29,6.45-41.22-26.2s1.06-47.26,16-51.84S293.14,61,301.64,94.7Z" style="fill:#f7a9a0"></path><path d="M290.87,88.39a24,24,0,0,1-2.4,0,4,4,0,0,1-2.45-.5,1.24,1.24,0,0,1-.29-1.48,3.07,3.07,0,0,1,2.83-1.29,4.48,4.48,0,0,1,3.08,1A1.31,1.31,0,0,1,290.87,88.39Z" style="fill:#263238"></path><path d="M269.08,93.33a22.54,22.54,0,0,0,2.21-.94,3.87,3.87,0,0,0,2.07-1.4,1.23,1.23,0,0,0-.3-1.48,3.07,3.07,0,0,0-3.1-.11,4.58,4.58,0,0,0-2.47,2.11A1.32,1.32,0,0,0,269.08,93.33Z" style="fill:#263238"></path><path d="M275.33,101c0-.08-.16.15-.13.25.59,2.29.87,5-1.05,6.25-.06,0,0,.15.05.12C276.67,106.73,276.26,103.11,275.33,101Z" style="fill:#263238"></path><path d="M272.73,99.08c-3.78.54-2.41,8.06,1.09,7.56S275.9,98.62,272.73,99.08Z" style="fill:#263238"></path><path d="M271.33,99.74c-.58.55-1.09,1.42-1.87,1.64s-1.73-.4-2.47-1c-.07-.07-.13,0-.11.11.24,1.44,1.06,2.82,2.65,2.75s2.22-1.52,2.32-3C271.86,99.88,271.56,99.52,271.33,99.74Z" style="fill:#263238"></path><path d="M288.44,97.17c0-.09.2.08.21.17.33,2.35,1.11,5,3.35,5.38.07,0,.09.14,0,.14C289.37,102.94,288.38,99.44,288.44,97.17Z" style="fill:#263238"></path><path d="M290.1,94.37c3.7-.94,5.3,6.53,1.87,7.4S287,95.16,290.1,94.37Z" style="fill:#263238"></path><path d="M291.76,94.53c.67.27,1.41.86,2.13.76s1.26-1.06,1.61-2c0-.09.11,0,.14.06.34,1.42.19,3-1.12,3.57s-2.38-.51-3-1.86C291.37,94.86,291.49,94.42,291.76,94.53Z" style="fill:#263238"></path><path d="M278.86,119.46c.64.47,1.3,1.15,2.16,1.11a6.22,6.22,0,0,0,2.44-.93.08.08,0,0,1,.12.11,3.18,3.18,0,0,1-2.81,1.67,2.52,2.52,0,0,1-2.12-1.82C278.59,119.47,278.77,119.39,278.86,119.46Z" style="fill:#263238"></path><path d="M287.93,108.59s1.16,3.39,1.48,5a9,9,0,0,1-9.13-1c-.16-.12,0-.34.2-.27A12.07,12.07,0,0,0,288,113c0-.48-2.19-5.75-1.93-5.82a14.84,14.84,0,0,1,3.9.12c-2.21-7.14-5.55-13.86-7.64-21a.23.23,0,0,1,.41-.19c4,6.8,6.72,15,9.19,22.27C292.27,109.32,288.64,108.74,287.93,108.59Z" style="fill:#263238"></path><path d="M287.13,113.89a8.6,8.6,0,0,1-2.95,3.24,3.91,3.91,0,0,1-2.3.56c-1.77-.15-2.08-1.69-2-3.07a9.23,9.23,0,0,1,.4-2.15A11.19,11.19,0,0,0,287.13,113.89Z" style="fill:#263238"></path><path d="M284.18,117.13a3.91,3.91,0,0,1-2.3.56c-1.77-.15-2.08-1.69-2-3.07C281.72,114.49,283.72,115.4,284.18,117.13Z" style="fill:#ff9abb"></path><path d="M277.58,65.72s1.45,5.16-.29,8.93c-3.55,7.75-12.86,5.88-16,9-2.92,2.9-1.79,8.79-4.44,11.69-3.67,4-8.76,2.56-9.33,5.23s-2.21,11.17-5.59,12.3-22-45.42,24.55-53.89c0,0,6.05-2.59,15.56,2s16.07,22.31,16.07,22.31a10.42,10.42,0,0,1-2.54-1.72c-2.17-1.85-3-3.58-4.61-4.78-2.49-1.88-3.83-1.13-6.42-3C280.6,71,277.58,65.72,277.58,65.72Z" style="fill:#263238"></path><path d="M276.87,63.28a30.25,30.25,0,0,1,1.4,6.75,12.4,12.4,0,0,1-.85,6.61,9.21,9.21,0,0,1-5,4c-2.1.8-4.42,1.06-6.67,2A6.76,6.76,0,0,0,262.79,85a9.32,9.32,0,0,0-1.25,3.43c-.44,2.28-.88,4.53-2.36,6.18a7.68,7.68,0,0,1-5.91,2.58c-2.23,0-4.71-.55-6.88.47,2.24-.84,4.54-.07,6.87.07a8.37,8.37,0,0,0,6.53-2.55c1.79-1.78,2.25-4.35,2.72-6.54a8.21,8.21,0,0,1,1.14-3,5.79,5.79,0,0,1,2.52-1.87c2-.89,4.36-1.2,6.59-2.09a12,12,0,0,0,3.13-1.77,7.32,7.32,0,0,0,2.3-2.83,13,13,0,0,0,.61-7A30.19,30.19,0,0,0,276.87,63.28Z" style="fill:#263238"></path><path d="M277.75,65.28A23.69,23.69,0,0,0,280,71.36a11.38,11.38,0,0,0,4.52,4.81,16.73,16.73,0,0,0,3.09,1.15A5.25,5.25,0,0,1,290,78.88a16.58,16.58,0,0,0,2,2.59,7.3,7.3,0,0,0,2.84,1.6,7.92,7.92,0,0,1-2.45-2,16.49,16.49,0,0,1-1.67-2.7A5.62,5.62,0,0,0,288,76.35,17.64,17.64,0,0,1,285,75.22a12.05,12.05,0,0,1-4.29-4.31A47.22,47.22,0,0,1,277.75,65.28Z" style="fill:#263238"></path><path d="M248.32,113s-9.22-9.5-13.65-6,3.71,18.07,9.76,19.27a5.89,5.89,0,0,0,7.28-4.37Z" style="fill:#f7a9a0"></path><path d="M237.11,111.1a.08.08,0,0,0,0,.16c4.27,1,7,4.34,9.07,7.95-1.43-1.29-3.18-1.84-4.94-.1-.09.09,0,.24.15.19a3.62,3.62,0,0,1,4.13.62,17.34,17.34,0,0,1,2.39,2.87c.25.33.86,0,.66-.36l-.05-.09C247.79,117.23,242.67,110.73,237.11,111.1Z" style="fill:#263238"></path><path d="M247.53,124.18a1.42,1.42,0,1,1-1.53-1.29A1.41,1.41,0,0,1,247.53,124.18Z" style="fill:#fff"></path><path d="M243.87,122.17a1,1,0,1,1-1.1-.93A1,1,0,0,1,243.87,122.17Z" style="fill:#fff"></path><path d="M234.91,110.91h-2.1a.74.74,0,0,1-.74-.75h0a.75.75,0,0,1,.75-.74h2.09a.76.76,0,0,1,.75.75h0A.75.75,0,0,1,234.91,110.91Z" style="fill:#BA68C8"></path><path d="M235.18,113.07l-2.06.44a.74.74,0,0,1-.88-.57h0a.75.75,0,0,1,.57-.89l2.05-.44a.75.75,0,0,1,.89.57h0A.76.76,0,0,1,235.18,113.07Z" style="fill:#BA68C8"></path><path d="M237.82,155.6c1-1,10.27-9.17,23.31-8.38,13.66.84,26.2,10.57,26.2,10.57s4.07,14-8.14,15.24C262.16,174.74,237.82,155.6,237.82,155.6Z" style="fill:#f7a9a0"></path></g><g id="freepik--Cursor--inject-474"><path d="M238.79,427.13V396.64c0-8.27,10.34-7.7,10.34,0v25.25h.26V411.16c0-7,9.32-7,9.32,0v10.73H259v-8.44c0-6.82,9.49-7.14,9.49.58v10.62h.29v-6c0-7.43,9.53-7.7,9.53.23V447c0,5.25-2.51,11.36-13.52,11.36H245c-5.07,0-8.82-13.28-11.36-18.43s-7.6-9.87-10.92-14.77,2.1-9.69,7.34-5.76A67.52,67.52,0,0,1,238.79,427.13Z" style="fill:#fff"></path><path d="M264.76,459.32H245c-4.56,0-7.74-8-10.3-14.38-.71-1.77-1.38-3.44-1.95-4.61a48,48,0,0,0-6.31-8.81c-1.57-1.9-3.21-3.86-4.55-5.84-2-2.9-1.22-5.75.38-7.28,1.8-1.71,5.08-2.32,8.39.16a71.51,71.51,0,0,1,7.11,6.11v-28a7.36,7.36,0,0,1,1.84-5.21,5.71,5.71,0,0,1,4.19-1.78c3.06,0,6.31,2.45,6.31,7v9.91a5.58,5.58,0,0,1,9.32,2.61,5.6,5.6,0,0,1,4.2-1.87,5.52,5.52,0,0,1,4,1.72,7,7,0,0,1,1.78,4.81l.06-.06a5.5,5.5,0,0,1,4-1.74c2.77,0,5.76,2.15,5.76,6.87V447C279.28,451.58,277.39,459.32,264.76,459.32Zm-38.61-40.41a3.56,3.56,0,0,0-2.48.94c-1,.92-1.5,2.65-.1,4.71,1.28,1.9,2.88,3.82,4.43,5.68a48.75,48.75,0,0,1,6.56,9.21c.61,1.24,1.29,2.94,2,4.75,2.09,5.22,5.25,13.12,8.45,13.12h19.74c10.35,0,12.52-5.63,12.52-10.36V418.89c0-3.37-1.89-4.87-3.76-4.87s-3.77,1.45-3.77,4.64v7h-2.29V414a5.12,5.12,0,0,0-1.23-3.64,3.51,3.51,0,0,0-2.58-1.1c-1.77,0-3.68,1.3-3.68,4.16v9.44h-2.26V411.16c0-2.92-1.83-4.23-3.65-4.23s-3.67,1.32-3.67,4.23v11.73h-2.26V396.64c0-3.28-2.17-5-4.31-5a3.72,3.72,0,0,0-2.74,1.16,5.41,5.41,0,0,0-1.29,3.83v33.09L238,427.8a65.7,65.7,0,0,0-8.56-7.64A5.57,5.57,0,0,0,226.15,418.91Z" style="fill:#263238"></path><path d="M247.86,386.77a10.49,10.49,0,0,1,.87-3.9,10.28,10.28,0,0,1,2.15-3.36,11.47,11.47,0,0,1-3,7.26Z" style="fill:#263238"></path><path d="M240.53,386.77a10.29,10.29,0,0,1-2.14-3.37,10.1,10.1,0,0,1-.86-3.9,11.51,11.51,0,0,1,3,7.27Z" style="fill:#263238"></path><path d="M235.34,392a11.45,11.45,0,0,1-7.26-3,10.29,10.29,0,0,1,3.9.86A10.45,10.45,0,0,1,235.34,392Z" style="fill:#263238"></path><path d="M235.34,399.28a11.45,11.45,0,0,1-7.27,3,10.32,10.32,0,0,1,3.37-2.15A10.48,10.48,0,0,1,235.34,399.28Z" style="fill:#263238"></path><path d="M253,399.29a10.49,10.49,0,0,1,3.9.87,10.32,10.32,0,0,1,3.37,2.15,11.53,11.53,0,0,1-7.27-3Z" style="fill:#263238"></path><path d="M253,392a10.4,10.4,0,0,1,3.37-2.14,10.1,10.1,0,0,1,3.9-.86,11.51,11.51,0,0,1-7.27,3Z" style="fill:#263238"></path></g></svg>
